<svg width="375" height="514" viewBox="0 0 375 514" fill="none" xmlns="http://www.w3.org/2000/svg">
<g id="Frame 2.2">
<rect width="375" height="514" fill="#2A2A2A"/>
<line id="Line" y1="-0.5" x2="452" y2="-0.5" transform="translate(333 47) rotate(90)" stroke="#5E5E5E" stroke-dasharray="3 1"/>
<line id="Line_2" y1="-0.5" x2="452" y2="-0.5" transform="translate(232 47) rotate(90)" stroke="#5E5E5E"/>
<g id="lines">
<line id="Line_3" y1="-0.5" x2="98" y2="-0.5" transform="translate(226 66) rotate(180)" stroke="#A3A3A3" stroke-dasharray="1 2"/>
<line id="Line_4" y1="-0.5" x2="98" y2="-0.5" transform="translate(226 92) rotate(180)" stroke="#A3A3A3" stroke-dasharray="1 2"/>
<line id="Line_5" y1="-0.5" x2="98" y2="-0.5" transform="translate(226 79) rotate(180)" stroke="#A3A3A3" stroke-dasharray="1 2"/>
<line id="Line_6" y1="-0.5" x2="98" y2="-0.5" transform="translate(226 105) rotate(180)" stroke="#A3A3A3" stroke-dasharray="1 2"/>
<line id="Line_7" y1="-0.5" x2="98" y2="-0.5" transform="translate(226 131) rotate(180)" stroke="#A3A3A3" stroke-dasharray="1 2"/>
<line id="Line_8" y1="-0.5" x2="98" y2="-0.5" transform="translate(226 118) rotate(180)" stroke="#A3A3A3" stroke-dasharray="1 2"/>
<line id="Line_9" y1="-0.5" x2="98" y2="-0.5" transform="translate(226 145) rotate(180)" stroke="#A3A3A3" stroke-dasharray="1 2"/>
<line id="Line_10" y1="-0.5" x2="98" y2="-0.5" transform="translate(226 171) rotate(180)" stroke="#A3A3A3" stroke-dasharray="1 2"/>
<line id="Line_11" y1="-0.5" x2="98" y2="-0.5" transform="translate(226 158) rotate(180)" stroke="#A3A3A3" stroke-dasharray="1 2"/>
<line id="Line_12" y1="-0.5" x2="98" y2="-0.5" transform="translate(226 184) rotate(180)" stroke="#A3A3A3" stroke-dasharray="1 2"/>
<line id="Line_13" y1="-0.5" x2="98" y2="-0.5" transform="translate(226 210) rotate(180)" stroke="#A3A3A3" stroke-dasharray="1 2"/>
<line id="Line_14" y1="-0.5" x2="98" y2="-0.5" transform="translate(226 197) rotate(180)" stroke="#A3A3A3" stroke-dasharray="1 2"/>
<line id="Line_15" y1="-0.5" x2="98" y2="-0.5" transform="translate(226 224) rotate(180)" stroke="#A3A3A3" stroke-dasharray="1 2"/>
<line id="Line_16" y1="-0.5" x2="98" y2="-0.5" transform="translate(226 250) rotate(180)" stroke="#A3A3A3" stroke-dasharray="1 2"/>
<line id="Line_17" y1="-0.5" x2="98" y2="-0.5" transform="translate(226 237) rotate(180)" stroke="#A3A3A3" stroke-dasharray="1 2"/>
<line id="Line_18" y1="-0.5" x2="98" y2="-0.5" transform="translate(226 263) rotate(180)" stroke="#A3A3A3" stroke-dasharray="1 2"/>
<line id="Line_19" y1="-0.5" x2="98" y2="-0.5" transform="translate(226 289) rotate(180)" stroke="#A3A3A3" stroke-dasharray="1 2"/>
<line id="Line_20" y1="-0.5" x2="98" y2="-0.5" transform="translate(226 276) rotate(180)" stroke="#A3A3A3" stroke-dasharray="1 2"/>
<line id="Line_21" y1="-0.5" x2="98" y2="-0.5" transform="translate(226 304) rotate(180)" stroke="#A3A3A3" stroke-dasharray="1 2"/>
<line id="Line_22" y1="-0.5" x2="98" y2="-0.5" transform="translate(226 330) rotate(180)" stroke="#A3A3A3" stroke-dasharray="1 2"/>
<line id="Line_23" y1="-0.5" x2="98" y2="-0.5" transform="translate(226 317) rotate(180)" stroke="#A3A3A3" stroke-dasharray="1 2"/>
<line id="Line_24" y1="-0.5" x2="98" y2="-0.5" transform="translate(226 343) rotate(180)" stroke="#A3A3A3" stroke-dasharray="1 2"/>
<line id="Line_25" y1="-0.5" x2="98" y2="-0.5" transform="translate(226 369) rotate(180)" stroke="#A3A3A3" stroke-dasharray="1 2"/>
<line id="Line_26" y1="-0.5" x2="98" y2="-0.5" transform="translate(226 356) rotate(180)" stroke="#A3A3A3" stroke-dasharray="1 2"/>
<line id="Line_27" y1="-0.5" x2="98" y2="-0.5" transform="translate(226 409) rotate(180)" stroke="#A3A3A3" stroke-dasharray="1 2"/>
<line id="Line_28" y1="-0.5" x2="98" y2="-0.5" transform="translate(226 396) rotate(180)" stroke="#A3A3A3" stroke-dasharray="1 2"/>
<line id="Line_29" y1="-0.5" x2="98" y2="-0.5" transform="translate(226 422) rotate(180)" stroke="#A3A3A3" stroke-dasharray="1 2"/>
<line id="Line_30" y1="-0.5" x2="98" y2="-0.5" transform="translate(226 448) rotate(180)" stroke="#A3A3A3" stroke-dasharray="1 2"/>
<line id="Line_31" y1="-0.5" x2="98" y2="-0.5" transform="translate(226 435) rotate(180)" stroke="#A3A3A3" stroke-dasharray="1 2"/>
<line id="Line_32" y1="-0.5" x2="98" y2="-0.5" transform="translate(226 462) rotate(180)" stroke="#A3A3A3" stroke-dasharray="1 2"/>
<line id="Line_33" y1="-0.5" x2="98" y2="-0.5" transform="translate(226 488) rotate(180)" stroke="#A3A3A3" stroke-dasharray="1 2"/>
<line id="Line_34" y1="-0.5" x2="98" y2="-0.5" transform="translate(226 475) rotate(180)" stroke="#A3A3A3" stroke-dasharray="1 2"/>
</g>
<line id="Line_35" y1="-0.5" x2="452" y2="-0.5" transform="translate(21 47) rotate(90)" stroke="#5E5E5E" stroke-dasharray="3 1"/>
<line id="Line_36" y1="-0.5" x2="452" y2="-0.5" transform="translate(122 47) rotate(90)" stroke="#5E5E5E"/>
<g id="Group">
<path id="Vector" d="M100 0H0V10.9645H100V0Z" transform="translate(122 60) scale(-1 1)" fill="#4490A7"/>
<path id="Vector_2" d="M76.1009 0H0V10.9645H76.1009V0Z" transform="translate(122 73.1573) scale(-1 1)" fill="#4490A7"/>
<path id="Vector_3" d="M68.2766 0H0V10.9645H68.2766V0Z" transform="translate(122 86.3147) scale(-1 1)" fill="#4490A7"/>
<path id="Vector_4" d="M57.7827 0H0V10.9645H57.7827V0Z" transform="translate(122 99.472) scale(-1 1)" fill="#4490A7"/>
<path id="Vector_5" d="M57.5975 0H0V10.9645H57.5975V0Z" transform="translate(122 112.63) scale(-1 1)" fill="#4490A7"/>
<path id="Vector_6" d="M53.5813 0H0V10.9645H53.5813V0Z" transform="translate(122 125.787) scale(-1 1)" fill="#4490A7"/>
<path id="Vector_7" d="M53.3251 0H0V10.9645H53.3251V0Z" transform="translate(122 138.944) scale(-1 1)" fill="#4490A7"/>
<path id="Vector_8" d="M52.3589 0H0V10.9645H52.3589V0Z" transform="translate(122 152.102) scale(-1 1)" fill="#4490A7"/>
<path id="Vector_9" d="M52.2532 0H0V10.9645H52.2532V0Z" transform="translate(122 165.259) scale(-1 1)" fill="#4490A7"/>
<path id="Vector_10" d="M51.46 0H0V10.9645H51.46V0Z" transform="translate(122 178.416) scale(-1 1)" fill="#4490A7"/>
<path id="Vector_11" d="M50.2275 0H0V10.9645H50.2275V0Z" transform="translate(122 191.574) scale(-1 1)" fill="#4490A7"/>
<path id="Vector_12" d="M41.1019 0H0V10.9645H41.1019V0Z" transform="translate(122 204.731) scale(-1 1)" fill="#4490A7"/>
<path id="Vector_13" d="M39.9444 0H0V10.9645H39.9444V0Z" transform="translate(122 217.888) scale(-1 1)" fill="#4490A7"/>
<path id="Vector_14" d="M39.6009 0H0V10.9645H39.6009V0Z" transform="translate(122 231.046) scale(-1 1)" fill="#4490A7"/>
<path id="Vector_15" d="M39.3687 0H0V10.9645H39.3687V0Z" transform="translate(122 244.203) scale(-1 1)" fill="#4490A7"/>
<path id="Vector_16" d="M39.1814 0H0V10.9645H39.1814V0Z" transform="translate(122 257.36) scale(-1 1)" fill="#4490A7"/>
<path id="Vector_17" d="M35.9838 0H0V10.9645H35.9838V0Z" transform="translate(122 270.518) scale(-1 1)" fill="#4490A7"/>
<path id="Vector_18" d="M35.9328 0H0V10.9645H35.9328V0Z" transform="translate(122 283.675) scale(-1 1)" fill="#4490A7"/>
<path id="Vector_19" d="M35.4785 0H0V10.9645H35.4785V0Z" transform="translate(122 296.833) scale(-1 1)" fill="#4490A7"/>
<path id="Vector_20" d="M35.2693 0H0V10.9645H35.2693V0Z" transform="translate(122 309.99) scale(-1 1)" fill="#4490A7"/>
<path id="Vector_21" d="M35.1532 0H0V10.9645H35.1532V0Z" transform="translate(122 323.147) scale(-1 1)" fill="#4490A7"/>
<path id="Vector_22" d="M33.7306 0H0V10.9645H33.7306V0Z" transform="translate(122 336.305) scale(-1 1)" fill="#4490A7"/>
<path id="Vector_23" d="M33.2489 0H0V10.9645H33.2489V0Z" transform="translate(122 349.462) scale(-1 1)" fill="#4490A7"/>
<path id="Vector_24" d="M33.1205 0H0V10.9645H33.1205V0Z" transform="translate(122 362.619) scale(-1 1)" fill="#4490A7"/>
<path id="Vector_25" d="M31.781 0H0V10.9645H31.781V0Z" transform="translate(122 375.777) scale(-1 1)" fill="#4490A7"/>
<path id="Vector_26" d="M31.3284 0H0V10.9645H31.3284V0Z" transform="translate(122 388.934) scale(-1 1)" fill="#4490A7"/>
<path id="Vector_27" d="M30.5325 0H0V10.9645H30.5325V0Z" transform="translate(122 402.091) scale(-1 1)" fill="#4490A7"/>
<path id="Vector_28" d="M29.0939 0H0V10.9645H29.0939V0Z" transform="translate(122 415.249) scale(-1 1)" fill="#4490A7"/>
<path id="Vector_29" d="M28.2223 0H0V10.9645H28.2223V0Z" transform="translate(122 428.406) scale(-1 1)" fill="#4490A7"/>
<path id="Vector_30" d="M28.0688 0H0V10.9645H28.0688V0Z" transform="translate(122 441.563) scale(-1 1)" fill="#4490A7"/>
<path id="Vector_31" d="M27.9052 0H0V10.9645H27.9052V0Z" transform="translate(122 454.721) scale(-1 1)" fill="#4490A7"/>
<path id="Vector_32" d="M27.7317 0H0V10.9645H27.7317V0Z" transform="translate(122 467.878) scale(-1 1)" fill="#4490A7"/>
<path id="Vector_33" d="M27.1064 0H0V10.9645H27.1064V0Z" transform="translate(122 481.035) scale(-1 1)" fill="#4490A7"/>
</g>
<text id="Two of the three megacities in Africa." transform="translate(283 270)" fill="white" xml:space="preserve" style="white-space: pre" font-family="Atlas Grotesk" font-style="Regular" font-size="16" letter-spacing="0em"><tspan x="0" y="12.992">Two of the </tspan><tspan x="0" y="32.192">three </tspan><tspan x="0" y="51.392">megacities </tspan><tspan x="0" y="70.592">in Africa.</tspan></text>
<text id="Flights per Day" transform="translate(227 6)" fill="white" xml:space="preserve" style="white-space: pre" font-family="Atlas Grotesk" font-style="Bold" font-size="18" font-weight="bold" letter-spacing="0em"><tspan x="0" y="14.616">Flights per Day</tspan></text>
<text id="Population" transform="translate(33 4)" fill="white" xml:space="preserve" style="white-space: pre" font-family="Atlas Grotesk" font-style="Bold" font-size="18" font-weight="bold" letter-spacing="0em"><tspan x="0" y="14.616">Population</tspan></text>
<text id="37.5M" transform="translate(11 33)" fill="#C3C3C3" xml:space="preserve" style="white-space: pre" font-family="Atlas Grotesk" font-style="Medium" font-size="11" font-weight="500" letter-spacing="0em"><tspan x="0" y="8.932">37.5M</tspan></text>
<text id="1,700 flights per day" transform="translate(268 30)" fill="#C3C3C3" xml:space="preserve" style="white-space: pre" font-family="Atlas Grotesk" font-style="Medium" font-size="11" font-weight="500" letter-spacing="0em"><tspan x="9.6123" y="8.932">1,700 flights </tspan><tspan x="35.1465" y="22.132">per day</tspan></text>
<text id="0" transform="translate(91 30)" fill="#C3C3C3" xml:space="preserve" style="white-space: pre" font-family="Atlas Grotesk" font-style="Medium" font-size="11" font-weight="500" letter-spacing="0em"><tspan x="27.6973" y="8.932">0</tspan></text>
<text id="0_2" transform="translate(201 30)" fill="#C3C3C3" xml:space="preserve" style="white-space: pre" font-family="Atlas Grotesk" font-style="Medium" font-size="11" font-weight="500" letter-spacing="0em"><tspan x="27.6973" y="8.932">0</tspan></text>
<path id="Arrow 4" d="M38.488 0.353553C38.6832 0.158291 38.6832 -0.158291 38.488 -0.353553L35.306 -3.53553C35.1107 -3.7308 34.7941 -3.7308 34.5989 -3.53553C34.4036 -3.34027 34.4036 -3.02369 34.5989 -2.82843L37.4273 0L34.5989 2.82843C34.4036 3.02369 34.4036 3.34027 34.5989 3.53553C34.7941 3.7308 35.1107 3.7308 35.306 3.53553L38.488 0.353553ZM0 0.5H38.1344V-0.5H0V0.5Z" transform="translate(278 289) rotate(180)" fill="white"/>
<path id="Arrow 4.1" d="M41.3536 0.353553C41.5488 0.158291 41.5488 -0.158291 41.3536 -0.353553L38.1716 -3.53553C37.9763 -3.7308 37.6597 -3.7308 37.4645 -3.53553C37.2692 -3.34027 37.2692 -3.02369 37.4645 -2.82843L40.2929 0L37.4645 2.82843C37.2692 3.02369 37.2692 3.34027 37.4645 3.53553C37.6597 3.7308 37.9763 3.7308 38.1716 3.53553L41.3536 0.353553ZM0 0.5H41V-0.5H0V0.5Z" transform="translate(278 329) rotate(180)" fill="white"/>
<g id="Tokyo Delhi Shanghai S&#195;&#163;o Paulo Mexico City Cairo Mumbai Beijing Dhaka Osaka New York City Karachi* Buenos Aires Chongqing* Istanbul* Kolkata Manila* Lagos* Rio de Janeiro Tianjin* Kinshasa* Guangzhou* Los Angeles Moscow Shenzhen* Lahore* Bangalore* Paris* Bogot&#195;&#161;* Jakarta* Chennai* Lima* Bangkok*" transform="translate(135 59)">
<text stroke="#2A2A2A" stroke-width="2" xml:space="preserve" style="white-space: pre" font-family="Atlas Grotesk" font-style="Bold" font-size="13" font-weight="bold" letter-spacing="0em"><tspan x="21.7324" y="235.446">Lagos*</tspan><tspan x="11.4873" y="275.132">Kinshasa</tspan></text>
<text stroke="#2A2A2A" stroke-width="2" xml:space="preserve" style="white-space: pre" font-family="Atlas Grotesk" font-style="Regular" font-size="13" letter-spacing="0em"><tspan x="61.6909" y="222.217">&#10;</tspan><tspan x="60.3516" y="235.446">&#10;</tspan><tspan x="62.1099" y="261.903">&#10;</tspan><tspan x="70.5967" y="275.132">*&#10;</tspan></text>
<text stroke="#2A2A2A" stroke-width="2" xml:space="preserve" style="white-space: pre" font-family="Atlas Grotesk" font-style="Regular" font-size="13" letter-spacing="0em"><tspan x="26.0234" y="10.556">Tokyo&#10;</tspan><tspan x="27.8071" y="23.7848">Delhi&#10;</tspan><tspan x="14.5659" y="37.0136">Shanghai&#10;</tspan><tspan x="13.2773" y="50.2424">S&#xe3;o Paulo&#10;</tspan><tspan x="7.54541" y="63.4712">Mexico City&#10;</tspan><tspan x="27.4644" y="76.7">Cairo&#10;</tspan><tspan x="18.3428" y="89.9288">Mumbai&#10;</tspan><tspan x="22.3672" y="103.158">Beijing&#10;</tspan><tspan x="24.2842" y="116.386">Dhaka&#10;</tspan><tspan x="24.5698" y="129.615">Osaka&#10;</tspan><tspan x="0.0615234" y="142.844">New York City&#10;</tspan><tspan x="17.5176" y="156.073">Karachi*&#10;</tspan><tspan x="3.20361" y="169.302">Buenos Aires&#10;</tspan><tspan x="7.01221" y="182.53">Chongqing*&#10;</tspan><tspan x="15.9116" y="195.759">Istanbul*&#10;</tspan><tspan x="20.5327" y="208.988">Kolkata&#10;</tspan><tspan x="20.3931" y="222.217">Manila*</tspan><tspan x="1.05176" y="248.674">Rio de Janeiro&#10;</tspan><tspan x="19.9741" y="261.903">Tianjin*</tspan><tspan x="5.27295" y="288.361">Guangzhou*&#10;</tspan><tspan x="6.33936" y="301.59">Los Angeles&#10;</tspan><tspan x="18.2539" y="314.818">Moscow&#10;</tspan><tspan x="10.3003" y="328.047">Shenzhen*&#10;</tspan><tspan x="19.8091" y="341.276">Lahore*&#10;</tspan><tspan x="9.79883" y="354.505">Bangalore*&#10;</tspan><tspan x="25.8647" y="367.734">Paris*&#10;</tspan><tspan x="18.9902" y="380.962">Bogot&#xe1;*&#10;</tspan><tspan x="18.9204" y="394.191">Jakarta*&#10;</tspan><tspan x="15.2959" y="407.42">Chennai*&#10;</tspan><tspan x="25.8394" y="420.649">Lima*&#10;</tspan><tspan x="14.2231" y="433.878">Bangkok*</tspan></text>
</g>
<g id="Tokyo Delhi Shanghai S&#195;&#163;o Paulo Mexico City Cairo Mumbai Beijing Dhaka Osaka New York City Karachi* Buenos Aires Chongqing* Istanbul* Kolkata Manila* Lagos* Rio de Janeiro Tianjin* Kinshasa* Guangzhou* Los Angeles Moscow Shenzhen* Lahore* Bangalore* Paris* Bogot&#195;&#161;* Jakarta* Chennai* Lima* Bangkok*_2" transform="translate(135 59)">
<text fill="white" xml:space="preserve" style="white-space: pre" font-family="Atlas Grotesk" font-style="Regular" font-size="13" letter-spacing="0em"><tspan x="61.6909" y="222.217">&#10;</tspan><tspan x="60.3516" y="235.446">&#10;</tspan><tspan x="62.1099" y="261.903">&#10;</tspan><tspan x="70.5967" y="275.132">*&#10;</tspan></text>
<text fill="white" xml:space="preserve" style="white-space: pre" font-family="Atlas Grotesk" font-style="Bold" font-size="13" font-weight="bold" letter-spacing="0em"><tspan x="21.7324" y="235.446">Lagos*</tspan><tspan x="11.4873" y="275.132">Kinshasa</tspan></text>
<text fill="#BEBEBE" xml:space="preserve" style="white-space: pre" font-family="Atlas Grotesk" font-style="Regular" font-size="13" letter-spacing="0em"><tspan x="1.05176" y="248.674">Rio de Janeiro&#10;</tspan><tspan x="19.9741" y="261.903">Tianjin*</tspan></text>
<text fill="#BEBEBE" xml:space="preserve" style="white-space: pre" font-family="Atlas Grotesk" font-style="Regular" font-size="13" letter-spacing="0em"><tspan x="26.0234" y="10.556">Tokyo&#10;</tspan><tspan x="27.8071" y="23.7848">Delhi&#10;</tspan><tspan x="14.5659" y="37.0136">Shanghai&#10;</tspan><tspan x="13.2773" y="50.2424">S&#xe3;o Paulo&#10;</tspan><tspan x="7.54541" y="63.4712">Mexico City&#10;</tspan><tspan x="27.4644" y="76.7">Cairo&#10;</tspan><tspan x="18.3428" y="89.9288">Mumbai&#10;</tspan><tspan x="22.3672" y="103.158">Beijing&#10;</tspan><tspan x="24.2842" y="116.386">Dhaka&#10;</tspan><tspan x="24.5698" y="129.615">Osaka&#10;</tspan><tspan x="0.0615234" y="142.844">New York City&#10;</tspan><tspan x="17.5176" y="156.073">Karachi*&#10;</tspan><tspan x="3.20361" y="169.302">Buenos Aires&#10;</tspan><tspan x="7.01221" y="182.53">Chongqing*&#10;</tspan><tspan x="15.9116" y="195.759">Istanbul*&#10;</tspan><tspan x="20.5327" y="208.988">Kolkata&#10;</tspan><tspan x="20.3931" y="222.217">Manila*</tspan><tspan x="5.27295" y="288.361">Guangzhou*&#10;</tspan><tspan x="6.33936" y="301.59">Los Angeles&#10;</tspan><tspan x="18.2539" y="314.818">Moscow&#10;</tspan><tspan x="10.3003" y="328.047">Shenzhen*&#10;</tspan><tspan x="19.8091" y="341.276">Lahore*&#10;</tspan><tspan x="9.79883" y="354.505">Bangalore*&#10;</tspan><tspan x="25.8647" y="367.734">Paris*&#10;</tspan><tspan x="18.9902" y="380.962">Bogot&#xe1;*&#10;</tspan><tspan x="18.9204" y="394.191">Jakarta*&#10;</tspan><tspan x="15.2959" y="407.42">Chennai*&#10;</tspan><tspan x="25.8394" y="420.649">Lima*&#10;</tspan><tspan x="14.2231" y="433.878">Bangkok*</tspan></text>
</g>
<g id="Group_2">
<g id="Group_3">
<path id="Vector_34" d="M55.1573 0H0V10.9391H55.1573V0Z" transform="translate(233 61)" fill="#41997E"/>
<path id="Vector_35" d="M34.4278 0H0V10.9391H34.4278V0Z" transform="translate(233 74.127)" fill="#41997E"/>
<path id="Vector_36" d="M60.2901 0H0V10.9391H60.2901V0Z" transform="translate(233 87.2538)" fill="#41997E"/>
<path id="Vector_37" d="M41.6178 0H0V10.9391H41.6178V0Z" transform="translate(233 100.381)" fill="#41997E"/>
<path id="Vector_38" d="M32.9278 0H0V10.9391H32.9278V0Z" transform="translate(233 113.508)" fill="#41997E"/>
<path id="Vector_39" d="M11.2099 0H0V10.9391H11.2099V0Z" transform="translate(233 126.635)" fill="#41997E"/>
<path id="Vector_40" d="M25.3639 0H0V10.9391H25.3639V0Z" transform="translate(233 139.761)" fill="#41997E"/>
<path id="Vector_41" d="M50.0634 0H0V10.9391H50.0634V0Z" transform="translate(233 152.888)" fill="#41997E"/>
<path id="Vector_42" d="M6.40159 0H0V10.9391H6.40159V0Z" transform="translate(233 166.015)" fill="#41997E"/>
<path id="Vector_43" d="M26.5204 0H0V10.9391H26.5204V0Z" transform="translate(233 179.142)" fill="#41997E"/>
<path id="Vector_44" d="M100 0H0V10.9391H100V0Z" transform="translate(233 192.269)" fill="#41997E"/>
<path id="Vector_45" d="M4.18734 0H0V10.9391H4.18734V0Z" transform="translate(233 205.396)" fill="#41997E"/>
<path id="Vector_46" d="M14.6512 0H0V10.9391H14.6512V0Z" transform="translate(233 218.523)" fill="#41997E"/>
<path id="Vector_47" d="M21.7608 0H0V10.9391H21.7608V0Z" transform="translate(233 231.65)" fill="#41997E"/>
<path id="Vector_48" d="M51.8239 0H0V10.9391H51.8239V0Z" transform="translate(233 244.777)" fill="#41997E"/>
<path id="Vector_49" d="M11.5215 0H0V10.9391H11.5215V0Z" transform="translate(233 257.904)" fill="#41997E"/>
<path id="Vector_50" d="M20.9375 0H0V10.9391H20.9375V0Z" transform="translate(233 271.031)" fill="#41997E"/>
<path id="Vector_51" d="M5.0624 0H0V10.9391H5.0624V0Z" transform="translate(233 284.157)" fill="#00FFB3"/>
<path id="Vector_52" d="M16.3808 0H0V10.9391H16.3808V0Z" transform="translate(233 297.284)" fill="#41997E"/>
<path id="Vector_53" d="M13.4648 0H0V10.9391H13.4648V0Z" transform="translate(233 310.411)" fill="#41997E"/>
<path id="Vector_54" d="M0.799937 0H0V10.9391H0.799937V0Z" transform="translate(233 323.538)" fill="#00FFB3"/>
<path id="Vector_55" d="M36.6428 0H0V10.9391H36.6428V0Z" transform="translate(233 336.665)" fill="#41997E"/>
<path id="Vector_56" d="M60.6435 0H0V10.9391H60.6435V0Z" transform="translate(233 349.792)" fill="#41997E"/>
<path id="Vector_57" d="M49.496 0H0V10.9391H49.496V0Z" transform="translate(233 362.919)" fill="#41997E"/>
<path id="Vector_58" d="M27.3068 0H0V10.9391H27.3068V0Z" transform="translate(233 376.046)" fill="#41997E"/>
<path id="Vector_59" d="M2.4306 0H0V10.9391H2.4306V0Z" transform="translate(233 389.173)" fill="#41997E"/>
<path id="Vector_60" d="M14.6173 0H0V10.9391H14.6173V0Z" transform="translate(233 402.3)" fill="#41997E"/>
<path id="Vector_61" d="M56.1882 0H0V10.9391H56.1882V0Z" transform="translate(233 415.426)" fill="#41997E"/>
<path id="Vector_62" d="M20.8058 0H0V10.9391H20.8058V0Z" transform="translate(233 428.553)" fill="#41997E"/>
<path id="Vector_63" d="M43.9741 0H0V10.9391H43.9741V0Z" transform="translate(233 441.68)" fill="#41997E"/>
<path id="Vector_64" d="M11.9226 0H0V10.9391H11.9226V0Z" transform="translate(233 454.807)" fill="#41997E"/>
<path id="Vector_65" d="M13.4155 0H0V10.9391H13.4155V0Z" transform="translate(233 467.934)" fill="#41997E"/>
<path id="Vector_66" d="M27.8269 0H0V10.9391H27.8269V0Z" transform="translate(233 481.061)" fill="#41997E"/>
</g>
</g>
</g>
</svg>
