<svg width="799" height="499" viewBox="0 0 799 499" fill="none" xmlns="http://www.w3.org/2000/svg">
<g id="Frame 2">
<line id="Line" y1="-0.5" x2="452" y2="-0.5" transform="translate(529 47) rotate(90)" stroke="#5E5E5E" stroke-dasharray="3 1"/>
<line id="Line_2" y1="-0.5" x2="452" y2="-0.5" transform="translate(451 47) rotate(90)" stroke="#5E5E5E"/>
<line id="Line_3" y1="-0.5" x2="452" y2="-0.5" transform="translate(606 47) rotate(90)" stroke="#5E5E5E" stroke-dasharray="3 1"/>
<line id="Line_4" y1="-0.5" x2="452" y2="-0.5" transform="translate(684 47) rotate(90)" stroke="#5E5E5E" stroke-dasharray="3 1"/>
<g id="lines">
<line id="Line_5" y1="-0.5" x2="98" y2="-0.5" transform="translate(444 66) rotate(180)" stroke="#A3A3A3" stroke-dasharray="1 2"/>
<line id="Line_6" y1="-0.5" x2="98" y2="-0.5" transform="translate(444 92) rotate(180)" stroke="#A3A3A3" stroke-dasharray="1 2"/>
<line id="Line_7" y1="-0.5" x2="98" y2="-0.5" transform="translate(444 79) rotate(180)" stroke="#A3A3A3" stroke-dasharray="1 2"/>
<line id="Line_8" y1="-0.5" x2="98" y2="-0.5" transform="translate(444 105) rotate(180)" stroke="#A3A3A3" stroke-dasharray="1 2"/>
<line id="Line_9" y1="-0.5" x2="98" y2="-0.5" transform="translate(444 131) rotate(180)" stroke="#A3A3A3" stroke-dasharray="1 2"/>
<line id="Line_10" y1="-0.5" x2="98" y2="-0.5" transform="translate(444 118) rotate(180)" stroke="#A3A3A3" stroke-dasharray="1 2"/>
<line id="Line_11" y1="-0.5" x2="98" y2="-0.5" transform="translate(444 145) rotate(180)" stroke="#A3A3A3" stroke-dasharray="1 2"/>
<line id="Line_12" y1="-0.5" x2="98" y2="-0.5" transform="translate(444 171) rotate(180)" stroke="#A3A3A3" stroke-dasharray="1 2"/>
<line id="Line_13" y1="-0.5" x2="98" y2="-0.5" transform="translate(444 158) rotate(180)" stroke="#A3A3A3" stroke-dasharray="1 2"/>
<line id="Line_14" y1="-0.5" x2="98" y2="-0.5" transform="translate(444 184) rotate(180)" stroke="#A3A3A3" stroke-dasharray="1 2"/>
<line id="Line_15" y1="-0.5" x2="98" y2="-0.5" transform="translate(444 210) rotate(180)" stroke="#A3A3A3" stroke-dasharray="1 2"/>
<line id="Line_16" y1="-0.5" x2="98" y2="-0.5" transform="translate(444 197) rotate(180)" stroke="#A3A3A3" stroke-dasharray="1 2"/>
<line id="Line_17" y1="-0.5" x2="98" y2="-0.5" transform="translate(444 224) rotate(180)" stroke="#A3A3A3" stroke-dasharray="1 2"/>
<line id="Line_18" y1="-0.5" x2="98" y2="-0.5" transform="translate(444 250) rotate(180)" stroke="#A3A3A3" stroke-dasharray="1 2"/>
<line id="Line_19" y1="-0.5" x2="98" y2="-0.5" transform="translate(444 237) rotate(180)" stroke="#A3A3A3" stroke-dasharray="1 2"/>
<line id="Line_20" y1="-0.5" x2="98" y2="-0.5" transform="translate(444 263) rotate(180)" stroke="#A3A3A3" stroke-dasharray="1 2"/>
<line id="Line_21" y1="-0.5" x2="98" y2="-0.5" transform="translate(444 289) rotate(180)" stroke="#A3A3A3" stroke-dasharray="1 2"/>
<line id="Line_22" y1="-0.5" x2="98" y2="-0.5" transform="translate(444 276) rotate(180)" stroke="#A3A3A3" stroke-dasharray="1 2"/>
<line id="Line_23" y1="-0.5" x2="98" y2="-0.5" transform="translate(444 304) rotate(180)" stroke="#A3A3A3" stroke-dasharray="1 2"/>
<line id="Line_24" y1="-0.5" x2="98" y2="-0.5" transform="translate(444 330) rotate(180)" stroke="#A3A3A3" stroke-dasharray="1 2"/>
<line id="Line_25" y1="-0.5" x2="98" y2="-0.5" transform="translate(444 317) rotate(180)" stroke="#A3A3A3" stroke-dasharray="1 2"/>
<line id="Line_26" y1="-0.5" x2="98" y2="-0.5" transform="translate(444 343) rotate(180)" stroke="#A3A3A3" stroke-dasharray="1 2"/>
<line id="Line_27" y1="-0.5" x2="98" y2="-0.5" transform="translate(444 369) rotate(180)" stroke="#A3A3A3" stroke-dasharray="1 2"/>
<line id="Line_28" y1="-0.5" x2="98" y2="-0.5" transform="translate(444 356) rotate(180)" stroke="#A3A3A3" stroke-dasharray="1 2"/>
<line id="Line_29" y1="-0.5" x2="98" y2="-0.5" transform="translate(444 409) rotate(180)" stroke="#A3A3A3" stroke-dasharray="1 2"/>
<line id="Line_30" y1="-0.5" x2="98" y2="-0.5" transform="translate(444 396) rotate(180)" stroke="#A3A3A3" stroke-dasharray="1 2"/>
<line id="Line_31" y1="-0.5" x2="98" y2="-0.5" transform="translate(444 422) rotate(180)" stroke="#A3A3A3" stroke-dasharray="1 2"/>
<line id="Line_32" y1="-0.5" x2="98" y2="-0.5" transform="translate(444 448) rotate(180)" stroke="#A3A3A3" stroke-dasharray="1 2"/>
<line id="Line_33" y1="-0.5" x2="98" y2="-0.5" transform="translate(444 435) rotate(180)" stroke="#A3A3A3" stroke-dasharray="1 2"/>
<line id="Line_34" y1="-0.5" x2="98" y2="-0.5" transform="translate(444 462) rotate(180)" stroke="#A3A3A3" stroke-dasharray="1 2"/>
<line id="Line_35" y1="-0.5" x2="98" y2="-0.5" transform="translate(444 488) rotate(180)" stroke="#A3A3A3" stroke-dasharray="1 2"/>
<line id="Line_36" y1="-0.5" x2="98" y2="-0.5" transform="translate(444 475) rotate(180)" stroke="#A3A3A3" stroke-dasharray="1 2"/>
</g>
<line id="Line_37" y1="-0.5" x2="434" y2="-0.5" transform="translate(762 65) rotate(90)" stroke="#5E5E5E" stroke-dasharray="3 1"/>
<line id="Line_38" y1="-0.5" x2="452" y2="-0.5" transform="translate(106 47) rotate(90)" stroke="#5E5E5E" stroke-dasharray="3 1"/>
<line id="Line_39" y1="-0.5" x2="452" y2="-0.5" transform="translate(28 47) rotate(90)" stroke="#5E5E5E" stroke-dasharray="3 1"/>
<line id="Line_40" y1="-0.5" x2="452" y2="-0.5" transform="translate(183 47) rotate(90)" stroke="#5E5E5E" stroke-dasharray="3 1"/>
<line id="Line_41" y1="-0.5" x2="452" y2="-0.5" transform="translate(261 47) rotate(90)" stroke="#5E5E5E" stroke-dasharray="3 1"/>
<line id="Line_42" y1="-0.5" x2="452" y2="-0.5" transform="translate(339 47) rotate(90)" stroke="#5E5E5E"/>
<g id="Group">
<path id="Vector" d="M311 0H0V10.9645H311V0Z" transform="translate(339 60) scale(-1 1)" fill="#4490A7"/>
<path id="Vector_2" d="M236.674 0H0V10.9645H236.674V0Z" transform="translate(339 73.1573) scale(-1 1)" fill="#4490A7"/>
<path id="Vector_3" d="M212.34 0H0V10.9645H212.34V0Z" transform="translate(339 86.3147) scale(-1 1)" fill="#4490A7"/>
<path id="Vector_4" d="M179.704 0H0V10.9645H179.704V0Z" transform="translate(339 99.472) scale(-1 1)" fill="#4490A7"/>
<path id="Vector_5" d="M179.128 0H0V10.9645H179.128V0Z" transform="translate(339 112.63) scale(-1 1)" fill="#4490A7"/>
<path id="Vector_6" d="M166.638 0H0V10.9645H166.638V0Z" transform="translate(339 125.787) scale(-1 1)" fill="#4490A7"/>
<path id="Vector_7" d="M165.841 0H0V10.9645H165.841V0Z" transform="translate(339 138.944) scale(-1 1)" fill="#4490A7"/>
<path id="Vector_8" d="M162.836 0H0V10.9645H162.836V0Z" transform="translate(339 152.102) scale(-1 1)" fill="#4490A7"/>
<path id="Vector_9" d="M162.508 0H0V10.9645H162.508V0Z" transform="translate(339 165.259) scale(-1 1)" fill="#4490A7"/>
<path id="Vector_10" d="M160.041 0H0V10.9645H160.041V0Z" transform="translate(339 178.416) scale(-1 1)" fill="#4490A7"/>
<path id="Vector_11" d="M156.208 0H0V10.9645H156.208V0Z" transform="translate(339 191.574) scale(-1 1)" fill="#4490A7"/>
<path id="Vector_12" d="M127.827 0H0V10.9645H127.827V0Z" transform="translate(339 204.731) scale(-1 1)" fill="#4490A7"/>
<path id="Vector_13" d="M124.227 0H0V10.9645H124.227V0Z" transform="translate(339 217.888) scale(-1 1)" fill="#4490A7"/>
<path id="Vector_14" d="M123.159 0H0V10.9645H123.159V0Z" transform="translate(339 231.046) scale(-1 1)" fill="#4490A7"/>
<path id="Vector_15" d="M122.437 0H0V10.9645H122.437V0Z" transform="translate(339 244.203) scale(-1 1)" fill="#4490A7"/>
<path id="Vector_16" d="M121.854 0H0V10.9645H121.854V0Z" transform="translate(339 257.36) scale(-1 1)" fill="#4490A7"/>
<path id="Vector_17" d="M111.909 0H0V10.9645H111.909V0Z" transform="translate(339 270.518) scale(-1 1)" fill="#4490A7"/>
<path id="Vector_18" d="M111.751 0H0V10.9645H111.751V0Z" transform="translate(339 283.675) scale(-1 1)" fill="#4490A7"/>
<path id="Vector_19" d="M110.338 0H0V10.9645H110.338V0Z" transform="translate(339 296.833) scale(-1 1)" fill="#4490A7"/>
<path id="Vector_20" d="M109.687 0H0V10.9645H109.687V0Z" transform="translate(339 309.99) scale(-1 1)" fill="#4490A7"/>
<path id="Vector_21" d="M109.326 0H0V10.9645H109.326V0Z" transform="translate(339 323.147) scale(-1 1)" fill="#4490A7"/>
<path id="Vector_22" d="M104.902 0H0V10.9645H104.902V0Z" transform="translate(339 336.305) scale(-1 1)" fill="#4490A7"/>
<path id="Vector_23" d="M103.404 0H0V10.9645H103.404V0Z" transform="translate(339 349.462) scale(-1 1)" fill="#4490A7"/>
<path id="Vector_24" d="M103.005 0H0V10.9645H103.005V0Z" transform="translate(339 362.619) scale(-1 1)" fill="#4490A7"/>
<path id="Vector_25" d="M98.8389 0H0V10.9645H98.8389V0Z" transform="translate(339 375.777) scale(-1 1)" fill="#4490A7"/>
<path id="Vector_26" d="M97.4312 0H0V10.9645H97.4312V0Z" transform="translate(339 388.934) scale(-1 1)" fill="#4490A7"/>
<path id="Vector_27" d="M94.956 0H0V10.9645H94.956V0Z" transform="translate(339 402.091) scale(-1 1)" fill="#4490A7"/>
<path id="Vector_28" d="M90.4821 0H0V10.9645H90.4821V0Z" transform="translate(339 415.249) scale(-1 1)" fill="#4490A7"/>
<path id="Vector_29" d="M87.7712 0H0V10.9645H87.7712V0Z" transform="translate(339 428.406) scale(-1 1)" fill="#4490A7"/>
<path id="Vector_30" d="M87.2939 0H0V10.9645H87.2939V0Z" transform="translate(339 441.563) scale(-1 1)" fill="#4490A7"/>
<path id="Vector_31" d="M86.7851 0H0V10.9645H86.7851V0Z" transform="translate(339 454.721) scale(-1 1)" fill="#4490A7"/>
<path id="Vector_32" d="M86.2456 0H0V10.9645H86.2456V0Z" transform="translate(339 467.878) scale(-1 1)" fill="#4490A7"/>
<path id="Vector_33" d="M84.3008 0H0V10.9645H84.3008V0Z" transform="translate(339 481.035) scale(-1 1)" fill="#4490A7"/>
</g>
<text id="Two of the three megacities in Africa." transform="translate(657 276)" fill="#2A2A2A" stroke="#2A2A2A" stroke-width="3" xml:space="preserve" style="white-space: pre" font-family="Atlas Grotesk" font-style="Regular" font-size="18" letter-spacing="0em"><tspan x="0" y="14.616">Two of the </tspan><tspan x="0" y="36.216">three </tspan><tspan x="0" y="57.816">megacities </tspan><tspan x="0" y="79.416">in Africa.</tspan></text>
<text id="Two of the three megacities in Africa._2" transform="translate(657 276)" fill="white" xml:space="preserve" style="white-space: pre" font-family="Atlas Grotesk" font-style="Regular" font-size="18" letter-spacing="0em"><tspan x="0" y="14.616">Two of the </tspan><tspan x="0" y="36.216">three </tspan><tspan x="0" y="57.816">megacities </tspan><tspan x="0" y="79.416">in Africa.</tspan></text>
<text id="Flights per Day" transform="translate(447)" fill="white" xml:space="preserve" style="white-space: pre" font-family="Atlas Grotesk" font-style="Bold" font-size="18" font-weight="bold" letter-spacing="0em"><tspan x="0" y="14.616">Flights per Day</tspan></text>
<text id="Population" transform="translate(245)" fill="white" xml:space="preserve" style="white-space: pre" font-family="Atlas Grotesk" font-style="Bold" font-size="18" font-weight="bold" letter-spacing="0em"><tspan x="0" y="14.616">Population</tspan></text>
<text id="37.5M" transform="translate(0 30)" fill="#C3C3C3" xml:space="preserve" style="white-space: pre" font-family="Atlas Grotesk" font-style="Medium" font-size="11" font-weight="500" letter-spacing="0em"><tspan x="15.043" y="8.932">37.5M</tspan></text>
<text id="18.8M People" transform="translate(141 30)" fill="#C3C3C3" xml:space="preserve" style="white-space: pre" font-family="Atlas Grotesk" font-style="Medium" font-size="11" font-weight="500" letter-spacing="0em"><tspan x="8.64795" y="8.932">18.8M People</tspan></text>
<text id="1,700 flights per day" transform="translate(724 30)" fill="#C3C3C3" xml:space="preserve" style="white-space: pre" font-family="Atlas Grotesk" font-style="Medium" font-size="11" font-weight="500" letter-spacing="0em"><tspan x="4.80615" y="8.932">1,700 flights </tspan><tspan x="17.5732" y="22.132">per day</tspan></text>
<text id="850 flights" transform="translate(575 30)" fill="#C3C3C3" xml:space="preserve" style="white-space: pre" font-family="Atlas Grotesk" font-style="Medium" font-size="11" font-weight="500" letter-spacing="0em"><tspan x="2.13623" y="8.932">850 flights</tspan></text>
<text id="0" transform="translate(308 30)" fill="#C3C3C3" xml:space="preserve" style="white-space: pre" font-family="Atlas Grotesk" font-style="Medium" font-size="11" font-weight="500" letter-spacing="0em"><tspan x="27.6973" y="8.932">0</tspan></text>
<text id="0_2" transform="translate(420 30)" fill="#C3C3C3" xml:space="preserve" style="white-space: pre" font-family="Atlas Grotesk" font-style="Medium" font-size="11" font-weight="500" letter-spacing="0em"><tspan x="27.6973" y="8.932">0</tspan></text>
<path id="Arrow 4" d="M173.354 0.353553C173.549 0.158291 173.549 -0.158291 173.354 -0.353553L170.172 -3.53553C169.976 -3.7308 169.66 -3.7308 169.464 -3.53553C169.269 -3.34027 169.269 -3.02369 169.464 -2.82843L172.293 0L169.464 2.82843C169.269 3.02369 169.269 3.34027 169.464 3.53553C169.66 3.7308 169.976 3.7308 170.172 3.53553L173.354 0.353553ZM0 0.5H173V-0.5H0V0.5Z" transform="translate(647 289) rotate(180)" fill="white"/>
<path id="Arrow 4.1" d="M186.354 0.353553C186.549 0.158291 186.549 -0.158291 186.354 -0.353553L183.172 -3.53553C182.976 -3.7308 182.66 -3.7308 182.464 -3.53553C182.269 -3.34027 182.269 -3.02369 182.464 -2.82843L185.293 0L182.464 2.82843C182.269 3.02369 182.269 3.34027 182.464 3.53553C182.66 3.7308 182.976 3.7308 183.172 3.53553L186.354 0.353553ZM0 0.5H186V-0.5H0V0.5Z" transform="translate(647 329) rotate(180)" fill="white"/>
<g id="Tokyo Delhi Shanghai S&#195;&#163;o Paulo Mexico City Cairo Mumbai Beijing Dhaka Osaka New York City Karachi* Buenos Aires Chongqing* Istanbul* Kolkata Manila* Lagos* Rio de Janeiro Tianjin* Kinshasa* Guangzhou* Los Angeles Moscow Shenzhen* Lahore* Bangalore* Paris* Bogot&#195;&#161;* Jakarta* Chennai* Lima* Bangkok*" transform="translate(353 59)">
<text stroke="#2A2A2A" stroke-width="2" xml:space="preserve" style="white-space: pre" font-family="Atlas Grotesk" font-style="Bold" font-size="13" font-weight="bold" letter-spacing="0em"><tspan x="21.7324" y="235.446">Lagos*</tspan><tspan x="11.4873" y="275.132">Kinshasa</tspan></text>
<text stroke="#2A2A2A" stroke-width="2" xml:space="preserve" style="white-space: pre" font-family="Atlas Grotesk" font-style="Regular" font-size="13" letter-spacing="0em"><tspan x="61.6909" y="222.217">&#10;</tspan><tspan x="60.3516" y="235.446">&#10;</tspan><tspan x="62.1099" y="261.903">&#10;</tspan><tspan x="70.5967" y="275.132">*&#10;</tspan></text>
<text stroke="#2A2A2A" stroke-width="2" xml:space="preserve" style="white-space: pre" font-family="Atlas Grotesk" font-style="Regular" font-size="13" letter-spacing="0em"><tspan x="26.0234" y="10.556">Tokyo&#10;</tspan><tspan x="27.8071" y="23.7848">Delhi&#10;</tspan><tspan x="14.5659" y="37.0136">Shanghai&#10;</tspan><tspan x="13.2773" y="50.2424">S&#xe3;o Paulo&#10;</tspan><tspan x="7.54541" y="63.4712">Mexico City&#10;</tspan><tspan x="27.4644" y="76.7">Cairo&#10;</tspan><tspan x="18.3428" y="89.9288">Mumbai&#10;</tspan><tspan x="22.3672" y="103.158">Beijing&#10;</tspan><tspan x="24.2842" y="116.386">Dhaka&#10;</tspan><tspan x="24.5698" y="129.615">Osaka&#10;</tspan><tspan x="0.0615234" y="142.844">New York City&#10;</tspan><tspan x="17.5176" y="156.073">Karachi*&#10;</tspan><tspan x="3.20361" y="169.302">Buenos Aires&#10;</tspan><tspan x="7.01221" y="182.53">Chongqing*&#10;</tspan><tspan x="15.9116" y="195.759">Istanbul*&#10;</tspan><tspan x="20.5327" y="208.988">Kolkata&#10;</tspan><tspan x="20.3931" y="222.217">Manila*</tspan><tspan x="1.05176" y="248.674">Rio de Janeiro&#10;</tspan><tspan x="19.9741" y="261.903">Tianjin*</tspan><tspan x="5.27295" y="288.361">Guangzhou*&#10;</tspan><tspan x="6.33936" y="301.59">Los Angeles&#10;</tspan><tspan x="18.2539" y="314.818">Moscow&#10;</tspan><tspan x="10.3003" y="328.047">Shenzhen*&#10;</tspan><tspan x="19.8091" y="341.276">Lahore*&#10;</tspan><tspan x="9.79883" y="354.505">Bangalore*&#10;</tspan><tspan x="25.8647" y="367.734">Paris*&#10;</tspan><tspan x="18.9902" y="380.962">Bogot&#xe1;*&#10;</tspan><tspan x="18.9204" y="394.191">Jakarta*&#10;</tspan><tspan x="15.2959" y="407.42">Chennai*&#10;</tspan><tspan x="25.8394" y="420.649">Lima*&#10;</tspan><tspan x="14.2231" y="433.878">Bangkok*</tspan></text>
</g>
<g id="Tokyo Delhi Shanghai S&#195;&#163;o Paulo Mexico City Cairo Mumbai Beijing Dhaka Osaka New York City Karachi* Buenos Aires Chongqing* Istanbul* Kolkata Manila* Lagos* Rio de Janeiro Tianjin* Kinshasa* Guangzhou* Los Angeles Moscow Shenzhen* Lahore* Bangalore* Paris* Bogot&#195;&#161;* Jakarta* Chennai* Lima* Bangkok*_2" transform="translate(353 59)">
<text fill="white" xml:space="preserve" style="white-space: pre" font-family="Atlas Grotesk" font-style="Regular" font-size="13" letter-spacing="0em"><tspan x="61.6909" y="222.217">&#10;</tspan><tspan x="60.3516" y="235.446">&#10;</tspan><tspan x="62.1099" y="261.903">&#10;</tspan><tspan x="70.5967" y="275.132">*&#10;</tspan></text>
<text fill="white" xml:space="preserve" style="white-space: pre" font-family="Atlas Grotesk" font-style="Bold" font-size="13" font-weight="bold" letter-spacing="0em"><tspan x="21.7324" y="235.446">Lagos*</tspan><tspan x="11.4873" y="275.132">Kinshasa</tspan></text>
<text fill="#BEBEBE" xml:space="preserve" style="white-space: pre" font-family="Atlas Grotesk" font-style="Regular" font-size="13" letter-spacing="0em"><tspan x="1.05176" y="248.674">Rio de Janeiro&#10;</tspan><tspan x="19.9741" y="261.903">Tianjin*</tspan></text>
<text fill="#BEBEBE" xml:space="preserve" style="white-space: pre" font-family="Atlas Grotesk" font-style="Regular" font-size="13" letter-spacing="0em"><tspan x="26.0234" y="10.556">Tokyo&#10;</tspan><tspan x="27.8071" y="23.7848">Delhi&#10;</tspan><tspan x="14.5659" y="37.0136">Shanghai&#10;</tspan><tspan x="13.2773" y="50.2424">S&#xe3;o Paulo&#10;</tspan><tspan x="7.54541" y="63.4712">Mexico City&#10;</tspan><tspan x="27.4644" y="76.7">Cairo&#10;</tspan><tspan x="18.3428" y="89.9288">Mumbai&#10;</tspan><tspan x="22.3672" y="103.158">Beijing&#10;</tspan><tspan x="24.2842" y="116.386">Dhaka&#10;</tspan><tspan x="24.5698" y="129.615">Osaka&#10;</tspan><tspan x="0.0615234" y="142.844">New York City&#10;</tspan><tspan x="17.5176" y="156.073">Karachi*&#10;</tspan><tspan x="3.20361" y="169.302">Buenos Aires&#10;</tspan><tspan x="7.01221" y="182.53">Chongqing*&#10;</tspan><tspan x="15.9116" y="195.759">Istanbul*&#10;</tspan><tspan x="20.5327" y="208.988">Kolkata&#10;</tspan><tspan x="20.3931" y="222.217">Manila*</tspan><tspan x="5.27295" y="288.361">Guangzhou*&#10;</tspan><tspan x="6.33936" y="301.59">Los Angeles&#10;</tspan><tspan x="18.2539" y="314.818">Moscow&#10;</tspan><tspan x="10.3003" y="328.047">Shenzhen*&#10;</tspan><tspan x="19.8091" y="341.276">Lahore*&#10;</tspan><tspan x="9.79883" y="354.505">Bangalore*&#10;</tspan><tspan x="25.8647" y="367.734">Paris*&#10;</tspan><tspan x="18.9902" y="380.962">Bogot&#xe1;*&#10;</tspan><tspan x="18.9204" y="394.191">Jakarta*&#10;</tspan><tspan x="15.2959" y="407.42">Chennai*&#10;</tspan><tspan x="25.8394" y="420.649">Lima*&#10;</tspan><tspan x="14.2231" y="433.878">Bangkok*</tspan></text>
</g>
<g id="Group_2">
<g id="Group_3">
<path id="Vector_34" d="M172.091 0H0V10.9391H172.091V0Z" transform="translate(451 61)" fill="#41997E"/>
<path id="Vector_35" d="M107.415 0H0V10.9391H107.415V0Z" transform="translate(451 74.127)" fill="#41997E"/>
<path id="Vector_36" d="M188.105 0H0V10.9391H188.105V0Z" transform="translate(451 87.2538)" fill="#41997E"/>
<path id="Vector_37" d="M129.848 0H0V10.9391H129.848V0Z" transform="translate(451 100.381)" fill="#41997E"/>
<path id="Vector_38" d="M102.735 0H0V10.9391H102.735V0Z" transform="translate(451 113.508)" fill="#41997E"/>
<path id="Vector_39" d="M34.9749 0H0V10.9391H34.9749V0Z" transform="translate(451 126.635)" fill="#41997E"/>
<path id="Vector_40" d="M79.1354 0H0V10.9391H79.1354V0Z" transform="translate(451 139.761)" fill="#41997E"/>
<path id="Vector_41" d="M156.198 0H0V10.9391H156.198V0Z" transform="translate(451 152.888)" fill="#41997E"/>
<path id="Vector_42" d="M19.973 0H0V10.9391H19.973V0Z" transform="translate(451 166.015)" fill="#41997E"/>
<path id="Vector_43" d="M82.7438 0H0V10.9391H82.7438V0Z" transform="translate(451 179.142)" fill="#41997E"/>
<path id="Vector_44" d="M312 0H0V10.9391H312V0Z" transform="translate(451 192.269)" fill="#41997E"/>
<path id="Vector_45" d="M13.0645 0H0V10.9391H13.0645V0Z" transform="translate(451 205.396)" fill="#41997E"/>
<path id="Vector_46" d="M45.7116 0H0V10.9391H45.7116V0Z" transform="translate(451 218.523)" fill="#41997E"/>
<path id="Vector_47" d="M67.8937 0H0V10.9391H67.8937V0Z" transform="translate(451 231.65)" fill="#41997E"/>
<path id="Vector_48" d="M161.691 0H0V10.9391H161.691V0Z" transform="translate(451 244.777)" fill="#41997E"/>
<path id="Vector_49" d="M35.9472 0H0V10.9391H35.9472V0Z" transform="translate(451 257.904)" fill="#41997E"/>
<path id="Vector_50" d="M65.3249 0H0V10.9391H65.3249V0Z" transform="translate(451 271.031)" fill="#41997E"/>
<path id="Vector_51" d="M15.7947 0H0V10.9391H15.7947V0Z" transform="translate(451 284.157)" fill="#00FFB3"/>
<path id="Vector_52" d="M51.1081 0H0V10.9391H51.1081V0Z" transform="translate(451 297.284)" fill="#41997E"/>
<path id="Vector_53" d="M42.0102 0H0V10.9391H42.0102V0Z" transform="translate(451 310.411)" fill="#41997E"/>
<path id="Vector_54" d="M2.4958 0H0V10.9391H2.4958V0Z" transform="translate(451 323.538)" fill="#00FFB3"/>
<path id="Vector_55" d="M114.326 0H0V10.9391H114.326V0Z" transform="translate(451 336.665)" fill="#41997E"/>
<path id="Vector_56" d="M189.208 0H0V10.9391H189.208V0Z" transform="translate(451 349.792)" fill="#41997E"/>
<path id="Vector_57" d="M154.427 0H0V10.9391H154.427V0Z" transform="translate(451 362.919)" fill="#41997E"/>
<path id="Vector_58" d="M85.1973 0H0V10.9391H85.1973V0Z" transform="translate(451 376.046)" fill="#41997E"/>
<path id="Vector_59" d="M7.58348 0H0V10.9391H7.58348V0Z" transform="translate(451 389.173)" fill="#41997E"/>
<path id="Vector_60" d="M45.606 0H0V10.9391H45.606V0Z" transform="translate(451 402.3)" fill="#41997E"/>
<path id="Vector_61" d="M175.307 0H0V10.9391H175.307V0Z" transform="translate(451 415.426)" fill="#41997E"/>
<path id="Vector_62" d="M64.914 0H0V10.9391H64.914V0Z" transform="translate(451 428.553)" fill="#41997E"/>
<path id="Vector_63" d="M137.199 0H0V10.9391H137.199V0Z" transform="translate(451 441.68)" fill="#41997E"/>
<path id="Vector_64" d="M37.1986 0H0V10.9391H37.1986V0Z" transform="translate(451 454.807)" fill="#41997E"/>
<path id="Vector_65" d="M41.8563 0H0V10.9391H41.8563V0Z" transform="translate(451 467.934)" fill="#41997E"/>
<path id="Vector_66" d="M86.8199 0H0V10.9391H86.8199V0Z" transform="translate(451 481.061)" fill="#41997E"/>
</g>
</g>
</g>
</svg>
