<svg width="799" height="499" viewBox="0 0 799 499" fill="none" xmlns="http://www.w3.org/2000/svg">
<line y1="-0.5" x2="452" y2="-0.5" transform="translate(529 47) rotate(90)" stroke="#5E5E5E" stroke-dasharray="3 1"/>
<line y1="-0.5" x2="452" y2="-0.5" transform="translate(451 47) rotate(90)" stroke="#5E5E5E"/>
<line y1="-0.5" x2="452" y2="-0.5" transform="translate(606 47) rotate(90)" stroke="#5E5E5E" stroke-dasharray="3 1"/>
<line y1="-0.5" x2="452" y2="-0.5" transform="translate(684 47) rotate(90)" stroke="#5E5E5E" stroke-dasharray="3 1"/>
<line y1="-0.5" x2="434" y2="-0.5" transform="translate(762 65) rotate(90)" stroke="#5E5E5E" stroke-dasharray="3 1"/>
<line y1="-0.5" x2="452" y2="-0.5" transform="translate(106 47) rotate(90)" stroke="#5E5E5E" stroke-dasharray="3 1"/>
<line y1="-0.5" x2="452" y2="-0.5" transform="translate(28 47) rotate(90)" stroke="#5E5E5E" stroke-dasharray="3 1"/>
<line y1="-0.5" x2="452" y2="-0.5" transform="translate(183 47) rotate(90)" stroke="#5E5E5E" stroke-dasharray="3 1"/>
<line y1="-0.5" x2="452" y2="-0.5" transform="translate(261 47) rotate(90)" stroke="#5E5E5E" stroke-dasharray="3 1"/>
<line y1="-0.5" x2="452" y2="-0.5" transform="translate(339 47) rotate(90)" stroke="#5E5E5E"/>
<path d="M105.019 0H103.056V0.5H103.055V0.999916H105.018V0.499916H105.019V0ZM101.093 0.499916V0.999916H99.1296V0.5H99.1296V0H101.093V0.499916H101.093ZM97.1666 0.499916V0.999916H95.2037L95.2037 0.5V0H97.1667L97.1666 0.499916ZM93.2407 0.499916V0.999916H91.2777L91.2778 0.5V0H93.2407L93.2407 0.499916ZM89.3148 0.499916V0.999916H87.3518L87.3519 0.5V0H89.3148L89.3148 0.499916ZM85.3889 0.499916V0.999916H83.4259L83.4259 0.5V0H85.3889L85.3889 0.499916ZM81.4629 0.499916V0.999916H79.5L79.5 0.5V0H81.463L81.4629 0.499916ZM77.537 0.499916V0.999916H75.5741L75.5741 0.5V0H77.537L77.537 0.499916ZM73.6111 0.499916V0.999916H71.6481L71.6481 0.5L71.6481 0.499916L71.6481 0H73.6111L73.6111 0.499916ZM69.6852 0.5L69.6852 0.999916H67.7222V0.5V0.499916V0H69.6852L69.6852 0.499916L69.6852 0.5ZM65.7593 0.5L65.7593 0.999916H63.7963L63.7963 0.5L63.7963 0.499916L63.7963 0H65.7593L65.7593 0.499916L65.7593 0.5ZM61.8333 0.5L61.8333 0.999916H59.8704V0.499916L59.8704 0H61.8333L61.8333 0.499916L61.8333 0.5ZM57.9074 0.5V0.999916H55.9444L55.9444 0.5L55.9444 0.499916L55.9444 0H57.9074V0.499916V0.5ZM53.9815 0.5L53.9815 0.999916H52.0185L52.0185 0.5L52.0185 0.499916L52.0185 0H53.9815L53.9815 0.499916L53.9815 0.5ZM50.0556 0.5L50.0556 0.999916H48.0926V0.5V0.499916V0H50.0556L50.0556 0.499916L50.0556 0.5ZM46.1296 0.5L46.1296 0.999916H44.1667L44.1667 0.5L44.1667 0.499916L44.1667 0H46.1296V0.5ZM42.2037 0.5L42.2037 0.999916H40.2407L40.2407 0.5L40.2407 0.499916L40.2407 0H42.2037L42.2037 0.499916L42.2037 0.5ZM38.2778 0.5V0.999916H36.3148L36.3148 0.5V0H38.2778V0.499916V0.5ZM34.3519 0.499916V0.999916H32.3889L32.3889 0.5V0H34.3519L34.3519 0.499916ZM30.4259 0.499916V0.999916H28.463V0.5H28.463V0H30.4259V0.499916H30.4259ZM26.5 0.499916V0.999916H24.537V0.5H24.5371V0H26.5V0.499916H26.5ZM22.5741 0.499916V0.999916H20.6111V0.5H20.6111V0H22.5741V0.499916H22.5741ZM18.6481 0.499916V0.999916H16.6852V0.5H16.6852V0H18.6482V0.499916H18.6481ZM14.7222 0.499916V0.999916H12.7593V0.5H12.7593V0H14.7223V0.499916H14.7222ZM10.7963 0.499916V0.999916H8.83333V0.5H8.83339V0H10.7963V0.499916H10.7963ZM6.87037 0.499916V0.999916H4.90741V0.5H4.90747V0H6.87043V0.499916H6.87037ZM2.94444 0.499916V0.999916H0.981481V0.5H0.981554V0H2.94451V0.499916H2.94444Z" transform="translate(342 67)" stroke="#666666" stroke-dasharray="2 2"/>
<path d="M105.019 0H103.056V0.5H103.055V0.999916H105.018V0.499916H105.019V0ZM101.093 0.499916V0.999916H99.1296V0.5H99.1296V0H101.093V0.499916H101.093ZM97.1666 0.499916V0.999916H95.2037L95.2037 0.5V0H97.1667L97.1666 0.499916ZM93.2407 0.499916V0.999916H91.2777L91.2778 0.5V0H93.2407L93.2407 0.499916ZM89.3148 0.499916V0.999916H87.3518L87.3519 0.5V0H89.3148L89.3148 0.499916ZM85.3889 0.499916V0.999916H83.4259L83.4259 0.5V0H85.3889L85.3889 0.499916ZM81.4629 0.499916V0.999916H79.5L79.5 0.5V0H81.463L81.4629 0.499916ZM77.537 0.499916V0.999916H75.5741L75.5741 0.5V0H77.537L77.537 0.499916ZM73.6111 0.499916V0.999916H71.6481L71.6481 0.5L71.6481 0.499916L71.6481 0H73.6111L73.6111 0.499916ZM69.6852 0.5L69.6852 0.999916H67.7222V0.5V0.499916V0H69.6852L69.6852 0.499916L69.6852 0.5ZM65.7593 0.5L65.7593 0.999916H63.7963L63.7963 0.5L63.7963 0.499916L63.7963 0H65.7593L65.7593 0.499916L65.7593 0.5ZM61.8333 0.5L61.8333 0.999916H59.8704V0.499916L59.8704 0H61.8333L61.8333 0.499916L61.8333 0.5ZM57.9074 0.5V0.999916H55.9444L55.9444 0.5L55.9444 0.499916L55.9444 0H57.9074V0.499916V0.5ZM53.9815 0.5L53.9815 0.999916H52.0185L52.0185 0.5L52.0185 0.499916L52.0185 0H53.9815L53.9815 0.499916L53.9815 0.5ZM50.0556 0.5L50.0556 0.999916H48.0926V0.5V0.499916V0H50.0556L50.0556 0.499916L50.0556 0.5ZM46.1296 0.5L46.1296 0.999916H44.1667L44.1667 0.5L44.1667 0.499916L44.1667 0H46.1296V0.5ZM42.2037 0.5L42.2037 0.999916H40.2407L40.2407 0.5L40.2407 0.499916L40.2407 0H42.2037L42.2037 0.499916L42.2037 0.5ZM38.2778 0.5V0.999916H36.3148L36.3148 0.5V0H38.2778V0.499916V0.5ZM34.3519 0.499916V0.999916H32.3889L32.3889 0.5V0H34.3519L34.3519 0.499916ZM30.4259 0.499916V0.999916H28.463V0.5H28.463V0H30.4259V0.499916H30.4259ZM26.5 0.499916V0.999916H24.537V0.5H24.5371V0H26.5V0.499916H26.5ZM22.5741 0.499916V0.999916H20.6111V0.5H20.6111V0H22.5741V0.499916H22.5741ZM18.6481 0.499916V0.999916H16.6852V0.5H16.6852V0H18.6482V0.499916H18.6481ZM14.7222 0.499916V0.999916H12.7593V0.5H12.7593V0H14.7223V0.499916H14.7222ZM10.7963 0.499916V0.999916H8.83333V0.5H8.83339V0H10.7963V0.499916H10.7963ZM6.87037 0.499916V0.999916H4.90741V0.5H4.90747V0H6.87043V0.499916H6.87037ZM2.94444 0.499916V0.999916H0.981481V0.5H0.981554V0H2.94451V0.499916H2.94444Z" transform="translate(342 80.1562)" stroke="#666666" stroke-dasharray="2 2"/>
<path d="M105.019 0H103.056V0.5H103.055V0.999916H105.018V0.499916H105.019V0ZM101.093 0.499916V0.999916H99.1296V0.5H99.1296V0H101.093V0.499916H101.093ZM97.1666 0.499916V0.999916H95.2037L95.2037 0.5V0H97.1667L97.1666 0.499916ZM93.2407 0.499916V0.999916H91.2777L91.2778 0.5V0H93.2407L93.2407 0.499916ZM89.3148 0.499916V0.999916H87.3518L87.3519 0.5V0H89.3148L89.3148 0.499916ZM85.3889 0.499916V0.999916H83.4259L83.4259 0.5V0H85.3889L85.3889 0.499916ZM81.4629 0.499916V0.999916H79.5L79.5 0.5V0H81.463L81.4629 0.499916ZM77.537 0.499916V0.999916H75.5741L75.5741 0.5V0H77.537L77.537 0.499916ZM73.6111 0.499916V0.999916H71.6481L71.6481 0.5L71.6481 0.499916L71.6481 0H73.6111L73.6111 0.499916ZM69.6852 0.5L69.6852 0.999916H67.7222V0.5V0.499916V0H69.6852L69.6852 0.499916L69.6852 0.5ZM65.7593 0.5L65.7593 0.999916H63.7963L63.7963 0.5L63.7963 0.499916L63.7963 0H65.7593L65.7593 0.499916L65.7593 0.5ZM61.8333 0.5L61.8333 0.999916H59.8704V0.499916L59.8704 0H61.8333L61.8333 0.499916L61.8333 0.5ZM57.9074 0.5V0.999916H55.9444L55.9444 0.5L55.9444 0.499916L55.9444 0H57.9074V0.499916V0.5ZM53.9815 0.5L53.9815 0.999916H52.0185L52.0185 0.5L52.0185 0.499916L52.0185 0H53.9815L53.9815 0.499916L53.9815 0.5ZM50.0556 0.5L50.0556 0.999916H48.0926V0.5V0.499916V0H50.0556L50.0556 0.499916L50.0556 0.5ZM46.1296 0.5L46.1296 0.999916H44.1667L44.1667 0.5L44.1667 0.499916L44.1667 0H46.1296V0.5ZM42.2037 0.5L42.2037 0.999916H40.2407L40.2407 0.5L40.2407 0.499916L40.2407 0H42.2037L42.2037 0.499916L42.2037 0.5ZM38.2778 0.5V0.999916H36.3148L36.3148 0.5V0H38.2778V0.499916V0.5ZM34.3519 0.499916V0.999916H32.3889L32.3889 0.5V0H34.3519L34.3519 0.499916ZM30.4259 0.499916V0.999916H28.463V0.5H28.463V0H30.4259V0.499916H30.4259ZM26.5 0.499916V0.999916H24.537V0.5H24.5371V0H26.5V0.499916H26.5ZM22.5741 0.499916V0.999916H20.6111V0.5H20.6111V0H22.5741V0.499916H22.5741ZM18.6481 0.499916V0.999916H16.6852V0.5H16.6852V0H18.6482V0.499916H18.6481ZM14.7222 0.499916V0.999916H12.7593V0.5H12.7593V0H14.7223V0.499916H14.7222ZM10.7963 0.499916V0.999916H8.83333V0.5H8.83339V0H10.7963V0.499916H10.7963ZM6.87037 0.499916V0.999916H4.90741V0.5H4.90747V0H6.87043V0.499916H6.87037ZM2.94444 0.499916V0.999916H0.981481V0.5H0.981554V0H2.94451V0.499916H2.94444Z" transform="translate(342 93.3125)" stroke="#666666" stroke-dasharray="2 2"/>
<path d="M105.019 0H103.056V0.5H103.055V0.999916H105.018V0.499916H105.019V0ZM101.093 0.499916V0.999916H99.1296V0.5H99.1296V0H101.093V0.499916H101.093ZM97.1666 0.499916V0.999916H95.2037L95.2037 0.5V0H97.1667L97.1666 0.499916ZM93.2407 0.499916V0.999916H91.2777L91.2778 0.5V0H93.2407L93.2407 0.499916ZM89.3148 0.499916V0.999916H87.3518L87.3519 0.5V0H89.3148L89.3148 0.499916ZM85.3889 0.499916V0.999916H83.4259L83.4259 0.5V0H85.3889L85.3889 0.499916ZM81.4629 0.499916V0.999916H79.5L79.5 0.5V0H81.463L81.4629 0.499916ZM77.537 0.499916V0.999916H75.5741L75.5741 0.5V0H77.537L77.537 0.499916ZM73.6111 0.499916V0.999916H71.6481L71.6481 0.5L71.6481 0.499916L71.6481 0H73.6111L73.6111 0.499916ZM69.6852 0.5L69.6852 0.999916H67.7222V0.5V0.499916V0H69.6852L69.6852 0.499916L69.6852 0.5ZM65.7593 0.5L65.7593 0.999916H63.7963L63.7963 0.5L63.7963 0.499916L63.7963 0H65.7593L65.7593 0.499916L65.7593 0.5ZM61.8333 0.5L61.8333 0.999916H59.8704V0.499916L59.8704 0H61.8333L61.8333 0.499916L61.8333 0.5ZM57.9074 0.5V0.999916H55.9444L55.9444 0.5L55.9444 0.499916L55.9444 0H57.9074V0.499916V0.5ZM53.9815 0.5L53.9815 0.999916H52.0185L52.0185 0.5L52.0185 0.499916L52.0185 0H53.9815L53.9815 0.499916L53.9815 0.5ZM50.0556 0.5L50.0556 0.999916H48.0926V0.5V0.499916V0H50.0556L50.0556 0.499916L50.0556 0.5ZM46.1296 0.5L46.1296 0.999916H44.1667L44.1667 0.5L44.1667 0.499916L44.1667 0H46.1296V0.5ZM42.2037 0.5L42.2037 0.999916H40.2407L40.2407 0.5L40.2407 0.499916L40.2407 0H42.2037L42.2037 0.499916L42.2037 0.5ZM38.2778 0.5V0.999916H36.3148L36.3148 0.5V0H38.2778V0.499916V0.5ZM34.3519 0.499916V0.999916H32.3889L32.3889 0.5V0H34.3519L34.3519 0.499916ZM30.4259 0.499916V0.999916H28.463V0.5H28.463V0H30.4259V0.499916H30.4259ZM26.5 0.499916V0.999916H24.537V0.5H24.5371V0H26.5V0.499916H26.5ZM22.5741 0.499916V0.999916H20.6111V0.5H20.6111V0H22.5741V0.499916H22.5741ZM18.6481 0.499916V0.999916H16.6852V0.5H16.6852V0H18.6482V0.499916H18.6481ZM14.7222 0.499916V0.999916H12.7593V0.5H12.7593V0H14.7223V0.499916H14.7222ZM10.7963 0.499916V0.999916H8.83333V0.5H8.83339V0H10.7963V0.499916H10.7963ZM6.87037 0.499916V0.999916H4.90741V0.5H4.90747V0H6.87043V0.499916H6.87037ZM2.94444 0.499916V0.999916H0.981481V0.5H0.981554V0H2.94451V0.499916H2.94444Z" transform="translate(342 106.469)" stroke="#666666" stroke-dasharray="2 2"/>
<path d="M105.019 0H103.056V0.5H103.055V0.999916H105.018V0.499916H105.019V0ZM101.093 0.499916V0.999916H99.1296V0.5H99.1296V0H101.093V0.499916H101.093ZM97.1666 0.499916V0.999916H95.2037L95.2037 0.5V0H97.1667L97.1666 0.499916ZM93.2407 0.499916V0.999916H91.2777L91.2778 0.5V0H93.2407L93.2407 0.499916ZM89.3148 0.499916V0.999916H87.3518L87.3519 0.5V0H89.3148L89.3148 0.499916ZM85.3889 0.499916V0.999916H83.4259L83.4259 0.5V0H85.3889L85.3889 0.499916ZM81.4629 0.499916V0.999916H79.5L79.5 0.5V0H81.463L81.4629 0.499916ZM77.537 0.499916V0.999916H75.5741L75.5741 0.5V0H77.537L77.537 0.499916ZM73.6111 0.499916V0.999916H71.6481L71.6481 0.5L71.6481 0.499916L71.6481 0H73.6111L73.6111 0.499916ZM69.6852 0.5L69.6852 0.999916H67.7222V0.5V0.499916V0H69.6852L69.6852 0.499916L69.6852 0.5ZM65.7593 0.5L65.7593 0.999916H63.7963L63.7963 0.5L63.7963 0.499916L63.7963 0H65.7593L65.7593 0.499916L65.7593 0.5ZM61.8333 0.5L61.8333 0.999916H59.8704V0.499916L59.8704 0H61.8333L61.8333 0.499916L61.8333 0.5ZM57.9074 0.5V0.999916H55.9444L55.9444 0.5L55.9444 0.499916L55.9444 0H57.9074V0.499916V0.5ZM53.9815 0.5L53.9815 0.999916H52.0185L52.0185 0.5L52.0185 0.499916L52.0185 0H53.9815L53.9815 0.499916L53.9815 0.5ZM50.0556 0.5L50.0556 0.999916H48.0926V0.5V0.499916V0H50.0556L50.0556 0.499916L50.0556 0.5ZM46.1296 0.5L46.1296 0.999916H44.1667L44.1667 0.5L44.1667 0.499916L44.1667 0H46.1296V0.5ZM42.2037 0.5L42.2037 0.999916H40.2407L40.2407 0.5L40.2407 0.499916L40.2407 0H42.2037L42.2037 0.499916L42.2037 0.5ZM38.2778 0.5V0.999916H36.3148L36.3148 0.5V0H38.2778V0.499916V0.5ZM34.3519 0.499916V0.999916H32.3889L32.3889 0.5V0H34.3519L34.3519 0.499916ZM30.4259 0.499916V0.999916H28.463V0.5H28.463V0H30.4259V0.499916H30.4259ZM26.5 0.499916V0.999916H24.537V0.5H24.5371V0H26.5V0.499916H26.5ZM22.5741 0.499916V0.999916H20.6111V0.5H20.6111V0H22.5741V0.499916H22.5741ZM18.6481 0.499916V0.999916H16.6852V0.5H16.6852V0H18.6482V0.499916H18.6481ZM14.7222 0.499916V0.999916H12.7593V0.5H12.7593V0H14.7223V0.499916H14.7222ZM10.7963 0.499916V0.999916H8.83333V0.5H8.83339V0H10.7963V0.499916H10.7963ZM6.87037 0.499916V0.999916H4.90741V0.5H4.90747V0H6.87043V0.499916H6.87037ZM2.94444 0.499916V0.999916H0.981481V0.5H0.981554V0H2.94451V0.499916H2.94444Z" transform="translate(342 119.625)" stroke="#666666" stroke-dasharray="2 2"/>
<path d="M105.019 0H103.056V0.5H103.055V0.999916H105.018V0.499916H105.019V0ZM101.093 0.499916V0.999916H99.1296V0.5H99.1296V0H101.093V0.499916H101.093ZM97.1666 0.499916V0.999916H95.2037L95.2037 0.5V0H97.1667L97.1666 0.499916ZM93.2407 0.499916V0.999916H91.2777L91.2778 0.5V0H93.2407L93.2407 0.499916ZM89.3148 0.499916V0.999916H87.3518L87.3519 0.5V0H89.3148L89.3148 0.499916ZM85.3889 0.499916V0.999916H83.4259L83.4259 0.5V0H85.3889L85.3889 0.499916ZM81.4629 0.499916V0.999916H79.5L79.5 0.5V0H81.463L81.4629 0.499916ZM77.537 0.499916V0.999916H75.5741L75.5741 0.5V0H77.537L77.537 0.499916ZM73.6111 0.499916V0.999916H71.6481L71.6481 0.5L71.6481 0.499916L71.6481 0H73.6111L73.6111 0.499916ZM69.6852 0.5L69.6852 0.999916H67.7222V0.5V0.499916V0H69.6852L69.6852 0.499916L69.6852 0.5ZM65.7593 0.5L65.7593 0.999916H63.7963L63.7963 0.5L63.7963 0.499916L63.7963 0H65.7593L65.7593 0.499916L65.7593 0.5ZM61.8333 0.5L61.8333 0.999916H59.8704V0.499916L59.8704 0H61.8333L61.8333 0.499916L61.8333 0.5ZM57.9074 0.5V0.999916H55.9444L55.9444 0.5L55.9444 0.499916L55.9444 0H57.9074V0.499916V0.5ZM53.9815 0.5L53.9815 0.999916H52.0185L52.0185 0.5L52.0185 0.499916L52.0185 0H53.9815L53.9815 0.499916L53.9815 0.5ZM50.0556 0.5L50.0556 0.999916H48.0926V0.5V0.499916V0H50.0556L50.0556 0.499916L50.0556 0.5ZM46.1296 0.5L46.1296 0.999916H44.1667L44.1667 0.5L44.1667 0.499916L44.1667 0H46.1296V0.5ZM42.2037 0.5L42.2037 0.999916H40.2407L40.2407 0.5L40.2407 0.499916L40.2407 0H42.2037L42.2037 0.499916L42.2037 0.5ZM38.2778 0.5V0.999916H36.3148L36.3148 0.5V0H38.2778V0.499916V0.5ZM34.3519 0.499916V0.999916H32.3889L32.3889 0.5V0H34.3519L34.3519 0.499916ZM30.4259 0.499916V0.999916H28.463V0.5H28.463V0H30.4259V0.499916H30.4259ZM26.5 0.499916V0.999916H24.537V0.5H24.5371V0H26.5V0.499916H26.5ZM22.5741 0.499916V0.999916H20.6111V0.5H20.6111V0H22.5741V0.499916H22.5741ZM18.6481 0.499916V0.999916H16.6852V0.5H16.6852V0H18.6482V0.499916H18.6481ZM14.7222 0.499916V0.999916H12.7593V0.5H12.7593V0H14.7223V0.499916H14.7222ZM10.7963 0.499916V0.999916H8.83333V0.5H8.83339V0H10.7963V0.499916H10.7963ZM6.87037 0.499916V0.999916H4.90741V0.5H4.90747V0H6.87043V0.499916H6.87037ZM2.94444 0.499916V0.999916H0.981481V0.5H0.981554V0H2.94451V0.499916H2.94444Z" transform="translate(342 132.781)" stroke="#666666" stroke-dasharray="2 2"/>
<path d="M105.019 0H103.056V0.499916H103.056V0.999916H105.019V0.5H105.019V0ZM101.093 0.5V0.999916H99.1297V0.499916H99.1296V0H101.093V0.5H101.093ZM97.1667 0.5V0.999916H95.2038V0.499916L95.2037 0H97.1667V0.5H97.1667ZM93.2407 0.5L93.2408 0.999916H91.2778V0.499916L91.2778 0H93.2407V0.5ZM89.3148 0.5L89.3149 0.999916H87.3519V0.499916L87.3519 0H89.3148V0.5ZM85.3889 0.5L85.3889 0.999916H83.426V0.499916L83.4259 0H85.3889V0.5ZM81.463 0.5L81.463 0.999916H79.5V0.499916L79.5 0H81.463V0.5ZM77.537 0.5L77.5371 0.999916H75.5741V0.499916L75.5741 0H77.537V0.5ZM73.6111 0.5L73.6111 0.999916H71.6482L71.6482 0.5L71.6482 0.499916L71.6482 0H73.6111V0.5ZM69.6852 0.5L69.6852 0.999916H67.7222L67.7222 0.5L67.7222 0.499916L67.7222 0H69.6852L69.6852 0.499916L69.6852 0.5ZM65.7593 0.5V0.999916H63.7963L63.7963 0.5L63.7963 0.499916L63.7963 0H65.7593V0.499916V0.5ZM61.8333 0.5L61.8333 0.999916H59.8704V0.5V0.499916V0H61.8333V0.5ZM57.9074 0.5L57.9074 0.999916H55.9445L55.9444 0.5L55.9445 0.499916L55.9444 0H57.9074L57.9074 0.499916L57.9074 0.5ZM53.9815 0.5L53.9815 0.999916H52.0185L52.0185 0.5L52.0185 0.499916L52.0185 0H53.9815L53.9815 0.499916L53.9815 0.5ZM50.0556 0.5L50.0556 0.999916H48.0926L48.0926 0.5L48.0926 0.499916L48.0926 0H50.0556L50.0556 0.499916L50.0556 0.5ZM46.1296 0.5V0.999916H44.1667V0.499916L44.1667 0H46.1296V0.499916V0.5ZM42.2037 0.5L42.2037 0.999916H40.2407L40.2407 0.5L40.2407 0.499916L40.2407 0H42.2037L42.2037 0.499916L42.2037 0.5ZM38.2778 0.5L38.2778 0.999916H36.3148V0.499916L36.3148 0H38.2778L38.2778 0.499916L38.2778 0.5ZM34.3518 0.5L34.3519 0.999916H32.3889V0.499916L32.3889 0H34.3518V0.5ZM30.4259 0.5V0.999916H28.463V0.499916H28.4629V0H30.4259V0.5H30.4259ZM26.5 0.5V0.999916H24.537V0.499916H24.537V0H26.5V0.5H26.5ZM22.5741 0.5V0.999916H20.6111V0.499916H20.6111V0H22.574V0.5H22.5741ZM18.6481 0.5V0.999916H16.6852V0.499916H16.6851V0H18.6481V0.5H18.6481ZM14.7222 0.5V0.999916H12.7593V0.499916H12.7592V0H14.7222V0.5H14.7222ZM10.7963 0.5V0.999916H8.83333V0.499916H8.83327V0H10.7962V0.5H10.7963ZM6.87037 0.5V0.999916H4.90741V0.499916H4.90734V0H6.87031V0.5H6.87037ZM2.94444 0.5V0.999916H0.981482V0.499916H0.981408V0H2.94438V0.5H2.94444Z" transform="translate(342 145.938)" stroke="#666666" stroke-dasharray="2 2"/>
<path d="M105.019 0H103.056V0.5H103.055V0.999916H105.018V0.499916H105.019V0ZM101.093 0.499916V0.999916H99.1296V0.5H99.1296V0H101.093V0.499916H101.093ZM97.1666 0.499916V0.999916H95.2037L95.2037 0.5V0H97.1667L97.1666 0.499916ZM93.2407 0.499916V0.999916H91.2777L91.2778 0.5V0H93.2407L93.2407 0.499916ZM89.3148 0.499916V0.999916H87.3518L87.3519 0.5V0H89.3148L89.3148 0.499916ZM85.3889 0.499916V0.999916H83.4259L83.4259 0.5V0H85.3889L85.3889 0.499916ZM81.4629 0.499916V0.999916H79.5L79.5 0.5V0H81.463L81.4629 0.499916ZM77.537 0.499916V0.999916H75.5741L75.5741 0.5V0H77.537L77.537 0.499916ZM73.6111 0.499916V0.999916H71.6481L71.6481 0.5L71.6481 0.499916L71.6481 0H73.6111L73.6111 0.499916ZM69.6852 0.5L69.6852 0.999916H67.7222V0.5V0.499916V0H69.6852L69.6852 0.499916L69.6852 0.5ZM65.7593 0.5L65.7593 0.999916H63.7963L63.7963 0.5L63.7963 0.499916L63.7963 0H65.7593L65.7593 0.499916L65.7593 0.5ZM61.8333 0.5L61.8333 0.999916H59.8704V0.499916L59.8704 0H61.8333L61.8333 0.499916L61.8333 0.5ZM57.9074 0.5V0.999916H55.9444L55.9444 0.5L55.9444 0.499916L55.9444 0H57.9074V0.499916V0.5ZM53.9815 0.5L53.9815 0.999916H52.0185L52.0185 0.5L52.0185 0.499916L52.0185 0H53.9815L53.9815 0.499916L53.9815 0.5ZM50.0556 0.5L50.0556 0.999916H48.0926V0.5V0.499916V0H50.0556L50.0556 0.499916L50.0556 0.5ZM46.1296 0.5L46.1296 0.999916H44.1667L44.1667 0.5L44.1667 0.499916L44.1667 0H46.1296V0.5ZM42.2037 0.5L42.2037 0.999916H40.2407L40.2407 0.5L40.2407 0.499916L40.2407 0H42.2037L42.2037 0.499916L42.2037 0.5ZM38.2778 0.5V0.999916H36.3148L36.3148 0.5V0H38.2778V0.499916V0.5ZM34.3519 0.499916V0.999916H32.3889L32.3889 0.5V0H34.3519L34.3519 0.499916ZM30.4259 0.499916V0.999916H28.463V0.5H28.463V0H30.4259V0.499916H30.4259ZM26.5 0.499916V0.999916H24.537V0.5H24.5371V0H26.5V0.499916H26.5ZM22.5741 0.499916V0.999916H20.6111V0.5H20.6111V0H22.5741V0.499916H22.5741ZM18.6481 0.499916V0.999916H16.6852V0.5H16.6852V0H18.6482V0.499916H18.6481ZM14.7222 0.499916V0.999916H12.7593V0.5H12.7593V0H14.7223V0.499916H14.7222ZM10.7963 0.499916V0.999916H8.83333V0.5H8.83339V0H10.7963V0.499916H10.7963ZM6.87037 0.499916V0.999916H4.90741V0.5H4.90747V0H6.87043V0.499916H6.87037ZM2.94444 0.499916V0.999916H0.981481V0.5H0.981554V0H2.94451V0.499916H2.94444Z" transform="translate(342 159.094)" stroke="#666666" stroke-dasharray="2 2"/>
<path d="M105.019 0H103.056V0.5H103.055V0.999916H105.018V0.499916H105.019V0ZM101.093 0.499916V0.999916H99.1296V0.5H99.1296V0H101.093V0.499916H101.093ZM97.1666 0.499916V0.999916H95.2037L95.2037 0.5V0H97.1667L97.1666 0.499916ZM93.2407 0.499916V0.999916H91.2777L91.2778 0.5V0H93.2407L93.2407 0.499916ZM89.3148 0.499916V0.999916H87.3518L87.3519 0.5V0H89.3148L89.3148 0.499916ZM85.3889 0.499916V0.999916H83.4259L83.4259 0.5V0H85.3889L85.3889 0.499916ZM81.4629 0.499916V0.999916H79.5L79.5 0.5V0H81.463L81.4629 0.499916ZM77.537 0.499916V0.999916H75.5741L75.5741 0.5V0H77.537L77.537 0.499916ZM73.6111 0.499916V0.999916H71.6481L71.6481 0.5L71.6481 0.499916L71.6481 0H73.6111L73.6111 0.499916ZM69.6852 0.5L69.6852 0.999916H67.7222V0.5V0.499916V0H69.6852L69.6852 0.499916L69.6852 0.5ZM65.7593 0.5L65.7593 0.999916H63.7963L63.7963 0.5L63.7963 0.499916L63.7963 0H65.7593L65.7593 0.499916L65.7593 0.5ZM61.8333 0.5L61.8333 0.999916H59.8704V0.499916L59.8704 0H61.8333L61.8333 0.499916L61.8333 0.5ZM57.9074 0.5V0.999916H55.9444L55.9444 0.5L55.9444 0.499916L55.9444 0H57.9074V0.499916V0.5ZM53.9815 0.5L53.9815 0.999916H52.0185L52.0185 0.5L52.0185 0.499916L52.0185 0H53.9815L53.9815 0.499916L53.9815 0.5ZM50.0556 0.5L50.0556 0.999916H48.0926V0.5V0.499916V0H50.0556L50.0556 0.499916L50.0556 0.5ZM46.1296 0.5L46.1296 0.999916H44.1667L44.1667 0.5L44.1667 0.499916L44.1667 0H46.1296V0.5ZM42.2037 0.5L42.2037 0.999916H40.2407L40.2407 0.5L40.2407 0.499916L40.2407 0H42.2037L42.2037 0.499916L42.2037 0.5ZM38.2778 0.5V0.999916H36.3148L36.3148 0.5V0H38.2778V0.499916V0.5ZM34.3519 0.499916V0.999916H32.3889L32.3889 0.5V0H34.3519L34.3519 0.499916ZM30.4259 0.499916V0.999916H28.463V0.5H28.463V0H30.4259V0.499916H30.4259ZM26.5 0.499916V0.999916H24.537V0.5H24.5371V0H26.5V0.499916H26.5ZM22.5741 0.499916V0.999916H20.6111V0.5H20.6111V0H22.5741V0.499916H22.5741ZM18.6481 0.499916V0.999916H16.6852V0.5H16.6852V0H18.6482V0.499916H18.6481ZM14.7222 0.499916V0.999916H12.7593V0.5H12.7593V0H14.7223V0.499916H14.7222ZM10.7963 0.499916V0.999916H8.83333V0.5H8.83339V0H10.7963V0.499916H10.7963ZM6.87037 0.499916V0.999916H4.90741V0.5H4.90747V0H6.87043V0.499916H6.87037ZM2.94444 0.499916V0.999916H0.981481V0.5H0.981554V0H2.94451V0.499916H2.94444Z" transform="translate(342 172.25)" stroke="#666666" stroke-dasharray="2 2"/>
<path d="M105.019 0H103.056V0.5H103.055V0.999916H105.018V0.499916H105.019V0ZM101.093 0.499916V0.999916H99.1296V0.5H99.1296V0H101.093V0.499916H101.093ZM97.1666 0.499916V0.999916H95.2037L95.2037 0.5V0H97.1667L97.1666 0.499916ZM93.2407 0.499916V0.999916H91.2777L91.2778 0.5V0H93.2407L93.2407 0.499916ZM89.3148 0.499916V0.999916H87.3518L87.3519 0.5V0H89.3148L89.3148 0.499916ZM85.3889 0.499916V0.999916H83.4259L83.4259 0.5V0H85.3889L85.3889 0.499916ZM81.4629 0.499916V0.999916H79.5L79.5 0.5V0H81.463L81.4629 0.499916ZM77.537 0.499916V0.999916H75.5741L75.5741 0.5V0H77.537L77.537 0.499916ZM73.6111 0.499916V0.999916H71.6481L71.6481 0.5L71.6481 0.499916L71.6481 0H73.6111L73.6111 0.499916ZM69.6852 0.5L69.6852 0.999916H67.7222V0.5V0.499916V0H69.6852L69.6852 0.499916L69.6852 0.5ZM65.7593 0.5L65.7593 0.999916H63.7963L63.7963 0.5L63.7963 0.499916L63.7963 0H65.7593L65.7593 0.499916L65.7593 0.5ZM61.8333 0.5L61.8333 0.999916H59.8704V0.499916L59.8704 0H61.8333L61.8333 0.499916L61.8333 0.5ZM57.9074 0.5V0.999916H55.9444L55.9444 0.5L55.9444 0.499916L55.9444 0H57.9074V0.499916V0.5ZM53.9815 0.5L53.9815 0.999916H52.0185L52.0185 0.5L52.0185 0.499916L52.0185 0H53.9815L53.9815 0.499916L53.9815 0.5ZM50.0556 0.5L50.0556 0.999916H48.0926V0.5V0.499916V0H50.0556L50.0556 0.499916L50.0556 0.5ZM46.1296 0.5L46.1296 0.999916H44.1667L44.1667 0.5L44.1667 0.499916L44.1667 0H46.1296V0.5ZM42.2037 0.5L42.2037 0.999916H40.2407L40.2407 0.5L40.2407 0.499916L40.2407 0H42.2037L42.2037 0.499916L42.2037 0.5ZM38.2778 0.5V0.999916H36.3148L36.3148 0.5V0H38.2778V0.499916V0.5ZM34.3519 0.499916V0.999916H32.3889L32.3889 0.5V0H34.3519L34.3519 0.499916ZM30.4259 0.499916V0.999916H28.463V0.5H28.463V0H30.4259V0.499916H30.4259ZM26.5 0.499916V0.999916H24.537V0.5H24.5371V0H26.5V0.499916H26.5ZM22.5741 0.499916V0.999916H20.6111V0.5H20.6111V0H22.5741V0.499916H22.5741ZM18.6481 0.499916V0.999916H16.6852V0.5H16.6852V0H18.6482V0.499916H18.6481ZM14.7222 0.499916V0.999916H12.7593V0.5H12.7593V0H14.7223V0.499916H14.7222ZM10.7963 0.499916V0.999916H8.83333V0.5H8.83339V0H10.7963V0.499916H10.7963ZM6.87037 0.499916V0.999916H4.90741V0.5H4.90747V0H6.87043V0.499916H6.87037ZM2.94444 0.499916V0.999916H0.981481V0.5H0.981554V0H2.94451V0.499916H2.94444Z" transform="translate(342 185.406)" stroke="#666666" stroke-dasharray="2 2"/>
<path d="M104.981 0H102.942V0.5L102.942 0.999916H104.981V0.499916L104.981 0ZM100.904 0.499916V0.999916H98.8653L98.8654 0.5V0H100.904L100.904 0.499916ZM96.8269 0.499916V0.999916H94.7884L94.7885 0.5V0H96.8269L96.8269 0.499916ZM92.75 0.499916V0.999916H90.7115L90.7115 0.5V0H92.75L92.75 0.499916ZM88.673 0.499916V0.999916H86.6346L86.6346 0.5V0H88.6731L88.673 0.499916ZM84.5961 0.499916V0.999916H82.5577L82.5577 0.5V0H84.5961L84.5961 0.499916ZM80.5192 0.499916V0.999916H78.4807L78.4808 0.5V0H80.5192L80.5192 0.499916ZM76.4423 0.499916V0.999916H74.4038L74.4038 0.5V0H76.4423L76.4423 0.499916ZM72.3654 0.499916V0.999916H70.3269L70.3269 0.5V0H72.3654L72.3654 0.499916ZM68.2884 0.499916V0.999916H66.25L66.25 0.5V0H68.2885L68.2884 0.499916ZM64.2115 0.499916V0.999916H62.1731L62.1731 0.5V0H64.2115L64.2115 0.499916ZM60.1346 0.499916V0.999916H58.0961L58.0962 0.5V0H60.1346L60.1346 0.499916ZM56.0577 0.499916V0.999916H54.0192L54.0192 0.5V0H56.0577L56.0577 0.499916ZM51.9808 0.499916V0.999916H49.9423L49.9423 0.5V0H51.9808L51.9808 0.499916ZM47.9038 0.499916V0.999916H45.8654L45.8654 0.5V0H47.9039L47.9038 0.499916ZM43.8269 0.499916V0.999916H41.7885L41.7885 0.5V0H43.8269L43.8269 0.499916ZM39.75 0.499916V0.999916H37.7115L37.7116 0.5V0H39.75L39.75 0.499916ZM35.6731 0.499916V0.999916H33.6346L33.6346 0.5V0H35.6731L35.6731 0.499916ZM31.5962 0.499916V0.999916H29.5577V0.5H29.5577V0H31.5962V0.499916H31.5962ZM27.5192 0.499916V0.999916H25.4808V0.5H25.4808V0H27.5193V0.499916H27.5192ZM23.4423 0.499916V0.999916H21.4038V0.5H21.4039V0H23.4423V0.499916H23.4423ZM19.3654 0.499916V0.999916H17.3269V0.5H17.327V0H19.3654V0.499916H19.3654ZM15.2885 0.499916V0.999916H13.25V0.5H13.25V0H15.2885V0.499916H15.2885ZM11.2115 0.499916V0.999916H9.17308V0.5H9.17312V0H11.2116V0.499916H11.2115ZM7.13462 0.499916V0.999916H5.09615V0.5H5.0962V0H7.13466V0.499916H7.13462ZM3.05769 0.499916V0.999916H1.01923V0.5H1.01928V0H3.05774V0.499916H3.05769Z" transform="translate(342 198.562)" stroke="#666666" stroke-dasharray="2 2"/>
<path d="M105.019 0H103.056V0.5H103.055V0.999916H105.018V0.499916H105.019V0ZM101.093 0.499916V0.999916H99.1296V0.5H99.1296V0H101.093V0.499916H101.093ZM97.1666 0.499916V0.999916H95.2037L95.2037 0.5V0H97.1667L97.1666 0.499916ZM93.2407 0.499916V0.999916H91.2777L91.2778 0.5V0H93.2407L93.2407 0.499916ZM89.3148 0.499916V0.999916H87.3518L87.3519 0.5V0H89.3148L89.3148 0.499916ZM85.3889 0.499916V0.999916H83.4259L83.4259 0.5V0H85.3889L85.3889 0.499916ZM81.4629 0.499916V0.999916H79.5L79.5 0.5V0H81.463L81.4629 0.499916ZM77.537 0.499916V0.999916H75.5741L75.5741 0.5V0H77.537L77.537 0.499916ZM73.6111 0.499916V0.999916H71.6481L71.6481 0.5L71.6481 0.499916L71.6481 0H73.6111L73.6111 0.499916ZM69.6852 0.5L69.6852 0.999916H67.7222V0.5V0.499916V0H69.6852L69.6852 0.499916L69.6852 0.5ZM65.7593 0.5L65.7593 0.999916H63.7963L63.7963 0.5L63.7963 0.499916L63.7963 0H65.7593L65.7593 0.499916L65.7593 0.5ZM61.8333 0.5L61.8333 0.999916H59.8704V0.499916L59.8704 0H61.8333L61.8333 0.499916L61.8333 0.5ZM57.9074 0.5V0.999916H55.9444L55.9444 0.5L55.9444 0.499916L55.9444 0H57.9074V0.499916V0.5ZM53.9815 0.5L53.9815 0.999916H52.0185L52.0185 0.5L52.0185 0.499916L52.0185 0H53.9815L53.9815 0.499916L53.9815 0.5ZM50.0556 0.5L50.0556 0.999916H48.0926V0.5V0.499916V0H50.0556L50.0556 0.499916L50.0556 0.5ZM46.1296 0.5L46.1296 0.999916H44.1667L44.1667 0.5L44.1667 0.499916L44.1667 0H46.1296V0.5ZM42.2037 0.5L42.2037 0.999916H40.2407L40.2407 0.5L40.2407 0.499916L40.2407 0H42.2037L42.2037 0.499916L42.2037 0.5ZM38.2778 0.5V0.999916H36.3148L36.3148 0.5V0H38.2778V0.499916V0.5ZM34.3519 0.499916V0.999916H32.3889L32.3889 0.5V0H34.3519L34.3519 0.499916ZM30.4259 0.499916V0.999916H28.463V0.5H28.463V0H30.4259V0.499916H30.4259ZM26.5 0.499916V0.999916H24.537V0.5H24.5371V0H26.5V0.499916H26.5ZM22.5741 0.499916V0.999916H20.6111V0.5H20.6111V0H22.5741V0.499916H22.5741ZM18.6481 0.499916V0.999916H16.6852V0.5H16.6852V0H18.6482V0.499916H18.6481ZM14.7222 0.499916V0.999916H12.7593V0.5H12.7593V0H14.7223V0.499916H14.7222ZM10.7963 0.499916V0.999916H8.83333V0.5H8.83339V0H10.7963V0.499916H10.7963ZM6.87037 0.499916V0.999916H4.90741V0.5H4.90747V0H6.87043V0.499916H6.87037ZM2.94444 0.499916V0.999916H0.981481V0.5H0.981554V0H2.94451V0.499916H2.94444Z" transform="translate(342 211.719)" stroke="#666666" stroke-dasharray="2 2"/>
<path d="M105.019 0H103.056V0.5H103.055V0.999916H105.018V0.499916H105.019V0ZM101.093 0.499916V0.999916H99.1296V0.5H99.1296V0H101.093V0.499916H101.093ZM97.1666 0.499916V0.999916H95.2037L95.2037 0.5V0H97.1667L97.1666 0.499916ZM93.2407 0.499916V0.999916H91.2777L91.2778 0.5V0H93.2407L93.2407 0.499916ZM89.3148 0.499916V0.999916H87.3518L87.3519 0.5V0H89.3148L89.3148 0.499916ZM85.3889 0.499916V0.999916H83.4259L83.4259 0.5V0H85.3889L85.3889 0.499916ZM81.4629 0.499916V0.999916H79.5L79.5 0.5V0H81.463L81.4629 0.499916ZM77.537 0.499916V0.999916H75.5741L75.5741 0.5V0H77.537L77.537 0.499916ZM73.6111 0.499916V0.999916H71.6481L71.6481 0.5L71.6481 0.499916L71.6481 0H73.6111L73.6111 0.499916ZM69.6852 0.5L69.6852 0.999916H67.7222V0.5V0.499916V0H69.6852L69.6852 0.499916L69.6852 0.5ZM65.7593 0.5L65.7593 0.999916H63.7963L63.7963 0.5L63.7963 0.499916L63.7963 0H65.7593L65.7593 0.499916L65.7593 0.5ZM61.8333 0.5L61.8333 0.999916H59.8704V0.499916L59.8704 0H61.8333L61.8333 0.499916L61.8333 0.5ZM57.9074 0.5V0.999916H55.9444L55.9444 0.5L55.9444 0.499916L55.9444 0H57.9074V0.499916V0.5ZM53.9815 0.5L53.9815 0.999916H52.0185L52.0185 0.5L52.0185 0.499916L52.0185 0H53.9815L53.9815 0.499916L53.9815 0.5ZM50.0556 0.5L50.0556 0.999916H48.0926V0.5V0.499916V0H50.0556L50.0556 0.499916L50.0556 0.5ZM46.1296 0.5L46.1296 0.999916H44.1667L44.1667 0.5L44.1667 0.499916L44.1667 0H46.1296V0.5ZM42.2037 0.5L42.2037 0.999916H40.2407L40.2407 0.5L40.2407 0.499916L40.2407 0H42.2037L42.2037 0.499916L42.2037 0.5ZM38.2778 0.5V0.999916H36.3148L36.3148 0.5V0H38.2778V0.499916V0.5ZM34.3519 0.499916V0.999916H32.3889L32.3889 0.5V0H34.3519L34.3519 0.499916ZM30.4259 0.499916V0.999916H28.463V0.5H28.463V0H30.4259V0.499916H30.4259ZM26.5 0.499916V0.999916H24.537V0.5H24.5371V0H26.5V0.499916H26.5ZM22.5741 0.499916V0.999916H20.6111V0.5H20.6111V0H22.5741V0.499916H22.5741ZM18.6481 0.499916V0.999916H16.6852V0.5H16.6852V0H18.6482V0.499916H18.6481ZM14.7222 0.499916V0.999916H12.7593V0.5H12.7593V0H14.7223V0.499916H14.7222ZM10.7963 0.499916V0.999916H8.83333V0.5H8.83339V0H10.7963V0.499916H10.7963ZM6.87037 0.499916V0.999916H4.90741V0.5H4.90747V0H6.87043V0.499916H6.87037ZM2.94444 0.499916V0.999916H0.981481V0.5H0.981554V0H2.94451V0.499916H2.94444Z" transform="translate(342 224.875)" stroke="#666666" stroke-dasharray="2 2"/>
<path d="M104.981 0H102.942V0.5L102.942 0.999916H104.981V0.499916L104.981 0ZM100.904 0.499916V0.999916H98.8653L98.8654 0.5V0H100.904L100.904 0.499916ZM96.8269 0.499916V0.999916H94.7884L94.7885 0.5V0H96.8269L96.8269 0.499916ZM92.75 0.499916V0.999916H90.7115L90.7115 0.5V0H92.75L92.75 0.499916ZM88.673 0.499916V0.999916H86.6346L86.6346 0.5V0H88.6731L88.673 0.499916ZM84.5961 0.499916V0.999916H82.5577L82.5577 0.5V0H84.5961L84.5961 0.499916ZM80.5192 0.499916V0.999916H78.4807L78.4808 0.5V0H80.5192L80.5192 0.499916ZM76.4423 0.499916V0.999916H74.4038L74.4038 0.5V0H76.4423L76.4423 0.499916ZM72.3654 0.499916V0.999916H70.3269L70.3269 0.5V0H72.3654L72.3654 0.499916ZM68.2884 0.499916V0.999916H66.25L66.25 0.5V0H68.2885L68.2884 0.499916ZM64.2115 0.499916V0.999916H62.1731L62.1731 0.5V0H64.2115L64.2115 0.499916ZM60.1346 0.499916V0.999916H58.0961L58.0962 0.5V0H60.1346L60.1346 0.499916ZM56.0577 0.499916V0.999916H54.0192L54.0192 0.5V0H56.0577L56.0577 0.499916ZM51.9808 0.499916V0.999916H49.9423L49.9423 0.5V0H51.9808L51.9808 0.499916ZM47.9038 0.499916V0.999916H45.8654L45.8654 0.5V0H47.9039L47.9038 0.499916ZM43.8269 0.499916V0.999916H41.7885L41.7885 0.5V0H43.8269L43.8269 0.499916ZM39.75 0.499916V0.999916H37.7115L37.7116 0.5V0H39.75L39.75 0.499916ZM35.6731 0.499916V0.999916H33.6346L33.6346 0.5V0H35.6731L35.6731 0.499916ZM31.5962 0.499916V0.999916H29.5577V0.5H29.5577V0H31.5962V0.499916H31.5962ZM27.5192 0.499916V0.999916H25.4808V0.5H25.4808V0H27.5193V0.499916H27.5192ZM23.4423 0.499916V0.999916H21.4038V0.5H21.4039V0H23.4423V0.499916H23.4423ZM19.3654 0.499916V0.999916H17.3269V0.5H17.327V0H19.3654V0.499916H19.3654ZM15.2885 0.499916V0.999916H13.25V0.5H13.25V0H15.2885V0.499916H15.2885ZM11.2115 0.499916V0.999916H9.17308V0.5H9.17312V0H11.2116V0.499916H11.2115ZM7.13462 0.499916V0.999916H5.09615V0.5H5.0962V0H7.13466V0.499916H7.13462ZM3.05769 0.499916V0.999916H1.01923V0.5H1.01928V0H3.05774V0.499916H3.05769Z" transform="translate(342 238.031)" stroke="#666666" stroke-dasharray="2 2"/>
<path d="M105.019 0H103.056V0.5H103.055V0.999916H105.018V0.499916H105.019V0ZM101.093 0.499916V0.999916H99.1296V0.5H99.1296V0H101.093V0.499916H101.093ZM97.1666 0.499916V0.999916H95.2037L95.2037 0.5V0H97.1667L97.1666 0.499916ZM93.2407 0.499916V0.999916H91.2777L91.2778 0.5V0H93.2407L93.2407 0.499916ZM89.3148 0.499916V0.999916H87.3518L87.3519 0.5V0H89.3148L89.3148 0.499916ZM85.3889 0.499916V0.999916H83.4259L83.4259 0.5V0H85.3889L85.3889 0.499916ZM81.4629 0.499916V0.999916H79.5L79.5 0.5V0H81.463L81.4629 0.499916ZM77.537 0.499916V0.999916H75.5741L75.5741 0.5V0H77.537L77.537 0.499916ZM73.6111 0.499916V0.999916H71.6481L71.6481 0.5L71.6481 0.499916L71.6481 0H73.6111L73.6111 0.499916ZM69.6852 0.5L69.6852 0.999916H67.7222V0.5V0.499916V0H69.6852L69.6852 0.499916L69.6852 0.5ZM65.7593 0.5L65.7593 0.999916H63.7963L63.7963 0.5L63.7963 0.499916L63.7963 0H65.7593L65.7593 0.499916L65.7593 0.5ZM61.8333 0.5L61.8333 0.999916H59.8704V0.499916L59.8704 0H61.8333L61.8333 0.499916L61.8333 0.5ZM57.9074 0.5V0.999916H55.9444L55.9444 0.5L55.9444 0.499916L55.9444 0H57.9074V0.499916V0.5ZM53.9815 0.5L53.9815 0.999916H52.0185L52.0185 0.5L52.0185 0.499916L52.0185 0H53.9815L53.9815 0.499916L53.9815 0.5ZM50.0556 0.5L50.0556 0.999916H48.0926V0.5V0.499916V0H50.0556L50.0556 0.499916L50.0556 0.5ZM46.1296 0.5L46.1296 0.999916H44.1667L44.1667 0.5L44.1667 0.499916L44.1667 0H46.1296V0.5ZM42.2037 0.5L42.2037 0.999916H40.2407L40.2407 0.5L40.2407 0.499916L40.2407 0H42.2037L42.2037 0.499916L42.2037 0.5ZM38.2778 0.5V0.999916H36.3148L36.3148 0.5V0H38.2778V0.499916V0.5ZM34.3519 0.499916V0.999916H32.3889L32.3889 0.5V0H34.3519L34.3519 0.499916ZM30.4259 0.499916V0.999916H28.463V0.5H28.463V0H30.4259V0.499916H30.4259ZM26.5 0.499916V0.999916H24.537V0.5H24.5371V0H26.5V0.499916H26.5ZM22.5741 0.499916V0.999916H20.6111V0.5H20.6111V0H22.5741V0.499916H22.5741ZM18.6481 0.499916V0.999916H16.6852V0.5H16.6852V0H18.6482V0.499916H18.6481ZM14.7222 0.499916V0.999916H12.7593V0.5H12.7593V0H14.7223V0.499916H14.7222ZM10.7963 0.499916V0.999916H8.83333V0.5H8.83339V0H10.7963V0.499916H10.7963ZM6.87037 0.499916V0.999916H4.90741V0.5H4.90747V0H6.87043V0.499916H6.87037ZM2.94444 0.499916V0.999916H0.981481V0.5H0.981554V0H2.94451V0.499916H2.94444Z" transform="translate(342 251.188)" stroke="#666666" stroke-dasharray="2 2"/>
<path d="M104.981 0H102.942V0.5L102.942 0.999916H104.981V0.499916L104.981 0ZM100.904 0.499916V0.999916H98.8653L98.8654 0.5V0H100.904L100.904 0.499916ZM96.8269 0.499916V0.999916H94.7884L94.7885 0.5V0H96.8269L96.8269 0.499916ZM92.75 0.499916V0.999916H90.7115L90.7115 0.5V0H92.75L92.75 0.499916ZM88.673 0.499916V0.999916H86.6346L86.6346 0.5V0H88.6731L88.673 0.499916ZM84.5961 0.499916V0.999916H82.5577L82.5577 0.5V0H84.5961L84.5961 0.499916ZM80.5192 0.499916V0.999916H78.4807L78.4808 0.5V0H80.5192L80.5192 0.499916ZM76.4423 0.499916V0.999916H74.4038L74.4038 0.5V0H76.4423L76.4423 0.499916ZM72.3654 0.499916V0.999916H70.3269L70.3269 0.5V0H72.3654L72.3654 0.499916ZM68.2884 0.499916V0.999916H66.25L66.25 0.5V0H68.2885L68.2884 0.499916ZM64.2115 0.499916V0.999916H62.1731L62.1731 0.5V0H64.2115L64.2115 0.499916ZM60.1346 0.499916V0.999916H58.0961L58.0962 0.5V0H60.1346L60.1346 0.499916ZM56.0577 0.499916V0.999916H54.0192L54.0192 0.5V0H56.0577L56.0577 0.499916ZM51.9808 0.499916V0.999916H49.9423L49.9423 0.5V0H51.9808L51.9808 0.499916ZM47.9038 0.499916V0.999916H45.8654L45.8654 0.5V0H47.9039L47.9038 0.499916ZM43.8269 0.499916V0.999916H41.7885L41.7885 0.5V0H43.8269L43.8269 0.499916ZM39.75 0.499916V0.999916H37.7115L37.7116 0.5V0H39.75L39.75 0.499916ZM35.6731 0.499916V0.999916H33.6346L33.6346 0.5V0H35.6731L35.6731 0.499916ZM31.5962 0.499916V0.999916H29.5577V0.5H29.5577V0H31.5962V0.499916H31.5962ZM27.5192 0.499916V0.999916H25.4808V0.5H25.4808V0H27.5193V0.499916H27.5192ZM23.4423 0.499916V0.999916H21.4038V0.5H21.4039V0H23.4423V0.499916H23.4423ZM19.3654 0.499916V0.999916H17.3269V0.5H17.327V0H19.3654V0.499916H19.3654ZM15.2885 0.499916V0.999916H13.25V0.5H13.25V0H15.2885V0.499916H15.2885ZM11.2115 0.499916V0.999916H9.17308V0.5H9.17312V0H11.2116V0.499916H11.2115ZM7.13462 0.499916V0.999916H5.09615V0.5H5.0962V0H7.13466V0.499916H7.13462ZM3.05769 0.499916V0.999916H1.01923V0.5H1.01928V0H3.05774V0.499916H3.05769Z" transform="translate(342 264.344)" stroke="#666666" stroke-dasharray="2 2"/>
<path d="M105.019 0H103.056V0.5H103.055V0.999916H105.018V0.499916H105.019V0ZM101.093 0.499916V0.999916H99.1296V0.5H99.1296V0H101.093V0.499916H101.093ZM97.1666 0.499916V0.999916H95.2037L95.2037 0.5V0H97.1667L97.1666 0.499916ZM93.2407 0.499916V0.999916H91.2777L91.2778 0.5V0H93.2407L93.2407 0.499916ZM89.3148 0.499916V0.999916H87.3518L87.3519 0.5V0H89.3148L89.3148 0.499916ZM85.3889 0.499916V0.999916H83.4259L83.4259 0.5V0H85.3889L85.3889 0.499916ZM81.4629 0.499916V0.999916H79.5L79.5 0.5V0H81.463L81.4629 0.499916ZM77.537 0.499916V0.999916H75.5741L75.5741 0.5V0H77.537L77.537 0.499916ZM73.6111 0.499916V0.999916H71.6481L71.6481 0.5L71.6481 0.499916L71.6481 0H73.6111L73.6111 0.499916ZM69.6852 0.5L69.6852 0.999916H67.7222V0.5V0.499916V0H69.6852L69.6852 0.499916L69.6852 0.5ZM65.7593 0.5L65.7593 0.999916H63.7963L63.7963 0.5L63.7963 0.499916L63.7963 0H65.7593L65.7593 0.499916L65.7593 0.5ZM61.8333 0.5L61.8333 0.999916H59.8704V0.499916L59.8704 0H61.8333L61.8333 0.499916L61.8333 0.5ZM57.9074 0.5V0.999916H55.9444L55.9444 0.5L55.9444 0.499916L55.9444 0H57.9074V0.499916V0.5ZM53.9815 0.5L53.9815 0.999916H52.0185L52.0185 0.5L52.0185 0.499916L52.0185 0H53.9815L53.9815 0.499916L53.9815 0.5ZM50.0556 0.5L50.0556 0.999916H48.0926V0.5V0.499916V0H50.0556L50.0556 0.499916L50.0556 0.5ZM46.1296 0.5L46.1296 0.999916H44.1667L44.1667 0.5L44.1667 0.499916L44.1667 0H46.1296V0.5ZM42.2037 0.5L42.2037 0.999916H40.2407L40.2407 0.5L40.2407 0.499916L40.2407 0H42.2037L42.2037 0.499916L42.2037 0.5ZM38.2778 0.5V0.999916H36.3148L36.3148 0.5V0H38.2778V0.499916V0.5ZM34.3519 0.499916V0.999916H32.3889L32.3889 0.5V0H34.3519L34.3519 0.499916ZM30.4259 0.499916V0.999916H28.463V0.5H28.463V0H30.4259V0.499916H30.4259ZM26.5 0.499916V0.999916H24.537V0.5H24.5371V0H26.5V0.499916H26.5ZM22.5741 0.499916V0.999916H20.6111V0.5H20.6111V0H22.5741V0.499916H22.5741ZM18.6481 0.499916V0.999916H16.6852V0.5H16.6852V0H18.6482V0.499916H18.6481ZM14.7222 0.499916V0.999916H12.7593V0.5H12.7593V0H14.7223V0.499916H14.7222ZM10.7963 0.499916V0.999916H8.83333V0.5H8.83339V0H10.7963V0.499916H10.7963ZM6.87037 0.499916V0.999916H4.90741V0.5H4.90747V0H6.87043V0.499916H6.87037ZM2.94444 0.499916V0.999916H0.981481V0.5H0.981554V0H2.94451V0.499916H2.94444Z" transform="translate(342 277.5)" stroke="#666666" stroke-dasharray="2 2"/>
<path d="M105.019 0H103.056V0.5H103.055V0.999916H105.018V0.499916H105.019V0ZM101.093 0.499916V0.999916H99.1296V0.5H99.1296V0H101.093V0.499916H101.093ZM97.1666 0.499916V0.999916H95.2037L95.2037 0.5V0H97.1667L97.1666 0.499916ZM93.2407 0.499916V0.999916H91.2777L91.2778 0.5V0H93.2407L93.2407 0.499916ZM89.3148 0.499916V0.999916H87.3518L87.3519 0.5V0H89.3148L89.3148 0.499916ZM85.3889 0.499916V0.999916H83.4259L83.4259 0.5V0H85.3889L85.3889 0.499916ZM81.4629 0.499916V0.999916H79.5L79.5 0.5V0H81.463L81.4629 0.499916ZM77.537 0.499916V0.999916H75.5741L75.5741 0.5V0H77.537L77.537 0.499916ZM73.6111 0.499916V0.999916H71.6481L71.6481 0.5L71.6481 0.499916L71.6481 0H73.6111L73.6111 0.499916ZM69.6852 0.5L69.6852 0.999916H67.7222V0.5V0.499916V0H69.6852L69.6852 0.499916L69.6852 0.5ZM65.7593 0.5L65.7593 0.999916H63.7963L63.7963 0.5L63.7963 0.499916L63.7963 0H65.7593L65.7593 0.499916L65.7593 0.5ZM61.8333 0.5L61.8333 0.999916H59.8704V0.499916L59.8704 0H61.8333L61.8333 0.499916L61.8333 0.5ZM57.9074 0.5V0.999916H55.9444L55.9444 0.5L55.9444 0.499916L55.9444 0H57.9074V0.499916V0.5ZM53.9815 0.5L53.9815 0.999916H52.0185L52.0185 0.5L52.0185 0.499916L52.0185 0H53.9815L53.9815 0.499916L53.9815 0.5ZM50.0556 0.5L50.0556 0.999916H48.0926V0.5V0.499916V0H50.0556L50.0556 0.499916L50.0556 0.5ZM46.1296 0.5L46.1296 0.999916H44.1667L44.1667 0.5L44.1667 0.499916L44.1667 0H46.1296V0.5ZM42.2037 0.5L42.2037 0.999916H40.2407L40.2407 0.5L40.2407 0.499916L40.2407 0H42.2037L42.2037 0.499916L42.2037 0.5ZM38.2778 0.5V0.999916H36.3148L36.3148 0.5V0H38.2778V0.499916V0.5ZM34.3519 0.499916V0.999916H32.3889L32.3889 0.5V0H34.3519L34.3519 0.499916ZM30.4259 0.499916V0.999916H28.463V0.5H28.463V0H30.4259V0.499916H30.4259ZM26.5 0.499916V0.999916H24.537V0.5H24.5371V0H26.5V0.499916H26.5ZM22.5741 0.499916V0.999916H20.6111V0.5H20.6111V0H22.5741V0.499916H22.5741ZM18.6481 0.499916V0.999916H16.6852V0.5H16.6852V0H18.6482V0.499916H18.6481ZM14.7222 0.499916V0.999916H12.7593V0.5H12.7593V0H14.7223V0.499916H14.7222ZM10.7963 0.499916V0.999916H8.83333V0.5H8.83339V0H10.7963V0.499916H10.7963ZM6.87037 0.499916V0.999916H4.90741V0.5H4.90747V0H6.87043V0.499916H6.87037ZM2.94444 0.499916V0.999916H0.981481V0.5H0.981554V0H2.94451V0.499916H2.94444Z" transform="translate(342 290.656)" stroke="#666666" stroke-dasharray="2 2"/>
<path d="M105.019 0H103.056V0.5H103.055V0.999916H105.018V0.499916H105.019V0ZM101.093 0.499916V0.999916H99.1296V0.5H99.1296V0H101.093V0.499916H101.093ZM97.1666 0.499916V0.999916H95.2037L95.2037 0.5V0H97.1667L97.1666 0.499916ZM93.2407 0.499916V0.999916H91.2777L91.2778 0.5V0H93.2407L93.2407 0.499916ZM89.3148 0.499916V0.999916H87.3518L87.3519 0.5V0H89.3148L89.3148 0.499916ZM85.3889 0.499916V0.999916H83.4259L83.4259 0.5V0H85.3889L85.3889 0.499916ZM81.4629 0.499916V0.999916H79.5L79.5 0.5V0H81.463L81.4629 0.499916ZM77.537 0.499916V0.999916H75.5741L75.5741 0.5V0H77.537L77.537 0.499916ZM73.6111 0.499916V0.999916H71.6481L71.6481 0.5L71.6481 0.499916L71.6481 0H73.6111L73.6111 0.499916ZM69.6852 0.5L69.6852 0.999916H67.7222V0.5V0.499916V0H69.6852L69.6852 0.499916L69.6852 0.5ZM65.7593 0.5L65.7593 0.999916H63.7963L63.7963 0.5L63.7963 0.499916L63.7963 0H65.7593L65.7593 0.499916L65.7593 0.5ZM61.8333 0.5L61.8333 0.999916H59.8704V0.499916L59.8704 0H61.8333L61.8333 0.499916L61.8333 0.5ZM57.9074 0.5V0.999916H55.9444L55.9444 0.5L55.9444 0.499916L55.9444 0H57.9074V0.499916V0.5ZM53.9815 0.5L53.9815 0.999916H52.0185L52.0185 0.5L52.0185 0.499916L52.0185 0H53.9815L53.9815 0.499916L53.9815 0.5ZM50.0556 0.5L50.0556 0.999916H48.0926V0.5V0.499916V0H50.0556L50.0556 0.499916L50.0556 0.5ZM46.1296 0.5L46.1296 0.999916H44.1667L44.1667 0.5L44.1667 0.499916L44.1667 0H46.1296V0.5ZM42.2037 0.5L42.2037 0.999916H40.2407L40.2407 0.5L40.2407 0.499916L40.2407 0H42.2037L42.2037 0.499916L42.2037 0.5ZM38.2778 0.5V0.999916H36.3148L36.3148 0.5V0H38.2778V0.499916V0.5ZM34.3519 0.499916V0.999916H32.3889L32.3889 0.5V0H34.3519L34.3519 0.499916ZM30.4259 0.499916V0.999916H28.463V0.5H28.463V0H30.4259V0.499916H30.4259ZM26.5 0.499916V0.999916H24.537V0.5H24.5371V0H26.5V0.499916H26.5ZM22.5741 0.499916V0.999916H20.6111V0.5H20.6111V0H22.5741V0.499916H22.5741ZM18.6481 0.499916V0.999916H16.6852V0.5H16.6852V0H18.6482V0.499916H18.6481ZM14.7222 0.499916V0.999916H12.7593V0.5H12.7593V0H14.7223V0.499916H14.7222ZM10.7963 0.499916V0.999916H8.83333V0.5H8.83339V0H10.7963V0.499916H10.7963ZM6.87037 0.499916V0.999916H4.90741V0.5H4.90747V0H6.87043V0.499916H6.87037ZM2.94444 0.499916V0.999916H0.981481V0.5H0.981554V0H2.94451V0.499916H2.94444Z" transform="translate(342 303.813)" stroke="#666666" stroke-dasharray="2 2"/>
<path d="M105.019 0H103.056V0.5H103.055V0.999916H105.018V0.499916H105.019V0ZM101.093 0.499916V0.999916H99.1296V0.5H99.1296V0H101.093V0.499916H101.093ZM97.1666 0.499916V0.999916H95.2037L95.2037 0.5V0H97.1667L97.1666 0.499916ZM93.2407 0.499916V0.999916H91.2777L91.2778 0.5V0H93.2407L93.2407 0.499916ZM89.3148 0.499916V0.999916H87.3518L87.3519 0.5V0H89.3148L89.3148 0.499916ZM85.3889 0.499916V0.999916H83.4259L83.4259 0.5V0H85.3889L85.3889 0.499916ZM81.4629 0.499916V0.999916H79.5L79.5 0.5V0H81.463L81.4629 0.499916ZM77.537 0.499916V0.999916H75.5741L75.5741 0.5V0H77.537L77.537 0.499916ZM73.6111 0.499916V0.999916H71.6481L71.6481 0.5L71.6481 0.499916L71.6481 0H73.6111L73.6111 0.499916ZM69.6852 0.5L69.6852 0.999916H67.7222V0.5V0.499916V0H69.6852L69.6852 0.499916L69.6852 0.5ZM65.7593 0.5L65.7593 0.999916H63.7963L63.7963 0.5L63.7963 0.499916L63.7963 0H65.7593L65.7593 0.499916L65.7593 0.5ZM61.8333 0.5L61.8333 0.999916H59.8704V0.499916L59.8704 0H61.8333L61.8333 0.499916L61.8333 0.5ZM57.9074 0.5V0.999916H55.9444L55.9444 0.5L55.9444 0.499916L55.9444 0H57.9074V0.499916V0.5ZM53.9815 0.5L53.9815 0.999916H52.0185L52.0185 0.5L52.0185 0.499916L52.0185 0H53.9815L53.9815 0.499916L53.9815 0.5ZM50.0556 0.5L50.0556 0.999916H48.0926V0.5V0.499916V0H50.0556L50.0556 0.499916L50.0556 0.5ZM46.1296 0.5L46.1296 0.999916H44.1667L44.1667 0.5L44.1667 0.499916L44.1667 0H46.1296V0.5ZM42.2037 0.5L42.2037 0.999916H40.2407L40.2407 0.5L40.2407 0.499916L40.2407 0H42.2037L42.2037 0.499916L42.2037 0.5ZM38.2778 0.5V0.999916H36.3148L36.3148 0.5V0H38.2778V0.499916V0.5ZM34.3519 0.499916V0.999916H32.3889L32.3889 0.5V0H34.3519L34.3519 0.499916ZM30.4259 0.499916V0.999916H28.463V0.5H28.463V0H30.4259V0.499916H30.4259ZM26.5 0.499916V0.999916H24.537V0.5H24.5371V0H26.5V0.499916H26.5ZM22.5741 0.499916V0.999916H20.6111V0.5H20.6111V0H22.5741V0.499916H22.5741ZM18.6481 0.499916V0.999916H16.6852V0.5H16.6852V0H18.6482V0.499916H18.6481ZM14.7222 0.499916V0.999916H12.7593V0.5H12.7593V0H14.7223V0.499916H14.7222ZM10.7963 0.499916V0.999916H8.83333V0.5H8.83339V0H10.7963V0.499916H10.7963ZM6.87037 0.499916V0.999916H4.90741V0.5H4.90747V0H6.87043V0.499916H6.87037ZM2.94444 0.499916V0.999916H0.981481V0.5H0.981554V0H2.94451V0.499916H2.94444Z" transform="translate(342 316.969)" stroke="#666666" stroke-dasharray="2 2"/>
<path d="M105.019 0H103.056V0.5H103.055V0.999916H105.018V0.499916H105.019V0ZM101.093 0.499916V0.999916H99.1296V0.5H99.1296V0H101.093V0.499916H101.093ZM97.1666 0.499916V0.999916H95.2037L95.2037 0.5V0H97.1667L97.1666 0.499916ZM93.2407 0.499916V0.999916H91.2777L91.2778 0.5V0H93.2407L93.2407 0.499916ZM89.3148 0.499916V0.999916H87.3518L87.3519 0.5V0H89.3148L89.3148 0.499916ZM85.3889 0.499916V0.999916H83.4259L83.4259 0.5V0H85.3889L85.3889 0.499916ZM81.4629 0.499916V0.999916H79.5L79.5 0.5V0H81.463L81.4629 0.499916ZM77.537 0.499916V0.999916H75.5741L75.5741 0.5V0H77.537L77.537 0.499916ZM73.6111 0.499916V0.999916H71.6481L71.6481 0.5L71.6481 0.499916L71.6481 0H73.6111L73.6111 0.499916ZM69.6852 0.5L69.6852 0.999916H67.7222V0.5V0.499916V0H69.6852L69.6852 0.499916L69.6852 0.5ZM65.7593 0.5L65.7593 0.999916H63.7963L63.7963 0.5L63.7963 0.499916L63.7963 0H65.7593L65.7593 0.499916L65.7593 0.5ZM61.8333 0.5L61.8333 0.999916H59.8704V0.499916L59.8704 0H61.8333L61.8333 0.499916L61.8333 0.5ZM57.9074 0.5V0.999916H55.9444L55.9444 0.5L55.9444 0.499916L55.9444 0H57.9074V0.499916V0.5ZM53.9815 0.5L53.9815 0.999916H52.0185L52.0185 0.5L52.0185 0.499916L52.0185 0H53.9815L53.9815 0.499916L53.9815 0.5ZM50.0556 0.5L50.0556 0.999916H48.0926V0.5V0.499916V0H50.0556L50.0556 0.499916L50.0556 0.5ZM46.1296 0.5L46.1296 0.999916H44.1667L44.1667 0.5L44.1667 0.499916L44.1667 0H46.1296V0.5ZM42.2037 0.5L42.2037 0.999916H40.2407L40.2407 0.5L40.2407 0.499916L40.2407 0H42.2037L42.2037 0.499916L42.2037 0.5ZM38.2778 0.5V0.999916H36.3148L36.3148 0.5V0H38.2778V0.499916V0.5ZM34.3519 0.499916V0.999916H32.3889L32.3889 0.5V0H34.3519L34.3519 0.499916ZM30.4259 0.499916V0.999916H28.463V0.5H28.463V0H30.4259V0.499916H30.4259ZM26.5 0.499916V0.999916H24.537V0.5H24.5371V0H26.5V0.499916H26.5ZM22.5741 0.499916V0.999916H20.6111V0.5H20.6111V0H22.5741V0.499916H22.5741ZM18.6481 0.499916V0.999916H16.6852V0.5H16.6852V0H18.6482V0.499916H18.6481ZM14.7222 0.499916V0.999916H12.7593V0.5H12.7593V0H14.7223V0.499916H14.7222ZM10.7963 0.499916V0.999916H8.83333V0.5H8.83339V0H10.7963V0.499916H10.7963ZM6.87037 0.499916V0.999916H4.90741V0.5H4.90747V0H6.87043V0.499916H6.87037ZM2.94444 0.499916V0.999916H0.981481V0.5H0.981554V0H2.94451V0.499916H2.94444Z" transform="translate(342 330.125)" stroke="#666666" stroke-dasharray="2 2"/>
<path d="M105.019 0H103.056V0.5H103.055V0.999916H105.018V0.499916H105.019V0ZM101.093 0.499916V0.999916H99.1296V0.5H99.1296V0H101.093V0.499916H101.093ZM97.1666 0.499916V0.999916H95.2037L95.2037 0.5V0H97.1667L97.1666 0.499916ZM93.2407 0.499916V0.999916H91.2777L91.2778 0.5V0H93.2407L93.2407 0.499916ZM89.3148 0.499916V0.999916H87.3518L87.3519 0.5V0H89.3148L89.3148 0.499916ZM85.3889 0.499916V0.999916H83.4259L83.4259 0.5V0H85.3889L85.3889 0.499916ZM81.4629 0.499916V0.999916H79.5L79.5 0.5V0H81.463L81.4629 0.499916ZM77.537 0.499916V0.999916H75.5741L75.5741 0.5V0H77.537L77.537 0.499916ZM73.6111 0.499916V0.999916H71.6481L71.6481 0.5L71.6481 0.499916L71.6481 0H73.6111L73.6111 0.499916ZM69.6852 0.5L69.6852 0.999916H67.7222V0.5V0.499916V0H69.6852L69.6852 0.499916L69.6852 0.5ZM65.7593 0.5L65.7593 0.999916H63.7963L63.7963 0.5L63.7963 0.499916L63.7963 0H65.7593L65.7593 0.499916L65.7593 0.5ZM61.8333 0.5L61.8333 0.999916H59.8704V0.499916L59.8704 0H61.8333L61.8333 0.499916L61.8333 0.5ZM57.9074 0.5V0.999916H55.9444L55.9444 0.5L55.9444 0.499916L55.9444 0H57.9074V0.499916V0.5ZM53.9815 0.5L53.9815 0.999916H52.0185L52.0185 0.5L52.0185 0.499916L52.0185 0H53.9815L53.9815 0.499916L53.9815 0.5ZM50.0556 0.5L50.0556 0.999916H48.0926V0.5V0.499916V0H50.0556L50.0556 0.499916L50.0556 0.5ZM46.1296 0.5L46.1296 0.999916H44.1667L44.1667 0.5L44.1667 0.499916L44.1667 0H46.1296V0.5ZM42.2037 0.5L42.2037 0.999916H40.2407L40.2407 0.5L40.2407 0.499916L40.2407 0H42.2037L42.2037 0.499916L42.2037 0.5ZM38.2778 0.5V0.999916H36.3148L36.3148 0.5V0H38.2778V0.499916V0.5ZM34.3519 0.499916V0.999916H32.3889L32.3889 0.5V0H34.3519L34.3519 0.499916ZM30.4259 0.499916V0.999916H28.463V0.5H28.463V0H30.4259V0.499916H30.4259ZM26.5 0.499916V0.999916H24.537V0.5H24.5371V0H26.5V0.499916H26.5ZM22.5741 0.499916V0.999916H20.6111V0.5H20.6111V0H22.5741V0.499916H22.5741ZM18.6481 0.499916V0.999916H16.6852V0.5H16.6852V0H18.6482V0.499916H18.6481ZM14.7222 0.499916V0.999916H12.7593V0.5H12.7593V0H14.7223V0.499916H14.7222ZM10.7963 0.499916V0.999916H8.83333V0.5H8.83339V0H10.7963V0.499916H10.7963ZM6.87037 0.499916V0.999916H4.90741V0.5H4.90747V0H6.87043V0.499916H6.87037ZM2.94444 0.499916V0.999916H0.981481V0.5H0.981554V0H2.94451V0.499916H2.94444Z" transform="translate(342 343.281)" stroke="#666666" stroke-dasharray="2 2"/>
<path d="M105.019 0H103.056V0.5H103.055V0.999916H105.018V0.499916H105.019V0ZM101.093 0.499916V0.999916H99.1296V0.5H99.1296V0H101.093V0.499916H101.093ZM97.1666 0.499916V0.999916H95.2037L95.2037 0.5V0H97.1667L97.1666 0.499916ZM93.2407 0.499916V0.999916H91.2777L91.2778 0.5V0H93.2407L93.2407 0.499916ZM89.3148 0.499916V0.999916H87.3518L87.3519 0.5V0H89.3148L89.3148 0.499916ZM85.3889 0.499916V0.999916H83.4259L83.4259 0.5V0H85.3889L85.3889 0.499916ZM81.4629 0.499916V0.999916H79.5L79.5 0.5V0H81.463L81.4629 0.499916ZM77.537 0.499916V0.999916H75.5741L75.5741 0.5V0H77.537L77.537 0.499916ZM73.6111 0.499916V0.999916H71.6481L71.6481 0.5L71.6481 0.499916L71.6481 0H73.6111L73.6111 0.499916ZM69.6852 0.5L69.6852 0.999916H67.7222V0.5V0.499916V0H69.6852L69.6852 0.499916L69.6852 0.5ZM65.7593 0.5L65.7593 0.999916H63.7963L63.7963 0.5L63.7963 0.499916L63.7963 0H65.7593L65.7593 0.499916L65.7593 0.5ZM61.8333 0.5L61.8333 0.999916H59.8704V0.499916L59.8704 0H61.8333L61.8333 0.499916L61.8333 0.5ZM57.9074 0.5V0.999916H55.9444L55.9444 0.5L55.9444 0.499916L55.9444 0H57.9074V0.499916V0.5ZM53.9815 0.5L53.9815 0.999916H52.0185L52.0185 0.5L52.0185 0.499916L52.0185 0H53.9815L53.9815 0.499916L53.9815 0.5ZM50.0556 0.5L50.0556 0.999916H48.0926V0.5V0.499916V0H50.0556L50.0556 0.499916L50.0556 0.5ZM46.1296 0.5L46.1296 0.999916H44.1667L44.1667 0.5L44.1667 0.499916L44.1667 0H46.1296V0.5ZM42.2037 0.5L42.2037 0.999916H40.2407L40.2407 0.5L40.2407 0.499916L40.2407 0H42.2037L42.2037 0.499916L42.2037 0.5ZM38.2778 0.5V0.999916H36.3148L36.3148 0.5V0H38.2778V0.499916V0.5ZM34.3519 0.499916V0.999916H32.3889L32.3889 0.5V0H34.3519L34.3519 0.499916ZM30.4259 0.499916V0.999916H28.463V0.5H28.463V0H30.4259V0.499916H30.4259ZM26.5 0.499916V0.999916H24.537V0.5H24.5371V0H26.5V0.499916H26.5ZM22.5741 0.499916V0.999916H20.6111V0.5H20.6111V0H22.5741V0.499916H22.5741ZM18.6481 0.499916V0.999916H16.6852V0.5H16.6852V0H18.6482V0.499916H18.6481ZM14.7222 0.499916V0.999916H12.7593V0.5H12.7593V0H14.7223V0.499916H14.7222ZM10.7963 0.499916V0.999916H8.83333V0.5H8.83339V0H10.7963V0.499916H10.7963ZM6.87037 0.499916V0.999916H4.90741V0.5H4.90747V0H6.87043V0.499916H6.87037ZM2.94444 0.499916V0.999916H0.981481V0.5H0.981554V0H2.94451V0.499916H2.94444Z" transform="translate(342 356.438)" stroke="#666666" stroke-dasharray="2 2"/>
<path d="M105.019 0H103.056V0.499916H103.056V0.999916H105.019V0.5H105.019V0ZM101.093 0.5V0.999916H99.1297V0.499916H99.1296V0H101.093V0.5H101.093ZM97.1667 0.5V0.999916H95.2038V0.499916L95.2037 0H97.1667V0.5H97.1667ZM93.2407 0.5L93.2408 0.999916H91.2778V0.499916L91.2778 0H93.2407V0.5ZM89.3148 0.5L89.3149 0.999916H87.3519V0.499916L87.3519 0H89.3148V0.5ZM85.3889 0.5L85.3889 0.999916H83.426V0.499916L83.4259 0H85.3889V0.5ZM81.463 0.5L81.463 0.999916H79.5V0.499916L79.5 0H81.463V0.5ZM77.537 0.5L77.5371 0.999916H75.5741V0.499916L75.5741 0H77.537V0.5ZM73.6111 0.5L73.6111 0.999916H71.6482L71.6482 0.5L71.6482 0.499916L71.6482 0H73.6111V0.5ZM69.6852 0.5L69.6852 0.999916H67.7222L67.7222 0.5L67.7222 0.499916L67.7222 0H69.6852L69.6852 0.499916L69.6852 0.5ZM65.7593 0.5V0.999916H63.7963L63.7963 0.5L63.7963 0.499916L63.7963 0H65.7593V0.499916V0.5ZM61.8333 0.5L61.8333 0.999916H59.8704V0.5V0.499916V0H61.8333V0.5ZM57.9074 0.5L57.9074 0.999916H55.9445L55.9444 0.5L55.9445 0.499916L55.9444 0H57.9074L57.9074 0.499916L57.9074 0.5ZM53.9815 0.5L53.9815 0.999916H52.0185L52.0185 0.5L52.0185 0.499916L52.0185 0H53.9815L53.9815 0.499916L53.9815 0.5ZM50.0556 0.5L50.0556 0.999916H48.0926L48.0926 0.5L48.0926 0.499916L48.0926 0H50.0556L50.0556 0.499916L50.0556 0.5ZM46.1296 0.5V0.999916H44.1667V0.499916L44.1667 0H46.1296V0.499916V0.5ZM42.2037 0.5L42.2037 0.999916H40.2407L40.2407 0.5L40.2407 0.499916L40.2407 0H42.2037L42.2037 0.499916L42.2037 0.5ZM38.2778 0.5L38.2778 0.999916H36.3148V0.499916L36.3148 0H38.2778L38.2778 0.499916L38.2778 0.5ZM34.3518 0.5L34.3519 0.999916H32.3889V0.499916L32.3889 0H34.3518V0.5ZM30.4259 0.5V0.999916H28.463V0.499916H28.4629V0H30.4259V0.5H30.4259ZM26.5 0.5V0.999916H24.537V0.499916H24.537V0H26.5V0.5H26.5ZM22.5741 0.5V0.999916H20.6111V0.499916H20.6111V0H22.574V0.5H22.5741ZM18.6481 0.5V0.999916H16.6852V0.499916H16.6851V0H18.6481V0.5H18.6481ZM14.7222 0.5V0.999916H12.7593V0.499916H12.7592V0H14.7222V0.5H14.7222ZM10.7963 0.5V0.999916H8.83333V0.499916H8.83327V0H10.7962V0.5H10.7963ZM6.87037 0.5V0.999916H4.90741V0.499916H4.90734V0H6.87031V0.5H6.87037ZM2.94444 0.5V0.999916H0.981482V0.499916H0.981408V0H2.94438V0.5H2.94444Z" transform="translate(342 369.594)" stroke="#666666" stroke-dasharray="2 2"/>
<path d="M105.019 0H103.056V0.5H103.055V0.999916H105.018V0.499916H105.019V0ZM101.093 0.499916V0.999916H99.1296V0.5H99.1296V0H101.093V0.499916H101.093ZM97.1666 0.499916V0.999916H95.2037L95.2037 0.5V0H97.1667L97.1666 0.499916ZM93.2407 0.499916V0.999916H91.2777L91.2778 0.5V0H93.2407L93.2407 0.499916ZM89.3148 0.499916V0.999916H87.3518L87.3519 0.5V0H89.3148L89.3148 0.499916ZM85.3889 0.499916V0.999916H83.4259L83.4259 0.5V0H85.3889L85.3889 0.499916ZM81.4629 0.499916V0.999916H79.5L79.5 0.5V0H81.463L81.4629 0.499916ZM77.537 0.499916V0.999916H75.5741L75.5741 0.5V0H77.537L77.537 0.499916ZM73.6111 0.499916V0.999916H71.6481L71.6481 0.5L71.6481 0.499916L71.6481 0H73.6111L73.6111 0.499916ZM69.6852 0.5L69.6852 0.999916H67.7222V0.5V0.499916V0H69.6852L69.6852 0.499916L69.6852 0.5ZM65.7593 0.5L65.7593 0.999916H63.7963L63.7963 0.5L63.7963 0.499916L63.7963 0H65.7593L65.7593 0.499916L65.7593 0.5ZM61.8333 0.5L61.8333 0.999916H59.8704V0.499916L59.8704 0H61.8333L61.8333 0.499916L61.8333 0.5ZM57.9074 0.5V0.999916H55.9444L55.9444 0.5L55.9444 0.499916L55.9444 0H57.9074V0.499916V0.5ZM53.9815 0.5L53.9815 0.999916H52.0185L52.0185 0.5L52.0185 0.499916L52.0185 0H53.9815L53.9815 0.499916L53.9815 0.5ZM50.0556 0.5L50.0556 0.999916H48.0926V0.5V0.499916V0H50.0556L50.0556 0.499916L50.0556 0.5ZM46.1296 0.5L46.1296 0.999916H44.1667L44.1667 0.5L44.1667 0.499916L44.1667 0H46.1296V0.5ZM42.2037 0.5L42.2037 0.999916H40.2407L40.2407 0.5L40.2407 0.499916L40.2407 0H42.2037L42.2037 0.499916L42.2037 0.5ZM38.2778 0.5V0.999916H36.3148L36.3148 0.5V0H38.2778V0.499916V0.5ZM34.3519 0.499916V0.999916H32.3889L32.3889 0.5V0H34.3519L34.3519 0.499916ZM30.4259 0.499916V0.999916H28.463V0.5H28.463V0H30.4259V0.499916H30.4259ZM26.5 0.499916V0.999916H24.537V0.5H24.5371V0H26.5V0.499916H26.5ZM22.5741 0.499916V0.999916H20.6111V0.5H20.6111V0H22.5741V0.499916H22.5741ZM18.6481 0.499916V0.999916H16.6852V0.5H16.6852V0H18.6482V0.499916H18.6481ZM14.7222 0.499916V0.999916H12.7593V0.5H12.7593V0H14.7223V0.499916H14.7222ZM10.7963 0.499916V0.999916H8.83333V0.5H8.83339V0H10.7963V0.499916H10.7963ZM6.87037 0.499916V0.999916H4.90741V0.5H4.90747V0H6.87043V0.499916H6.87037ZM2.94444 0.499916V0.999916H0.981481V0.5H0.981554V0H2.94451V0.499916H2.94444Z" transform="translate(342 382.75)" stroke="#666666" stroke-dasharray="2 2"/>
<path d="M105.019 0H103.056V0.499916H103.056V0.999916H105.019V0.5H105.019V0ZM101.093 0.5V0.999916H99.1297V0.499916H99.1296V0H101.093V0.5H101.093ZM97.1667 0.5V0.999916H95.2038V0.499916L95.2037 0H97.1667V0.5H97.1667ZM93.2407 0.5L93.2408 0.999916H91.2778V0.499916L91.2778 0H93.2407V0.5ZM89.3148 0.5L89.3149 0.999916H87.3519V0.499916L87.3519 0H89.3148V0.5ZM85.3889 0.5L85.3889 0.999916H83.426V0.499916L83.4259 0H85.3889V0.5ZM81.463 0.5L81.463 0.999916H79.5V0.499916L79.5 0H81.463V0.5ZM77.537 0.5L77.5371 0.999916H75.5741V0.499916L75.5741 0H77.537V0.5ZM73.6111 0.5L73.6111 0.999916H71.6482L71.6482 0.5L71.6482 0.499916L71.6482 0H73.6111V0.5ZM69.6852 0.5L69.6852 0.999916H67.7222L67.7222 0.5L67.7222 0.499916L67.7222 0H69.6852L69.6852 0.499916L69.6852 0.5ZM65.7593 0.5V0.999916H63.7963L63.7963 0.5L63.7963 0.499916L63.7963 0H65.7593V0.499916V0.5ZM61.8333 0.5L61.8333 0.999916H59.8704V0.5V0.499916V0H61.8333V0.5ZM57.9074 0.5L57.9074 0.999916H55.9445L55.9444 0.5L55.9445 0.499916L55.9444 0H57.9074L57.9074 0.499916L57.9074 0.5ZM53.9815 0.5L53.9815 0.999916H52.0185L52.0185 0.5L52.0185 0.499916L52.0185 0H53.9815L53.9815 0.499916L53.9815 0.5ZM50.0556 0.5L50.0556 0.999916H48.0926L48.0926 0.5L48.0926 0.499916L48.0926 0H50.0556L50.0556 0.499916L50.0556 0.5ZM46.1296 0.5V0.999916H44.1667V0.499916L44.1667 0H46.1296V0.499916V0.5ZM42.2037 0.5L42.2037 0.999916H40.2407L40.2407 0.5L40.2407 0.499916L40.2407 0H42.2037L42.2037 0.499916L42.2037 0.5ZM38.2778 0.5L38.2778 0.999916H36.3148V0.499916L36.3148 0H38.2778L38.2778 0.499916L38.2778 0.5ZM34.3518 0.5L34.3519 0.999916H32.3889V0.499916L32.3889 0H34.3518V0.5ZM30.4259 0.5V0.999916H28.463V0.499916H28.4629V0H30.4259V0.5H30.4259ZM26.5 0.5V0.999916H24.537V0.499916H24.537V0H26.5V0.5H26.5ZM22.5741 0.5V0.999916H20.6111V0.499916H20.6111V0H22.574V0.5H22.5741ZM18.6481 0.5V0.999916H16.6852V0.499916H16.6851V0H18.6481V0.5H18.6481ZM14.7222 0.5V0.999916H12.7593V0.499916H12.7592V0H14.7222V0.5H14.7222ZM10.7963 0.5V0.999916H8.83333V0.499916H8.83327V0H10.7962V0.5H10.7963ZM6.87037 0.5V0.999916H4.90741V0.499916H4.90734V0H6.87031V0.5H6.87037ZM2.94444 0.5V0.999916H0.981482V0.499916H0.981408V0H2.94438V0.5H2.94444Z" transform="translate(342 395.906)" stroke="#666666" stroke-dasharray="2 2"/>
<path d="M105.019 0H103.056V0.5H103.055V0.999916H105.018V0.499916H105.019V0ZM101.093 0.499916V0.999916H99.1296V0.5H99.1296V0H101.093V0.499916H101.093ZM97.1666 0.499916V0.999916H95.2037L95.2037 0.5V0H97.1667L97.1666 0.499916ZM93.2407 0.499916V0.999916H91.2777L91.2778 0.5V0H93.2407L93.2407 0.499916ZM89.3148 0.499916V0.999916H87.3518L87.3519 0.5V0H89.3148L89.3148 0.499916ZM85.3889 0.499916V0.999916H83.4259L83.4259 0.5V0H85.3889L85.3889 0.499916ZM81.4629 0.499916V0.999916H79.5L79.5 0.5V0H81.463L81.4629 0.499916ZM77.537 0.499916V0.999916H75.5741L75.5741 0.5V0H77.537L77.537 0.499916ZM73.6111 0.499916V0.999916H71.6481L71.6481 0.5L71.6481 0.499916L71.6481 0H73.6111L73.6111 0.499916ZM69.6852 0.5L69.6852 0.999916H67.7222V0.5V0.499916V0H69.6852L69.6852 0.499916L69.6852 0.5ZM65.7593 0.5L65.7593 0.999916H63.7963L63.7963 0.5L63.7963 0.499916L63.7963 0H65.7593L65.7593 0.499916L65.7593 0.5ZM61.8333 0.5L61.8333 0.999916H59.8704V0.499916L59.8704 0H61.8333L61.8333 0.499916L61.8333 0.5ZM57.9074 0.5V0.999916H55.9444L55.9444 0.5L55.9444 0.499916L55.9444 0H57.9074V0.499916V0.5ZM53.9815 0.5L53.9815 0.999916H52.0185L52.0185 0.5L52.0185 0.499916L52.0185 0H53.9815L53.9815 0.499916L53.9815 0.5ZM50.0556 0.5L50.0556 0.999916H48.0926V0.5V0.499916V0H50.0556L50.0556 0.499916L50.0556 0.5ZM46.1296 0.5L46.1296 0.999916H44.1667L44.1667 0.5L44.1667 0.499916L44.1667 0H46.1296V0.5ZM42.2037 0.5L42.2037 0.999916H40.2407L40.2407 0.5L40.2407 0.499916L40.2407 0H42.2037L42.2037 0.499916L42.2037 0.5ZM38.2778 0.5V0.999916H36.3148L36.3148 0.5V0H38.2778V0.499916V0.5ZM34.3519 0.499916V0.999916H32.3889L32.3889 0.5V0H34.3519L34.3519 0.499916ZM30.4259 0.499916V0.999916H28.463V0.5H28.463V0H30.4259V0.499916H30.4259ZM26.5 0.499916V0.999916H24.537V0.5H24.5371V0H26.5V0.499916H26.5ZM22.5741 0.499916V0.999916H20.6111V0.5H20.6111V0H22.5741V0.499916H22.5741ZM18.6481 0.499916V0.999916H16.6852V0.5H16.6852V0H18.6482V0.499916H18.6481ZM14.7222 0.499916V0.999916H12.7593V0.5H12.7593V0H14.7223V0.499916H14.7222ZM10.7963 0.499916V0.999916H8.83333V0.5H8.83339V0H10.7963V0.499916H10.7963ZM6.87037 0.499916V0.999916H4.90741V0.5H4.90747V0H6.87043V0.499916H6.87037ZM2.94444 0.499916V0.999916H0.981481V0.5H0.981554V0H2.94451V0.499916H2.94444Z" transform="translate(342 409.062)" stroke="#666666" stroke-dasharray="2 2"/>
<path d="M105.019 0H103.056V0.5H103.055V0.999916H105.018V0.499916H105.019V0ZM101.093 0.499916V0.999916H99.1296V0.5H99.1296V0H101.093V0.499916H101.093ZM97.1666 0.499916V0.999916H95.2037L95.2037 0.5V0H97.1667L97.1666 0.499916ZM93.2407 0.499916V0.999916H91.2777L91.2778 0.5V0H93.2407L93.2407 0.499916ZM89.3148 0.499916V0.999916H87.3518L87.3519 0.5V0H89.3148L89.3148 0.499916ZM85.3889 0.499916V0.999916H83.4259L83.4259 0.5V0H85.3889L85.3889 0.499916ZM81.4629 0.499916V0.999916H79.5L79.5 0.5V0H81.463L81.4629 0.499916ZM77.537 0.499916V0.999916H75.5741L75.5741 0.5V0H77.537L77.537 0.499916ZM73.6111 0.499916V0.999916H71.6481L71.6481 0.5L71.6481 0.499916L71.6481 0H73.6111L73.6111 0.499916ZM69.6852 0.5L69.6852 0.999916H67.7222V0.5V0.499916V0H69.6852L69.6852 0.499916L69.6852 0.5ZM65.7593 0.5L65.7593 0.999916H63.7963L63.7963 0.5L63.7963 0.499916L63.7963 0H65.7593L65.7593 0.499916L65.7593 0.5ZM61.8333 0.5L61.8333 0.999916H59.8704V0.499916L59.8704 0H61.8333L61.8333 0.499916L61.8333 0.5ZM57.9074 0.5V0.999916H55.9444L55.9444 0.5L55.9444 0.499916L55.9444 0H57.9074V0.499916V0.5ZM53.9815 0.5L53.9815 0.999916H52.0185L52.0185 0.5L52.0185 0.499916L52.0185 0H53.9815L53.9815 0.499916L53.9815 0.5ZM50.0556 0.5L50.0556 0.999916H48.0926V0.5V0.499916V0H50.0556L50.0556 0.499916L50.0556 0.5ZM46.1296 0.5L46.1296 0.999916H44.1667L44.1667 0.5L44.1667 0.499916L44.1667 0H46.1296V0.5ZM42.2037 0.5L42.2037 0.999916H40.2407L40.2407 0.5L40.2407 0.499916L40.2407 0H42.2037L42.2037 0.499916L42.2037 0.5ZM38.2778 0.5V0.999916H36.3148L36.3148 0.5V0H38.2778V0.499916V0.5ZM34.3519 0.499916V0.999916H32.3889L32.3889 0.5V0H34.3519L34.3519 0.499916ZM30.4259 0.499916V0.999916H28.463V0.5H28.463V0H30.4259V0.499916H30.4259ZM26.5 0.499916V0.999916H24.537V0.5H24.5371V0H26.5V0.499916H26.5ZM22.5741 0.499916V0.999916H20.6111V0.5H20.6111V0H22.5741V0.499916H22.5741ZM18.6481 0.499916V0.999916H16.6852V0.5H16.6852V0H18.6482V0.499916H18.6481ZM14.7222 0.499916V0.999916H12.7593V0.5H12.7593V0H14.7223V0.499916H14.7222ZM10.7963 0.499916V0.999916H8.83333V0.5H8.83339V0H10.7963V0.499916H10.7963ZM6.87037 0.499916V0.999916H4.90741V0.5H4.90747V0H6.87043V0.499916H6.87037ZM2.94444 0.499916V0.999916H0.981481V0.5H0.981554V0H2.94451V0.499916H2.94444Z" transform="translate(342 422.219)" stroke="#666666" stroke-dasharray="2 2"/>
<path d="M105.019 0H103.056V0.5H103.055V0.999916H105.018V0.499916H105.019V0ZM101.093 0.499916V0.999916H99.1296V0.5H99.1296V0H101.093V0.499916H101.093ZM97.1666 0.499916V0.999916H95.2037L95.2037 0.5V0H97.1667L97.1666 0.499916ZM93.2407 0.499916V0.999916H91.2777L91.2778 0.5V0H93.2407L93.2407 0.499916ZM89.3148 0.499916V0.999916H87.3518L87.3519 0.5V0H89.3148L89.3148 0.499916ZM85.3889 0.499916V0.999916H83.4259L83.4259 0.5V0H85.3889L85.3889 0.499916ZM81.4629 0.499916V0.999916H79.5L79.5 0.5V0H81.463L81.4629 0.499916ZM77.537 0.499916V0.999916H75.5741L75.5741 0.5V0H77.537L77.537 0.499916ZM73.6111 0.499916V0.999916H71.6481L71.6481 0.5L71.6481 0.499916L71.6481 0H73.6111L73.6111 0.499916ZM69.6852 0.5L69.6852 0.999916H67.7222V0.5V0.499916V0H69.6852L69.6852 0.499916L69.6852 0.5ZM65.7593 0.5L65.7593 0.999916H63.7963L63.7963 0.5L63.7963 0.499916L63.7963 0H65.7593L65.7593 0.499916L65.7593 0.5ZM61.8333 0.5L61.8333 0.999916H59.8704V0.499916L59.8704 0H61.8333L61.8333 0.499916L61.8333 0.5ZM57.9074 0.5V0.999916H55.9444L55.9444 0.5L55.9444 0.499916L55.9444 0H57.9074V0.499916V0.5ZM53.9815 0.5L53.9815 0.999916H52.0185L52.0185 0.5L52.0185 0.499916L52.0185 0H53.9815L53.9815 0.499916L53.9815 0.5ZM50.0556 0.5L50.0556 0.999916H48.0926V0.5V0.499916V0H50.0556L50.0556 0.499916L50.0556 0.5ZM46.1296 0.5L46.1296 0.999916H44.1667L44.1667 0.5L44.1667 0.499916L44.1667 0H46.1296V0.5ZM42.2037 0.5L42.2037 0.999916H40.2407L40.2407 0.5L40.2407 0.499916L40.2407 0H42.2037L42.2037 0.499916L42.2037 0.5ZM38.2778 0.5V0.999916H36.3148L36.3148 0.5V0H38.2778V0.499916V0.5ZM34.3519 0.499916V0.999916H32.3889L32.3889 0.5V0H34.3519L34.3519 0.499916ZM30.4259 0.499916V0.999916H28.463V0.5H28.463V0H30.4259V0.499916H30.4259ZM26.5 0.499916V0.999916H24.537V0.5H24.5371V0H26.5V0.499916H26.5ZM22.5741 0.499916V0.999916H20.6111V0.5H20.6111V0H22.5741V0.499916H22.5741ZM18.6481 0.499916V0.999916H16.6852V0.5H16.6852V0H18.6482V0.499916H18.6481ZM14.7222 0.499916V0.999916H12.7593V0.5H12.7593V0H14.7223V0.499916H14.7222ZM10.7963 0.499916V0.999916H8.83333V0.5H8.83339V0H10.7963V0.499916H10.7963ZM6.87037 0.499916V0.999916H4.90741V0.5H4.90747V0H6.87043V0.499916H6.87037ZM2.94444 0.499916V0.999916H0.981481V0.5H0.981554V0H2.94451V0.499916H2.94444Z" transform="translate(342 435.375)" stroke="#666666" stroke-dasharray="2 2"/>
<path d="M105.019 0H103.056V0.5H103.055V0.999916H105.018V0.499916H105.019V0ZM101.093 0.499916V0.999916H99.1296V0.5H99.1296V0H101.093V0.499916H101.093ZM97.1666 0.499916V0.999916H95.2037L95.2037 0.5V0H97.1667L97.1666 0.499916ZM93.2407 0.499916V0.999916H91.2777L91.2778 0.5V0H93.2407L93.2407 0.499916ZM89.3148 0.499916V0.999916H87.3518L87.3519 0.5V0H89.3148L89.3148 0.499916ZM85.3889 0.499916V0.999916H83.4259L83.4259 0.5V0H85.3889L85.3889 0.499916ZM81.4629 0.499916V0.999916H79.5L79.5 0.5V0H81.463L81.4629 0.499916ZM77.537 0.499916V0.999916H75.5741L75.5741 0.5V0H77.537L77.537 0.499916ZM73.6111 0.499916V0.999916H71.6481L71.6481 0.5L71.6481 0.499916L71.6481 0H73.6111L73.6111 0.499916ZM69.6852 0.5L69.6852 0.999916H67.7222V0.5V0.499916V0H69.6852L69.6852 0.499916L69.6852 0.5ZM65.7593 0.5L65.7593 0.999916H63.7963L63.7963 0.5L63.7963 0.499916L63.7963 0H65.7593L65.7593 0.499916L65.7593 0.5ZM61.8333 0.5L61.8333 0.999916H59.8704V0.499916L59.8704 0H61.8333L61.8333 0.499916L61.8333 0.5ZM57.9074 0.5V0.999916H55.9444L55.9444 0.5L55.9444 0.499916L55.9444 0H57.9074V0.499916V0.5ZM53.9815 0.5L53.9815 0.999916H52.0185L52.0185 0.5L52.0185 0.499916L52.0185 0H53.9815L53.9815 0.499916L53.9815 0.5ZM50.0556 0.5L50.0556 0.999916H48.0926V0.5V0.499916V0H50.0556L50.0556 0.499916L50.0556 0.5ZM46.1296 0.5L46.1296 0.999916H44.1667L44.1667 0.5L44.1667 0.499916L44.1667 0H46.1296V0.5ZM42.2037 0.5L42.2037 0.999916H40.2407L40.2407 0.5L40.2407 0.499916L40.2407 0H42.2037L42.2037 0.499916L42.2037 0.5ZM38.2778 0.5V0.999916H36.3148L36.3148 0.5V0H38.2778V0.499916V0.5ZM34.3519 0.499916V0.999916H32.3889L32.3889 0.5V0H34.3519L34.3519 0.499916ZM30.4259 0.499916V0.999916H28.463V0.5H28.463V0H30.4259V0.499916H30.4259ZM26.5 0.499916V0.999916H24.537V0.5H24.5371V0H26.5V0.499916H26.5ZM22.5741 0.499916V0.999916H20.6111V0.5H20.6111V0H22.5741V0.499916H22.5741ZM18.6481 0.499916V0.999916H16.6852V0.5H16.6852V0H18.6482V0.499916H18.6481ZM14.7222 0.499916V0.999916H12.7593V0.5H12.7593V0H14.7223V0.499916H14.7222ZM10.7963 0.499916V0.999916H8.83333V0.5H8.83339V0H10.7963V0.499916H10.7963ZM6.87037 0.499916V0.999916H4.90741V0.5H4.90747V0H6.87043V0.499916H6.87037ZM2.94444 0.499916V0.999916H0.981481V0.5H0.981554V0H2.94451V0.499916H2.94444Z" transform="translate(342 448.531)" stroke="#666666" stroke-dasharray="2 2"/>
<path d="M105.019 0H103.056V0.5H103.055V0.999916H105.018V0.499916H105.019V0ZM101.093 0.499916V0.999916H99.1296V0.5H99.1296V0H101.093V0.499916H101.093ZM97.1666 0.499916V0.999916H95.2037L95.2037 0.5V0H97.1667L97.1666 0.499916ZM93.2407 0.499916V0.999916H91.2777L91.2778 0.5V0H93.2407L93.2407 0.499916ZM89.3148 0.499916V0.999916H87.3518L87.3519 0.5V0H89.3148L89.3148 0.499916ZM85.3889 0.499916V0.999916H83.4259L83.4259 0.5V0H85.3889L85.3889 0.499916ZM81.4629 0.499916V0.999916H79.5L79.5 0.5V0H81.463L81.4629 0.499916ZM77.537 0.499916V0.999916H75.5741L75.5741 0.5V0H77.537L77.537 0.499916ZM73.6111 0.499916V0.999916H71.6481L71.6481 0.5L71.6481 0.499916L71.6481 0H73.6111L73.6111 0.499916ZM69.6852 0.5L69.6852 0.999916H67.7222V0.5V0.499916V0H69.6852L69.6852 0.499916L69.6852 0.5ZM65.7593 0.5L65.7593 0.999916H63.7963L63.7963 0.5L63.7963 0.499916L63.7963 0H65.7593L65.7593 0.499916L65.7593 0.5ZM61.8333 0.5L61.8333 0.999916H59.8704V0.499916L59.8704 0H61.8333L61.8333 0.499916L61.8333 0.5ZM57.9074 0.5V0.999916H55.9444L55.9444 0.5L55.9444 0.499916L55.9444 0H57.9074V0.499916V0.5ZM53.9815 0.5L53.9815 0.999916H52.0185L52.0185 0.5L52.0185 0.499916L52.0185 0H53.9815L53.9815 0.499916L53.9815 0.5ZM50.0556 0.5L50.0556 0.999916H48.0926V0.5V0.499916V0H50.0556L50.0556 0.499916L50.0556 0.5ZM46.1296 0.5L46.1296 0.999916H44.1667L44.1667 0.5L44.1667 0.499916L44.1667 0H46.1296V0.5ZM42.2037 0.5L42.2037 0.999916H40.2407L40.2407 0.5L40.2407 0.499916L40.2407 0H42.2037L42.2037 0.499916L42.2037 0.5ZM38.2778 0.5V0.999916H36.3148L36.3148 0.5V0H38.2778V0.499916V0.5ZM34.3519 0.499916V0.999916H32.3889L32.3889 0.5V0H34.3519L34.3519 0.499916ZM30.4259 0.499916V0.999916H28.463V0.5H28.463V0H30.4259V0.499916H30.4259ZM26.5 0.499916V0.999916H24.537V0.5H24.5371V0H26.5V0.499916H26.5ZM22.5741 0.499916V0.999916H20.6111V0.5H20.6111V0H22.5741V0.499916H22.5741ZM18.6481 0.499916V0.999916H16.6852V0.5H16.6852V0H18.6482V0.499916H18.6481ZM14.7222 0.499916V0.999916H12.7593V0.5H12.7593V0H14.7223V0.499916H14.7222ZM10.7963 0.499916V0.999916H8.83333V0.5H8.83339V0H10.7963V0.499916H10.7963ZM6.87037 0.499916V0.999916H4.90741V0.5H4.90747V0H6.87043V0.499916H6.87037ZM2.94444 0.499916V0.999916H0.981481V0.5H0.981554V0H2.94451V0.499916H2.94444Z" transform="translate(342 461.688)" stroke="#666666" stroke-dasharray="2 2"/>
<path d="M105.019 0H103.056V0.5H103.055V0.999916H105.018V0.499916H105.019V0ZM101.093 0.499916V0.999916H99.1296V0.5H99.1296V0H101.093V0.499916H101.093ZM97.1666 0.499916V0.999916H95.2037L95.2037 0.5V0H97.1667L97.1666 0.499916ZM93.2407 0.499916V0.999916H91.2777L91.2778 0.5V0H93.2407L93.2407 0.499916ZM89.3148 0.499916V0.999916H87.3518L87.3519 0.5V0H89.3148L89.3148 0.499916ZM85.3889 0.499916V0.999916H83.4259L83.4259 0.5V0H85.3889L85.3889 0.499916ZM81.4629 0.499916V0.999916H79.5L79.5 0.5V0H81.463L81.4629 0.499916ZM77.537 0.499916V0.999916H75.5741L75.5741 0.5V0H77.537L77.537 0.499916ZM73.6111 0.499916V0.999916H71.6481L71.6481 0.5L71.6481 0.499916L71.6481 0H73.6111L73.6111 0.499916ZM69.6852 0.5L69.6852 0.999916H67.7222V0.5V0.499916V0H69.6852L69.6852 0.499916L69.6852 0.5ZM65.7593 0.5L65.7593 0.999916H63.7963L63.7963 0.5L63.7963 0.499916L63.7963 0H65.7593L65.7593 0.499916L65.7593 0.5ZM61.8333 0.5L61.8333 0.999916H59.8704V0.499916L59.8704 0H61.8333L61.8333 0.499916L61.8333 0.5ZM57.9074 0.5V0.999916H55.9444L55.9444 0.5L55.9444 0.499916L55.9444 0H57.9074V0.499916V0.5ZM53.9815 0.5L53.9815 0.999916H52.0185L52.0185 0.5L52.0185 0.499916L52.0185 0H53.9815L53.9815 0.499916L53.9815 0.5ZM50.0556 0.5L50.0556 0.999916H48.0926V0.5V0.499916V0H50.0556L50.0556 0.499916L50.0556 0.5ZM46.1296 0.5L46.1296 0.999916H44.1667L44.1667 0.5L44.1667 0.499916L44.1667 0H46.1296V0.5ZM42.2037 0.5L42.2037 0.999916H40.2407L40.2407 0.5L40.2407 0.499916L40.2407 0H42.2037L42.2037 0.499916L42.2037 0.5ZM38.2778 0.5V0.999916H36.3148L36.3148 0.5V0H38.2778V0.499916V0.5ZM34.3519 0.499916V0.999916H32.3889L32.3889 0.5V0H34.3519L34.3519 0.499916ZM30.4259 0.499916V0.999916H28.463V0.5H28.463V0H30.4259V0.499916H30.4259ZM26.5 0.499916V0.999916H24.537V0.5H24.5371V0H26.5V0.499916H26.5ZM22.5741 0.499916V0.999916H20.6111V0.5H20.6111V0H22.5741V0.499916H22.5741ZM18.6481 0.499916V0.999916H16.6852V0.5H16.6852V0H18.6482V0.499916H18.6481ZM14.7222 0.499916V0.999916H12.7593V0.5H12.7593V0H14.7223V0.499916H14.7222ZM10.7963 0.499916V0.999916H8.83333V0.5H8.83339V0H10.7963V0.499916H10.7963ZM6.87037 0.499916V0.999916H4.90741V0.5H4.90747V0H6.87043V0.499916H6.87037ZM2.94444 0.499916V0.999916H0.981481V0.5H0.981554V0H2.94451V0.499916H2.94444Z" transform="translate(342 474.844)" stroke="#666666" stroke-dasharray="2 2"/>
<path d="M105.019 0H103.056V0.5H103.055V0.999916H105.018V0.499916H105.019V0ZM101.093 0.499916V0.999916H99.1296V0.5H99.1296V0H101.093V0.499916H101.093ZM97.1666 0.499916V0.999916H95.2037L95.2037 0.5V0H97.1667L97.1666 0.499916ZM93.2407 0.499916V0.999916H91.2777L91.2778 0.5V0H93.2407L93.2407 0.499916ZM89.3148 0.499916V0.999916H87.3518L87.3519 0.5V0H89.3148L89.3148 0.499916ZM85.3889 0.499916V0.999916H83.4259L83.4259 0.5V0H85.3889L85.3889 0.499916ZM81.4629 0.499916V0.999916H79.5L79.5 0.5V0H81.463L81.4629 0.499916ZM77.537 0.499916V0.999916H75.5741L75.5741 0.5V0H77.537L77.537 0.499916ZM73.6111 0.499916V0.999916H71.6481L71.6481 0.5L71.6481 0.499916L71.6481 0H73.6111L73.6111 0.499916ZM69.6852 0.5L69.6852 0.999916H67.7222V0.5V0.499916V0H69.6852L69.6852 0.499916L69.6852 0.5ZM65.7593 0.5L65.7593 0.999916H63.7963L63.7963 0.5L63.7963 0.499916L63.7963 0H65.7593L65.7593 0.499916L65.7593 0.5ZM61.8333 0.5L61.8333 0.999916H59.8704V0.499916L59.8704 0H61.8333L61.8333 0.499916L61.8333 0.5ZM57.9074 0.5V0.999916H55.9444L55.9444 0.5L55.9444 0.499916L55.9444 0H57.9074V0.499916V0.5ZM53.9815 0.5L53.9815 0.999916H52.0185L52.0185 0.5L52.0185 0.499916L52.0185 0H53.9815L53.9815 0.499916L53.9815 0.5ZM50.0556 0.5L50.0556 0.999916H48.0926V0.5V0.499916V0H50.0556L50.0556 0.499916L50.0556 0.5ZM46.1296 0.5L46.1296 0.999916H44.1667L44.1667 0.5L44.1667 0.499916L44.1667 0H46.1296V0.5ZM42.2037 0.5L42.2037 0.999916H40.2407L40.2407 0.5L40.2407 0.499916L40.2407 0H42.2037L42.2037 0.499916L42.2037 0.5ZM38.2778 0.5V0.999916H36.3148L36.3148 0.5V0H38.2778V0.499916V0.5ZM34.3519 0.499916V0.999916H32.3889L32.3889 0.5V0H34.3519L34.3519 0.499916ZM30.4259 0.499916V0.999916H28.463V0.5H28.463V0H30.4259V0.499916H30.4259ZM26.5 0.499916V0.999916H24.537V0.5H24.5371V0H26.5V0.499916H26.5ZM22.5741 0.499916V0.999916H20.6111V0.5H20.6111V0H22.5741V0.499916H22.5741ZM18.6481 0.499916V0.999916H16.6852V0.5H16.6852V0H18.6482V0.499916H18.6481ZM14.7222 0.499916V0.999916H12.7593V0.5H12.7593V0H14.7223V0.499916H14.7222ZM10.7963 0.499916V0.999916H8.83333V0.5H8.83339V0H10.7963V0.499916H10.7963ZM6.87037 0.499916V0.999916H4.90741V0.5H4.90747V0H6.87043V0.499916H6.87037ZM2.94444 0.499916V0.999916H0.981481V0.5H0.981554V0H2.94451V0.499916H2.94444Z" transform="translate(342 488)" stroke="#666666" stroke-dasharray="2 2"/>
<path d="M311 0H0V10.9645H311V0Z" transform="translate(339 60) scale(-1 1)" fill="#295968"/>
<path d="M236.674 0H0V10.9645H236.674V0Z" transform="translate(339 73.1573) scale(-1 1)" fill="#295968"/>
<path d="M212.34 0H0V10.9645H212.34V0Z" transform="translate(339 86.3147) scale(-1 1)" fill="#295968"/>
<path d="M179.704 0H0V10.9645H179.704V0Z" transform="translate(339 99.472) scale(-1 1)" fill="#295968"/>
<path d="M179.128 0H0V10.9645H179.128V0Z" transform="translate(339 112.63) scale(-1 1)" fill="#295968"/>
<path d="M166.638 0H0V10.9645H166.638V0Z" transform="translate(339 125.787) scale(-1 1)" fill="#295968"/>
<path d="M165.841 0H0V10.9645H165.841V0Z" transform="translate(339 138.944) scale(-1 1)" fill="#295968"/>
<path d="M162.836 0H0V10.9645H162.836V0Z" transform="translate(339 152.102) scale(-1 1)" fill="#295968"/>
<path d="M162.508 0H0V10.9645H162.508V0Z" transform="translate(339 165.259) scale(-1 1)" fill="#295968"/>
<path d="M160.041 0H0V10.9645H160.041V0Z" transform="translate(339 178.416) scale(-1 1)" fill="#295968"/>
<path d="M156.208 0H0V10.9645H156.208V0Z" transform="translate(339 191.574) scale(-1 1)" fill="#295968"/>
<path d="M127.827 0H0V10.9645H127.827V0Z" transform="translate(339 204.731) scale(-1 1)" fill="#295968"/>
<path d="M124.227 0H0V10.9645H124.227V0Z" transform="translate(339 217.888) scale(-1 1)" fill="#295968"/>
<path d="M123.159 0H0V10.9645H123.159V0Z" transform="translate(339 231.046) scale(-1 1)" fill="#295968"/>
<path d="M122.437 0H0V10.9645H122.437V0Z" transform="translate(339 244.203) scale(-1 1)" fill="#295968"/>
<path d="M121.854 0H0V10.9645H121.854V0Z" transform="translate(339 257.36) scale(-1 1)" fill="#295968"/>
<path d="M111.909 0H0V10.9645H111.909V0Z" transform="translate(339 270.518) scale(-1 1)" fill="#295968"/>
<path d="M111.751 0H0V10.9645H111.751V0Z" transform="translate(339 283.675) scale(-1 1)" fill="#295968"/>
<path d="M110.338 0H0V10.9645H110.338V0Z" transform="translate(339 296.833) scale(-1 1)" fill="#295968"/>
<path d="M109.687 0H0V10.9645H109.687V0Z" transform="translate(339 309.99) scale(-1 1)" fill="#295968"/>
<path d="M109.326 0H0V10.9645H109.326V0Z" transform="translate(339 323.147) scale(-1 1)" fill="#295968"/>
<path d="M104.902 0H0V10.9645H104.902V0Z" transform="translate(339 336.305) scale(-1 1)" fill="#295968"/>
<path d="M103.404 0H0V10.9645H103.404V0Z" transform="translate(339 349.462) scale(-1 1)" fill="#295968"/>
<path d="M103.005 0H0V10.9645H103.005V0Z" transform="translate(339 362.619) scale(-1 1)" fill="#295968"/>
<path d="M98.8389 0H0V10.9645H98.8389V0Z" transform="translate(339 375.777) scale(-1 1)" fill="#295968"/>
<path d="M97.4312 0H0V10.9645H97.4312V0Z" transform="translate(339 388.934) scale(-1 1)" fill="#295968"/>
<path d="M94.956 0H0V10.9645H94.956V0Z" transform="translate(339 402.091) scale(-1 1)" fill="#295968"/>
<path d="M90.4821 0H0V10.9645H90.4821V0Z" transform="translate(339 415.249) scale(-1 1)" fill="#295968"/>
<path d="M87.7712 0H0V10.9645H87.7712V0Z" transform="translate(339 428.406) scale(-1 1)" fill="#295968"/>
<path d="M87.2939 0H0V10.9645H87.2939V0Z" transform="translate(339 441.563) scale(-1 1)" fill="#295968"/>
<path d="M86.7851 0H0V10.9645H86.7851V0Z" transform="translate(339 454.721) scale(-1 1)" fill="#295968"/>
<path d="M86.2456 0H0V10.9645H86.2456V0Z" transform="translate(339 467.878) scale(-1 1)" fill="#295968"/>
<path d="M84.3008 0H0V10.9645H84.3008V0Z" transform="translate(339 481.035) scale(-1 1)" fill="#295968"/>
<text transform="translate(657 276)" fill="#2A2A2A" stroke="#2A2A2A" stroke-width="3" xml:space="preserve" style="white-space: pre" font-family="Atlas Grotesk" font-style="Regular" font-size="18" letter-spacing="0em"><tspan x="0" y="14.616">Two of the </tspan><tspan x="0" y="36.216">three </tspan><tspan x="0" y="57.816">megacities </tspan><tspan x="0" y="79.416">in Africa.</tspan></text>
<text transform="translate(657 276)" fill="white" xml:space="preserve" style="white-space: pre" font-family="Atlas Grotesk" font-style="Regular" font-size="18" letter-spacing="0em"><tspan x="0" y="14.616">Two of the </tspan><tspan x="0" y="36.216">three </tspan><tspan x="0" y="57.816">megacities </tspan><tspan x="0" y="79.416">in Africa.</tspan></text>
<text transform="translate(447)" fill="white" xml:space="preserve" style="white-space: pre" font-family="Atlas Grotesk" font-style="Bold" font-size="18" font-weight="bold" letter-spacing="0em"><tspan x="0" y="14.616">Flights per Day</tspan></text>
<text transform="translate(245)" fill="white" xml:space="preserve" style="white-space: pre" font-family="Atlas Grotesk" font-style="Bold" font-size="18" font-weight="bold" letter-spacing="0em"><tspan x="0" y="14.616">Population</tspan></text>
<text transform="translate(0 30)" fill="#C3C3C3" xml:space="preserve" style="white-space: pre" font-family="Atlas Grotesk" font-style="Medium" font-size="11" font-weight="500" letter-spacing="0em"><tspan x="15.043" y="8.932">37.5M</tspan></text>
<text transform="translate(141 30)" fill="#C3C3C3" xml:space="preserve" style="white-space: pre" font-family="Atlas Grotesk" font-style="Medium" font-size="11" font-weight="500" letter-spacing="0em"><tspan x="8.64795" y="8.932">18.8M People</tspan></text>
<text transform="translate(724 30)" fill="#C3C3C3" xml:space="preserve" style="white-space: pre" font-family="Atlas Grotesk" font-style="Medium" font-size="11" font-weight="500" letter-spacing="0em"><tspan x="4.80615" y="8.932">1,700 flights </tspan><tspan x="17.5732" y="22.132">per day</tspan></text>
<text transform="translate(575 30)" fill="#C3C3C3" xml:space="preserve" style="white-space: pre" font-family="Atlas Grotesk" font-style="Medium" font-size="11" font-weight="500" letter-spacing="0em"><tspan x="2.13623" y="8.932">850 flights</tspan></text>
<text transform="translate(308 30)" fill="#C3C3C3" xml:space="preserve" style="white-space: pre" font-family="Atlas Grotesk" font-style="Medium" font-size="11" font-weight="500" letter-spacing="0em"><tspan x="27.6973" y="8.932">0</tspan></text>
<text transform="translate(420 30)" fill="#C3C3C3" xml:space="preserve" style="white-space: pre" font-family="Atlas Grotesk" font-style="Medium" font-size="11" font-weight="500" letter-spacing="0em"><tspan x="27.6973" y="8.932">0</tspan></text>
<path d="M173.354 0.353553C173.549 0.158291 173.549 -0.158291 173.354 -0.353553L170.172 -3.53553C169.976 -3.7308 169.66 -3.7308 169.464 -3.53553C169.269 -3.34027 169.269 -3.02369 169.464 -2.82843L172.293 0L169.464 2.82843C169.269 3.02369 169.269 3.34027 169.464 3.53553C169.66 3.7308 169.976 3.7308 170.172 3.53553L173.354 0.353553ZM0 0.5H173V-0.5H0V0.5Z" transform="translate(647 289) rotate(180)" fill="white"/>
<path d="M186.354 0.353553C186.549 0.158291 186.549 -0.158291 186.354 -0.353553L183.172 -3.53553C182.976 -3.7308 182.66 -3.7308 182.464 -3.53553C182.269 -3.34027 182.269 -3.02369 182.464 -2.82843L185.293 0L182.464 2.82843C182.269 3.02369 182.269 3.34027 182.464 3.53553C182.66 3.7308 182.976 3.7308 183.172 3.53553L186.354 0.353553ZM0 0.5H186V-0.5H0V0.5Z" transform="translate(647 329) rotate(180)" fill="white"/>
<text transform="translate(353 59)" stroke="#2A2A2A" stroke-width="2" xml:space="preserve" style="white-space: pre" font-family="Atlas Grotesk" font-style="Bold" font-size="13" font-weight="bold" letter-spacing="0em"><tspan x="21.7324" y="235.446">Lagos*</tspan><tspan x="11.4873" y="275.132">Kinshasa</tspan></text>
<text transform="translate(353 59)" stroke="#2A2A2A" stroke-width="2" xml:space="preserve" style="white-space: pre" font-family="Atlas Grotesk" font-style="Regular" font-size="13" letter-spacing="0em"><tspan x="61.6909" y="222.217">&#10;</tspan><tspan x="60.3516" y="235.446">&#10;</tspan><tspan x="62.1099" y="261.903">&#10;</tspan><tspan x="70.5967" y="275.132">*&#10;</tspan></text>
<text transform="translate(353 59)" stroke="#2A2A2A" stroke-width="2" xml:space="preserve" style="white-space: pre" font-family="Atlas Grotesk" font-style="Regular" font-size="13" letter-spacing="0em"><tspan x="26.0234" y="10.556">Tokyo&#10;</tspan><tspan x="27.8071" y="23.7848">Delhi&#10;</tspan><tspan x="14.5659" y="37.0136">Shanghai&#10;</tspan><tspan x="13.2773" y="50.2424">S&#xe3;o Paulo&#10;</tspan><tspan x="7.54541" y="63.4712">Mexico City&#10;</tspan><tspan x="27.4644" y="76.7">Cairo&#10;</tspan><tspan x="18.3428" y="89.9288">Mumbai&#10;</tspan><tspan x="22.3672" y="103.158">Beijing&#10;</tspan><tspan x="24.2842" y="116.386">Dhaka&#10;</tspan><tspan x="24.5698" y="129.615">Osaka&#10;</tspan><tspan x="0.0615234" y="142.844">New York City&#10;</tspan><tspan x="17.5176" y="156.073">Karachi*&#10;</tspan><tspan x="3.20361" y="169.302">Buenos Aires&#10;</tspan><tspan x="7.01221" y="182.53">Chongqing*&#10;</tspan><tspan x="15.9116" y="195.759">Istanbul*&#10;</tspan><tspan x="20.5327" y="208.988">Kolkata&#10;</tspan><tspan x="20.3931" y="222.217">Manila*</tspan><tspan x="1.05176" y="248.674">Rio de Janeiro&#10;</tspan><tspan x="19.9741" y="261.903">Tianjin*</tspan><tspan x="5.27295" y="288.361">Guangzhou*&#10;</tspan><tspan x="6.33936" y="301.59">Los Angeles&#10;</tspan><tspan x="18.2539" y="314.818">Moscow&#10;</tspan><tspan x="10.3003" y="328.047">Shenzhen*&#10;</tspan><tspan x="19.8091" y="341.276">Lahore*&#10;</tspan><tspan x="9.79883" y="354.505">Bangalore*&#10;</tspan><tspan x="25.8647" y="367.734">Paris*&#10;</tspan><tspan x="18.9902" y="380.962">Bogot&#xe1;*&#10;</tspan><tspan x="18.9204" y="394.191">Jakarta*&#10;</tspan><tspan x="15.2959" y="407.42">Chennai*&#10;</tspan><tspan x="25.8394" y="420.649">Lima*&#10;</tspan><tspan x="14.2231" y="433.878">Bangkok*</tspan></text>
<text transform="translate(353 59)" fill="white" xml:space="preserve" style="white-space: pre" font-family="Atlas Grotesk" font-style="Regular" font-size="13" letter-spacing="0em"><tspan x="61.6909" y="222.217">&#10;</tspan><tspan x="60.3516" y="235.446">&#10;</tspan><tspan x="62.1099" y="261.903">&#10;</tspan><tspan x="70.5967" y="275.132">*&#10;</tspan></text>
<text transform="translate(353 59)" fill="white" xml:space="preserve" style="white-space: pre" font-family="Atlas Grotesk" font-style="Bold" font-size="13" font-weight="bold" letter-spacing="0em"><tspan x="21.7324" y="235.446">Lagos*</tspan><tspan x="11.4873" y="275.132">Kinshasa</tspan></text>
<text transform="translate(353 59)" fill="#BEBEBE" xml:space="preserve" style="white-space: pre" font-family="Atlas Grotesk" font-style="Regular" font-size="13" letter-spacing="0em"><tspan x="1.05176" y="248.674">Rio de Janeiro&#10;</tspan><tspan x="19.9741" y="261.903">Tianjin*</tspan></text>
<text transform="translate(353 59)" fill="#BEBEBE" xml:space="preserve" style="white-space: pre" font-family="Atlas Grotesk" font-style="Regular" font-size="13" letter-spacing="0em"><tspan x="26.0234" y="10.556">Tokyo&#10;</tspan><tspan x="27.8071" y="23.7848">Delhi&#10;</tspan><tspan x="14.5659" y="37.0136">Shanghai&#10;</tspan><tspan x="13.2773" y="50.2424">S&#xe3;o Paulo&#10;</tspan><tspan x="7.54541" y="63.4712">Mexico City&#10;</tspan><tspan x="27.4644" y="76.7">Cairo&#10;</tspan><tspan x="18.3428" y="89.9288">Mumbai&#10;</tspan><tspan x="22.3672" y="103.158">Beijing&#10;</tspan><tspan x="24.2842" y="116.386">Dhaka&#10;</tspan><tspan x="24.5698" y="129.615">Osaka&#10;</tspan><tspan x="0.0615234" y="142.844">New York City&#10;</tspan><tspan x="17.5176" y="156.073">Karachi*&#10;</tspan><tspan x="3.20361" y="169.302">Buenos Aires&#10;</tspan><tspan x="7.01221" y="182.53">Chongqing*&#10;</tspan><tspan x="15.9116" y="195.759">Istanbul*&#10;</tspan><tspan x="20.5327" y="208.988">Kolkata&#10;</tspan><tspan x="20.3931" y="222.217">Manila*</tspan><tspan x="5.27295" y="288.361">Guangzhou*&#10;</tspan><tspan x="6.33936" y="301.59">Los Angeles&#10;</tspan><tspan x="18.2539" y="314.818">Moscow&#10;</tspan><tspan x="10.3003" y="328.047">Shenzhen*&#10;</tspan><tspan x="19.8091" y="341.276">Lahore*&#10;</tspan><tspan x="9.79883" y="354.505">Bangalore*&#10;</tspan><tspan x="25.8647" y="367.734">Paris*&#10;</tspan><tspan x="18.9902" y="380.962">Bogot&#xe1;*&#10;</tspan><tspan x="18.9204" y="394.191">Jakarta*&#10;</tspan><tspan x="15.2959" y="407.42">Chennai*&#10;</tspan><tspan x="25.8394" y="420.649">Lima*&#10;</tspan><tspan x="14.2231" y="433.878">Bangkok*</tspan></text>
<path d="M172.091 0H0V10.9391H172.091V0Z" transform="translate(451 61)" fill="#2E6555"/>
<path d="M107.415 0H0V10.9391H107.415V0Z" transform="translate(451 74.127)" fill="#2E6555"/>
<path d="M188.105 0H0V10.9391H188.105V0Z" transform="translate(451 87.2538)" fill="#2E6555"/>
<path d="M129.848 0H0V10.9391H129.848V0Z" transform="translate(451 100.381)" fill="#2E6555"/>
<path d="M102.735 0H0V10.9391H102.735V0Z" transform="translate(451 113.508)" fill="#2E6555"/>
<path d="M34.9749 0H0V10.9391H34.9749V0Z" transform="translate(451 126.635)" fill="#2E6555"/>
<path d="M79.1354 0H0V10.9391H79.1354V0Z" transform="translate(451 139.761)" fill="#2E6555"/>
<path d="M156.198 0H0V10.9391H156.198V0Z" transform="translate(451 152.888)" fill="#2E6555"/>
<path d="M19.973 0H0V10.9391H19.973V0Z" transform="translate(451 166.015)" fill="#2E6555"/>
<path d="M82.7438 0H0V10.9391H82.7438V0Z" transform="translate(451 179.142)" fill="#2E6555"/>
<path d="M312 0H0V10.9391H312V0Z" transform="translate(451 192.269)" fill="#2E6555"/>
<path d="M13.0645 0H0V10.9391H13.0645V0Z" transform="translate(451 205.396)" fill="#2E6555"/>
<path d="M45.7116 0H0V10.9391H45.7116V0Z" transform="translate(451 218.523)" fill="#2E6555"/>
<path d="M67.8937 0H0V10.9391H67.8937V0Z" transform="translate(451 231.65)" fill="#2E6555"/>
<path d="M161.691 0H0V10.9391H161.691V0Z" transform="translate(451 244.777)" fill="#2E6555"/>
<path d="M35.9472 0H0V10.9391H35.9472V0Z" transform="translate(451 257.904)" fill="#2E6555"/>
<path d="M65.3249 0H0V10.9391H65.3249V0Z" transform="translate(451 271.031)" fill="#2E6555"/>
<path d="M15.7947 0H0V10.9391H15.7947V0Z" transform="translate(451 284.157)" fill="#4BE4B6"/>
<path d="M51.1081 0H0V10.9391H51.1081V0Z" transform="translate(451 297.284)" fill="#2E6555"/>
<path d="M42.0102 0H0V10.9391H42.0102V0Z" transform="translate(451 310.411)" fill="#2E6555"/>
<path d="M2.4958 0H0V10.9391H2.4958V0Z" transform="translate(451 323.538)" fill="#4BE4B6"/>
<path d="M114.326 0H0V10.9391H114.326V0Z" transform="translate(451 336.665)" fill="#2E6555"/>
<path d="M189.208 0H0V10.9391H189.208V0Z" transform="translate(451 349.792)" fill="#2E6555"/>
<path d="M154.427 0H0V10.9391H154.427V0Z" transform="translate(451 362.919)" fill="#2E6555"/>
<path d="M85.1973 0H0V10.9391H85.1973V0Z" transform="translate(451 376.046)" fill="#2E6555"/>
<path d="M7.58348 0H0V10.9391H7.58348V0Z" transform="translate(451 389.173)" fill="#2E6555"/>
<path d="M45.606 0H0V10.9391H45.606V0Z" transform="translate(451 402.3)" fill="#2E6555"/>
<path d="M175.307 0H0V10.9391H175.307V0Z" transform="translate(451 415.426)" fill="#2E6555"/>
<path d="M64.914 0H0V10.9391H64.914V0Z" transform="translate(451 428.553)" fill="#2E6555"/>
<path d="M137.199 0H0V10.9391H137.199V0Z" transform="translate(451 441.68)" fill="#2E6555"/>
<path d="M37.1986 0H0V10.9391H37.1986V0Z" transform="translate(451 454.807)" fill="#2E6555"/>
<path d="M41.8563 0H0V10.9391H41.8563V0Z" transform="translate(451 467.934)" fill="#2E6555"/>
<path d="M86.8199 0H0V10.9391H86.8199V0Z" transform="translate(451 481.061)" fill="#2E6555"/>
</svg>
