<svg width="550" height="523" viewBox="0 0 550 523" fill="none" xmlns="http://www.w3.org/2000/svg">
<g id="Frame 2.1">
<rect width="550" height="514" fill="#2A2A2A"/>
<line id="Line" y1="-0.5" x2="452" y2="-0.5" transform="translate(529 47) rotate(90)" stroke="#5E5E5E" stroke-dasharray="3 1"/>
<line id="Line_2" y1="-0.5" x2="452" y2="-0.5" transform="translate(423 47) rotate(90)" stroke="#5E5E5E" stroke-dasharray="3 1"/>
<line id="Line_3" y1="-0.5" x2="452" y2="-0.5" transform="translate(327 47) rotate(90)" stroke="#5E5E5E"/>
<g id="lines">
<line id="Line_4" y1="-0.5" x2="98" y2="-0.5" transform="translate(314 66) rotate(180)" stroke="#A3A3A3" stroke-dasharray="1 2"/>
<line id="Line_5" y1="-0.5" x2="98" y2="-0.5" transform="translate(314 92) rotate(180)" stroke="#A3A3A3" stroke-dasharray="1 2"/>
<line id="Line_6" y1="-0.5" x2="98" y2="-0.5" transform="translate(314 79) rotate(180)" stroke="#A3A3A3" stroke-dasharray="1 2"/>
<line id="Line_7" y1="-0.5" x2="98" y2="-0.5" transform="translate(314 105) rotate(180)" stroke="#A3A3A3" stroke-dasharray="1 2"/>
<line id="Line_8" y1="-0.5" x2="98" y2="-0.5" transform="translate(314 131) rotate(180)" stroke="#A3A3A3" stroke-dasharray="1 2"/>
<line id="Line_9" y1="-0.5" x2="98" y2="-0.5" transform="translate(314 118) rotate(180)" stroke="#A3A3A3" stroke-dasharray="1 2"/>
<line id="Line_10" y1="-0.5" x2="98" y2="-0.5" transform="translate(314 145) rotate(180)" stroke="#A3A3A3" stroke-dasharray="1 2"/>
<line id="Line_11" y1="-0.5" x2="98" y2="-0.5" transform="translate(314 171) rotate(180)" stroke="#A3A3A3" stroke-dasharray="1 2"/>
<line id="Line_12" y1="-0.5" x2="98" y2="-0.5" transform="translate(314 158) rotate(180)" stroke="#A3A3A3" stroke-dasharray="1 2"/>
<line id="Line_13" y1="-0.5" x2="98" y2="-0.5" transform="translate(314 184) rotate(180)" stroke="#A3A3A3" stroke-dasharray="1 2"/>
<line id="Line_14" y1="-0.5" x2="98" y2="-0.5" transform="translate(314 210) rotate(180)" stroke="#A3A3A3" stroke-dasharray="1 2"/>
<line id="Line_15" y1="-0.5" x2="98" y2="-0.5" transform="translate(314 197) rotate(180)" stroke="#A3A3A3" stroke-dasharray="1 2"/>
<line id="Line_16" y1="-0.5" x2="98" y2="-0.5" transform="translate(314 224) rotate(180)" stroke="#A3A3A3" stroke-dasharray="1 2"/>
<line id="Line_17" y1="-0.5" x2="98" y2="-0.5" transform="translate(314 250) rotate(180)" stroke="#A3A3A3" stroke-dasharray="1 2"/>
<line id="Line_18" y1="-0.5" x2="98" y2="-0.5" transform="translate(314 237) rotate(180)" stroke="#A3A3A3" stroke-dasharray="1 2"/>
<line id="Line_19" y1="-0.5" x2="98" y2="-0.5" transform="translate(314 263) rotate(180)" stroke="#A3A3A3" stroke-dasharray="1 2"/>
<line id="Line_20" y1="-0.5" x2="98" y2="-0.5" transform="translate(314 289) rotate(180)" stroke="#A3A3A3" stroke-dasharray="1 2"/>
<line id="Line_21" y1="-0.5" x2="98" y2="-0.5" transform="translate(314 276) rotate(180)" stroke="#A3A3A3" stroke-dasharray="1 2"/>
<line id="Line_22" y1="-0.5" x2="98" y2="-0.5" transform="translate(314 304) rotate(180)" stroke="#A3A3A3" stroke-dasharray="1 2"/>
<line id="Line_23" y1="-0.5" x2="98" y2="-0.5" transform="translate(314 330) rotate(180)" stroke="#A3A3A3" stroke-dasharray="1 2"/>
<line id="Line_24" y1="-0.5" x2="98" y2="-0.5" transform="translate(314 317) rotate(180)" stroke="#A3A3A3" stroke-dasharray="1 2"/>
<line id="Line_25" y1="-0.5" x2="98" y2="-0.5" transform="translate(314 343) rotate(180)" stroke="#A3A3A3" stroke-dasharray="1 2"/>
<line id="Line_26" y1="-0.5" x2="98" y2="-0.5" transform="translate(314 369) rotate(180)" stroke="#A3A3A3" stroke-dasharray="1 2"/>
<line id="Line_27" y1="-0.5" x2="98" y2="-0.5" transform="translate(314 356) rotate(180)" stroke="#A3A3A3" stroke-dasharray="1 2"/>
<line id="Line_28" y1="-0.5" x2="98" y2="-0.5" transform="translate(314 409) rotate(180)" stroke="#A3A3A3" stroke-dasharray="1 2"/>
<line id="Line_29" y1="-0.5" x2="98" y2="-0.5" transform="translate(314 396) rotate(180)" stroke="#A3A3A3" stroke-dasharray="1 2"/>
<line id="Line_30" y1="-0.5" x2="98" y2="-0.5" transform="translate(314 422) rotate(180)" stroke="#A3A3A3" stroke-dasharray="1 2"/>
<line id="Line_31" y1="-0.5" x2="98" y2="-0.5" transform="translate(314 448) rotate(180)" stroke="#A3A3A3" stroke-dasharray="1 2"/>
<line id="Line_32" y1="-0.5" x2="98" y2="-0.5" transform="translate(314 435) rotate(180)" stroke="#A3A3A3" stroke-dasharray="1 2"/>
<line id="Line_33" y1="-0.5" x2="98" y2="-0.5" transform="translate(314 462) rotate(180)" stroke="#A3A3A3" stroke-dasharray="1 2"/>
<line id="Line_34" y1="-0.5" x2="98" y2="-0.5" transform="translate(314 488) rotate(180)" stroke="#A3A3A3" stroke-dasharray="1 2"/>
<line id="Line_35" y1="-0.5" x2="98" y2="-0.5" transform="translate(314 475) rotate(180)" stroke="#A3A3A3" stroke-dasharray="1 2"/>
</g>
<line id="Line_36" y1="-0.5" x2="452" y2="-0.5" transform="translate(116 47) rotate(90)" stroke="#5E5E5E" stroke-dasharray="3 1"/>
<line id="Line_37" y1="-0.5" x2="452" y2="-0.5" transform="translate(14 47) rotate(90)" stroke="#5E5E5E" stroke-dasharray="3 1"/>
<line id="Line_38" y1="-0.5" x2="452" y2="-0.5" transform="translate(202 47) rotate(90)" stroke="#5E5E5E"/>
<g id="Group">
<path id="Vector" d="M186 0H0V10.9645H186V0Z" transform="translate(202 60) scale(-1 1)" fill="#4490A7"/>
<path id="Vector_2" d="M141.548 0H0V10.9645H141.548V0Z" transform="translate(202 73.1573) scale(-1 1)" fill="#4490A7"/>
<path id="Vector_3" d="M126.995 0H0V10.9645H126.995V0Z" transform="translate(202 86.3147) scale(-1 1)" fill="#4490A7"/>
<path id="Vector_4" d="M107.476 0H0V10.9645H107.476V0Z" transform="translate(202 99.472) scale(-1 1)" fill="#4490A7"/>
<path id="Vector_5" d="M107.131 0H0V10.9645H107.131V0Z" transform="translate(202 112.629) scale(-1 1)" fill="#4490A7"/>
<path id="Vector_6" d="M99.6612 0H0V10.9645H99.6612V0Z" transform="translate(202 125.787) scale(-1 1)" fill="#4490A7"/>
<path id="Vector_7" d="M99.1846 0H0V10.9645H99.1846V0Z" transform="translate(202 138.944) scale(-1 1)" fill="#4490A7"/>
<path id="Vector_8" d="M97.3876 0H0V10.9645H97.3876V0Z" transform="translate(202 152.102) scale(-1 1)" fill="#4490A7"/>
<path id="Vector_9" d="M97.191 0H0V10.9645H97.191V0Z" transform="translate(202 165.259) scale(-1 1)" fill="#4490A7"/>
<path id="Vector_10" d="M95.7157 0H0V10.9645H95.7157V0Z" transform="translate(202 178.416) scale(-1 1)" fill="#4490A7"/>
<path id="Vector_11" d="M93.4232 0H0V10.9645H93.4232V0Z" transform="translate(202 191.574) scale(-1 1)" fill="#4490A7"/>
<path id="Vector_12" d="M76.4496 0H0V10.9645H76.4496V0Z" transform="translate(202 204.731) scale(-1 1)" fill="#4490A7"/>
<path id="Vector_13" d="M74.2966 0H0V10.9645H74.2966V0Z" transform="translate(202 217.888) scale(-1 1)" fill="#4490A7"/>
<path id="Vector_14" d="M73.6578 0H0V10.9645H73.6578V0Z" transform="translate(202 231.046) scale(-1 1)" fill="#4490A7"/>
<path id="Vector_15" d="M73.2259 0H0V10.9645H73.2259V0Z" transform="translate(202 244.203) scale(-1 1)" fill="#4490A7"/>
<path id="Vector_16" d="M72.8774 0H0V10.9645H72.8774V0Z" transform="translate(202 257.36) scale(-1 1)" fill="#4490A7"/>
<path id="Vector_17" d="M66.9298 0H0V10.9645H66.9298V0Z" transform="translate(202 270.518) scale(-1 1)" fill="#4490A7"/>
<path id="Vector_18" d="M66.835 0H0V10.9645H66.835V0Z" transform="translate(202 283.675) scale(-1 1)" fill="#4490A7"/>
<path id="Vector_19" d="M65.9901 0H0V10.9645H65.9901V0Z" transform="translate(202 296.833) scale(-1 1)" fill="#4490A7"/>
<path id="Vector_20" d="M65.6009 0H0V10.9645H65.6009V0Z" transform="translate(202 309.99) scale(-1 1)" fill="#4490A7"/>
<path id="Vector_21" d="M65.3849 0H0V10.9645H65.3849V0Z" transform="translate(202 323.147) scale(-1 1)" fill="#4490A7"/>
<path id="Vector_22" d="M62.739 0H0V10.9645H62.739V0Z" transform="translate(202 336.305) scale(-1 1)" fill="#4490A7"/>
<path id="Vector_23" d="M61.843 0H0V10.9645H61.843V0Z" transform="translate(202 349.462) scale(-1 1)" fill="#4490A7"/>
<path id="Vector_24" d="M61.6042 0H0V10.9645H61.6042V0Z" transform="translate(202 362.619) scale(-1 1)" fill="#4490A7"/>
<path id="Vector_25" d="M59.1127 0H0V10.9645H59.1127V0Z" transform="translate(202 375.777) scale(-1 1)" fill="#4490A7"/>
<path id="Vector_26" d="M58.2707 0H0V10.9645H58.2707V0Z" transform="translate(202 388.934) scale(-1 1)" fill="#4490A7"/>
<path id="Vector_27" d="M56.7904 0H0V10.9645H56.7904V0Z" transform="translate(202 402.091) scale(-1 1)" fill="#4490A7"/>
<path id="Vector_28" d="M54.1147 0H0V10.9645H54.1147V0Z" transform="translate(202 415.249) scale(-1 1)" fill="#4490A7"/>
<path id="Vector_29" d="M52.4934 0H0V10.9645H52.4934V0Z" transform="translate(202 428.406) scale(-1 1)" fill="#4490A7"/>
<path id="Vector_30" d="M52.208 0H0V10.9645H52.208V0Z" transform="translate(202 441.563) scale(-1 1)" fill="#4490A7"/>
<path id="Vector_31" d="M51.9037 0H0V10.9645H51.9037V0Z" transform="translate(202 454.721) scale(-1 1)" fill="#4490A7"/>
<path id="Vector_32" d="M51.581 0H0V10.9645H51.581V0Z" transform="translate(202 467.878) scale(-1 1)" fill="#4490A7"/>
<path id="Vector_33" d="M50.4179 0H0V10.9645H50.4179V0Z" transform="translate(202 481.035) scale(-1 1)" fill="#4490A7"/>
</g>
<text id="Two of the three megacities in Africa." transform="translate(439 263)" fill="white" xml:space="preserve" style="white-space: pre" font-family="Atlas Grotesk" font-style="Regular" font-size="18" letter-spacing="0em"><tspan x="0" y="14.616">Two of the </tspan><tspan x="0" y="36.216">three </tspan><tspan x="0" y="57.816">megacities </tspan><tspan x="0" y="79.416">in Africa.</tspan></text>
<text id="Flights per Day" transform="translate(325 6)" fill="white" xml:space="preserve" style="white-space: pre" font-family="Atlas Grotesk" font-style="Bold" font-size="18" font-weight="bold" letter-spacing="0em"><tspan x="0" y="14.616">Flights per Day</tspan></text>
<text id="Population" transform="translate(111 4)" fill="white" xml:space="preserve" style="white-space: pre" font-family="Atlas Grotesk" font-style="Bold" font-size="18" font-weight="bold" letter-spacing="0em"><tspan x="0" y="14.616">Population</tspan></text>
<text id="37.5M People" transform="translate(11 17)" fill="#C3C3C3" xml:space="preserve" style="white-space: pre" font-family="Atlas Grotesk" font-style="Medium" font-size="11" font-weight="500" letter-spacing="0em"><tspan x="0" y="8.932">37.5M </tspan><tspan x="0" y="22.132">People</tspan></text>
<text id="18.8M" transform="translate(100 30)" fill="#C3C3C3" xml:space="preserve" style="white-space: pre" font-family="Atlas Grotesk" font-style="Medium" font-size="11" font-weight="500" letter-spacing="0em"><tspan x="0" y="8.932">18.8M</tspan></text>
<text id="1,700 flights per day" transform="translate(464 30)" fill="#C3C3C3" xml:space="preserve" style="white-space: pre" font-family="Atlas Grotesk" font-style="Medium" font-size="11" font-weight="500" letter-spacing="0em"><tspan x="9.6123" y="8.932">1,700 flights </tspan><tspan x="35.1465" y="22.132">per day</tspan></text>
<text id="850 flights" transform="translate(391 30)" fill="#C3C3C3" xml:space="preserve" style="white-space: pre" font-family="Atlas Grotesk" font-style="Medium" font-size="11" font-weight="500" letter-spacing="0em"><tspan x="2.13623" y="8.932">850 flights</tspan></text>
<text id="0" transform="translate(171 30)" fill="#C3C3C3" xml:space="preserve" style="white-space: pre" font-family="Atlas Grotesk" font-style="Medium" font-size="11" font-weight="500" letter-spacing="0em"><tspan x="27.6973" y="8.932">0</tspan></text>
<text id="0_2" transform="translate(296 30)" fill="#C3C3C3" xml:space="preserve" style="white-space: pre" font-family="Atlas Grotesk" font-style="Medium" font-size="11" font-weight="500" letter-spacing="0em"><tspan x="27.6973" y="8.932">0</tspan></text>
<path id="Arrow 4" d="M84.9933 0.353553C85.1886 0.158291 85.1886 -0.158291 84.9933 -0.353553L81.8114 -3.53553C81.6161 -3.7308 81.2995 -3.7308 81.1043 -3.53553C80.909 -3.34027 80.909 -3.02369 81.1043 -2.82843L83.9327 0L81.1043 2.82843C80.909 3.02369 80.909 3.34027 81.1043 3.53553C81.2995 3.7308 81.6161 3.7308 81.8114 3.53553L84.9933 0.353553ZM0 0.5H84.6398V-0.5H0V0.5Z" transform="translate(428 289) rotate(180)" fill="white"/>
<path id="Arrow 4.1" d="M91.3536 0.353553C91.5488 0.158291 91.5488 -0.158291 91.3536 -0.353553L88.1716 -3.53553C87.9763 -3.7308 87.6597 -3.7308 87.4645 -3.53553C87.2692 -3.34027 87.2692 -3.02369 87.4645 -2.82843L90.2929 0L87.4645 2.82843C87.2692 3.02369 87.2692 3.34027 87.4645 3.53553C87.6597 3.7308 87.9763 3.7308 88.1716 3.53553L91.3536 0.353553ZM0 0.5H91V-0.5H0V0.5Z" transform="translate(428 329) rotate(180)" fill="white"/>
<g id="Tokyo Delhi Shanghai S&#195;&#163;o Paulo Mexico City Cairo Mumbai Beijing Dhaka Osaka New York City Karachi* Buenos Aires Chongqing* Istanbul* Kolkata Manila* Lagos* Rio de Janeiro Tianjin* Kinshasa* Guangzhou* Los Angeles Moscow Shenzhen* Lahore* Bangalore* Paris* Bogot&#195;&#161;* Jakarta* Chennai* Lima* Bangkok*" transform="translate(223 59)">
<text stroke="#2A2A2A" stroke-width="2" xml:space="preserve" style="white-space: pre" font-family="Atlas Grotesk" font-style="Bold" font-size="13" font-weight="bold" letter-spacing="0em"><tspan x="21.7324" y="235.446">Lagos*</tspan><tspan x="11.4873" y="275.132">Kinshasa</tspan></text>
<text stroke="#2A2A2A" stroke-width="2" xml:space="preserve" style="white-space: pre" font-family="Atlas Grotesk" font-style="Regular" font-size="13" letter-spacing="0em"><tspan x="61.6909" y="222.217">&#10;</tspan><tspan x="60.3516" y="235.446">&#10;</tspan><tspan x="62.1099" y="261.903">&#10;</tspan><tspan x="70.5967" y="275.132">*&#10;</tspan></text>
<text stroke="#2A2A2A" stroke-width="2" xml:space="preserve" style="white-space: pre" font-family="Atlas Grotesk" font-style="Regular" font-size="13" letter-spacing="0em"><tspan x="26.0234" y="10.556">Tokyo&#10;</tspan><tspan x="27.8071" y="23.7848">Delhi&#10;</tspan><tspan x="14.5659" y="37.0136">Shanghai&#10;</tspan><tspan x="13.2773" y="50.2424">S&#xe3;o Paulo&#10;</tspan><tspan x="7.54541" y="63.4712">Mexico City&#10;</tspan><tspan x="27.4644" y="76.7">Cairo&#10;</tspan><tspan x="18.3428" y="89.9288">Mumbai&#10;</tspan><tspan x="22.3672" y="103.158">Beijing&#10;</tspan><tspan x="24.2842" y="116.386">Dhaka&#10;</tspan><tspan x="24.5698" y="129.615">Osaka&#10;</tspan><tspan x="0.0615234" y="142.844">New York City&#10;</tspan><tspan x="17.5176" y="156.073">Karachi*&#10;</tspan><tspan x="3.20361" y="169.302">Buenos Aires&#10;</tspan><tspan x="7.01221" y="182.53">Chongqing*&#10;</tspan><tspan x="15.9116" y="195.759">Istanbul*&#10;</tspan><tspan x="20.5327" y="208.988">Kolkata&#10;</tspan><tspan x="20.3931" y="222.217">Manila*</tspan><tspan x="1.05176" y="248.674">Rio de Janeiro&#10;</tspan><tspan x="19.9741" y="261.903">Tianjin*</tspan><tspan x="5.27295" y="288.361">Guangzhou*&#10;</tspan><tspan x="6.33936" y="301.59">Los Angeles&#10;</tspan><tspan x="18.2539" y="314.818">Moscow&#10;</tspan><tspan x="10.3003" y="328.047">Shenzhen*&#10;</tspan><tspan x="19.8091" y="341.276">Lahore*&#10;</tspan><tspan x="9.79883" y="354.505">Bangalore*&#10;</tspan><tspan x="25.8647" y="367.734">Paris*&#10;</tspan><tspan x="18.9902" y="380.962">Bogot&#xe1;*&#10;</tspan><tspan x="18.9204" y="394.191">Jakarta*&#10;</tspan><tspan x="15.2959" y="407.42">Chennai*&#10;</tspan><tspan x="25.8394" y="420.649">Lima*&#10;</tspan><tspan x="14.2231" y="433.878">Bangkok*</tspan></text>
</g>
<g id="Tokyo Delhi Shanghai S&#195;&#163;o Paulo Mexico City Cairo Mumbai Beijing Dhaka Osaka New York City Karachi* Buenos Aires Chongqing* Istanbul* Kolkata Manila* Lagos* Rio de Janeiro Tianjin* Kinshasa* Guangzhou* Los Angeles Moscow Shenzhen* Lahore* Bangalore* Paris* Bogot&#195;&#161;* Jakarta* Chennai* Lima* Bangkok*_2" transform="translate(223 86)">
<text fill="white" xml:space="preserve" style="white-space: pre" font-family="Atlas Grotesk" font-style="Regular" font-size="13" letter-spacing="0em"><tspan x="61.6909" y="222.217">&#10;</tspan><tspan x="60.3516" y="235.446">&#10;</tspan><tspan x="62.1099" y="261.903">&#10;</tspan><tspan x="70.5967" y="275.132">*&#10;</tspan></text>
<text fill="white" xml:space="preserve" style="white-space: pre" font-family="Atlas Grotesk" font-style="Bold" font-size="13" font-weight="bold" letter-spacing="0em"><tspan x="21.7324" y="235.446">Lagos*</tspan><tspan x="11.4873" y="275.132">Kinshasa</tspan></text>
<text fill="#BEBEBE" xml:space="preserve" style="white-space: pre" font-family="Atlas Grotesk" font-style="Regular" font-size="13" letter-spacing="0em"><tspan x="1.05176" y="248.674">Rio de Janeiro&#10;</tspan><tspan x="19.9741" y="261.903">Tianjin*</tspan></text>
<text fill="#BEBEBE" xml:space="preserve" style="white-space: pre" font-family="Atlas Grotesk" font-style="Regular" font-size="13" letter-spacing="0em"><tspan x="26.0234" y="10.556">Tokyo&#10;</tspan><tspan x="27.8071" y="23.7848">Delhi&#10;</tspan><tspan x="14.5659" y="37.0136">Shanghai&#10;</tspan><tspan x="13.2773" y="50.2424">S&#xe3;o Paulo&#10;</tspan><tspan x="7.54541" y="63.4712">Mexico City&#10;</tspan><tspan x="27.4644" y="76.7">Cairo&#10;</tspan><tspan x="18.3428" y="89.9288">Mumbai&#10;</tspan><tspan x="22.3672" y="103.158">Beijing&#10;</tspan><tspan x="24.2842" y="116.386">Dhaka&#10;</tspan><tspan x="24.5698" y="129.615">Osaka&#10;</tspan><tspan x="0.0615234" y="142.844">New York City&#10;</tspan><tspan x="17.5176" y="156.073">Karachi*&#10;</tspan><tspan x="3.20361" y="169.302">Buenos Aires&#10;</tspan><tspan x="7.01221" y="182.53">Chongqing*&#10;</tspan><tspan x="15.9116" y="195.759">Istanbul*&#10;</tspan><tspan x="20.5327" y="208.988">Kolkata&#10;</tspan><tspan x="20.3931" y="222.217">Manila*</tspan><tspan x="5.27295" y="288.361">Guangzhou*&#10;</tspan><tspan x="6.33936" y="301.59">Los Angeles&#10;</tspan><tspan x="18.2539" y="314.818">Moscow&#10;</tspan><tspan x="10.3003" y="328.047">Shenzhen*&#10;</tspan><tspan x="19.8091" y="341.276">Lahore*&#10;</tspan><tspan x="9.79883" y="354.505">Bangalore*&#10;</tspan><tspan x="25.8647" y="367.734">Paris*&#10;</tspan><tspan x="18.9902" y="380.962">Bogot&#xe1;*&#10;</tspan><tspan x="18.9204" y="394.191">Jakarta*&#10;</tspan><tspan x="15.2959" y="407.42">Chennai*&#10;</tspan><tspan x="25.8394" y="420.649">Lima*&#10;</tspan><tspan x="14.2231" y="433.878">Bangkok*</tspan></text>
</g>
<g id="Group_2">
<g id="Group_3">
<path id="Vector_34" d="M110.315 0H0V10.9391H110.315V0Z" transform="translate(329 61)" fill="#41997E"/>
<path id="Vector_35" d="M68.8555 0H0V10.9391H68.8555V0Z" transform="translate(329 74.1269)" fill="#41997E"/>
<path id="Vector_36" d="M120.58 0H0V10.9391H120.58V0Z" transform="translate(329 87.2538)" fill="#41997E"/>
<path id="Vector_37" d="M83.2357 0H0V10.9391H83.2357V0Z" transform="translate(329 100.381)" fill="#41997E"/>
<path id="Vector_38" d="M65.8557 0H0V10.9391H65.8557V0Z" transform="translate(329 113.508)" fill="#41997E"/>
<path id="Vector_39" d="M22.4198 0H0V10.9391H22.4198V0Z" transform="translate(329 126.635)" fill="#41997E"/>
<path id="Vector_40" d="M50.7278 0H0V10.9391H50.7278V0Z" transform="translate(329 139.761)" fill="#41997E"/>
<path id="Vector_41" d="M100.127 0H0V10.9391H100.127V0Z" transform="translate(329 152.888)" fill="#41997E"/>
<path id="Vector_42" d="M12.8032 0H0V10.9391H12.8032V0Z" transform="translate(329 166.015)" fill="#41997E"/>
<path id="Vector_43" d="M53.0409 0H0V10.9391H53.0409V0Z" transform="translate(329 179.142)" fill="#41997E"/>
<path id="Vector_44" d="M200 0H0V10.9391H200V0Z" transform="translate(329 192.269)" fill="#41997E"/>
<path id="Vector_45" d="M8.37467 0H0V10.9391H8.37467V0Z" transform="translate(329 205.396)" fill="#41997E"/>
<path id="Vector_46" d="M29.3023 0H0V10.9391H29.3023V0Z" transform="translate(329 218.523)" fill="#41997E"/>
<path id="Vector_47" d="M43.5216 0H0V10.9391H43.5216V0Z" transform="translate(329 231.65)" fill="#41997E"/>
<path id="Vector_48" d="M103.648 0H0V10.9391H103.648V0Z" transform="translate(329 244.777)" fill="#41997E"/>
<path id="Vector_49" d="M23.0431 0H0V10.9391H23.0431V0Z" transform="translate(329 257.904)" fill="#41997E"/>
<path id="Vector_50" d="M41.875 0H0V10.9391H41.875V0Z" transform="translate(329 271.031)" fill="#41997E"/>
<path id="Vector_51" d="M10.1248 0H0V10.9391H10.1248V0Z" transform="translate(329 284.157)" fill="#00FFB3"/>
<path id="Vector_52" d="M32.7616 0H0V10.9391H32.7616V0Z" transform="translate(329 297.284)" fill="#41997E"/>
<path id="Vector_53" d="M26.9296 0H0V10.9391H26.9296V0Z" transform="translate(329 310.411)" fill="#41997E"/>
<path id="Vector_54" d="M1.59987 0H0V10.9391H1.59987V0Z" transform="translate(329 323.538)" fill="#00FFB3"/>
<path id="Vector_55" d="M73.2856 0H0V10.9391H73.2856V0Z" transform="translate(329 336.665)" fill="#41997E"/>
<path id="Vector_56" d="M121.287 0H0V10.9391H121.287V0Z" transform="translate(329 349.792)" fill="#41997E"/>
<path id="Vector_57" d="M98.9919 0H0V10.9391H98.9919V0Z" transform="translate(329 362.919)" fill="#41997E"/>
<path id="Vector_58" d="M54.6137 0H0V10.9391H54.6137V0Z" transform="translate(329 376.046)" fill="#41997E"/>
<path id="Vector_59" d="M4.8612 0H0V10.9391H4.8612V0Z" transform="translate(329 389.173)" fill="#41997E"/>
<path id="Vector_60" d="M29.2346 0H0V10.9391H29.2346V0Z" transform="translate(329 402.3)" fill="#41997E"/>
<path id="Vector_61" d="M112.376 0H0V10.9391H112.376V0Z" transform="translate(329 415.426)" fill="#41997E"/>
<path id="Vector_62" d="M41.6115 0H0V10.9391H41.6115V0Z" transform="translate(329 428.553)" fill="#41997E"/>
<path id="Vector_63" d="M87.9482 0H0V10.9391H87.9482V0Z" transform="translate(329 441.68)" fill="#41997E"/>
<path id="Vector_64" d="M23.8453 0H0V10.9391H23.8453V0Z" transform="translate(329 454.807)" fill="#41997E"/>
<path id="Vector_65" d="M26.8309 0H0V10.9391H26.8309V0Z" transform="translate(329 467.934)" fill="#41997E"/>
<path id="Vector_66" d="M55.6538 0H0V10.9391H55.6538V0Z" transform="translate(329 481.061)" fill="#41997E"/>
</g>
</g>
</g>
</svg>
