<svg width="636" height="486" viewBox="0 0 636 486" fill="none" xmlns="http://www.w3.org/2000/svg">
<g id="Frame 2">
<rect id="Rectangle" width="531" height="311" transform="translate(105 17)" fill="url(#paint0_linear)" fill-opacity="0.11"/>
<line id="Line 2.1" y1="-0.5" x2="528" y2="-0.5" transform="translate(106 432)" stroke="#AFAFAF"/>
<line id="Line 2.2" y1="-0.5" x2="415" y2="-0.5" transform="translate(106 432) rotate(-90)" stroke="#AFAFAF"/>
<text id="Current Megacities" transform="translate(516 44)" fill="#38A0C1" xml:space="preserve" style="white-space: pre" font-family="Atlas Grotesk" font-style="Bold" font-size="16" font-weight="bold" letter-spacing="0em"><tspan x="41.1719" y="12.992">Current </tspan><tspan x="14.6875" y="30.272">Megacities</tspan></text>
<text id="Probable Megacities by 2030" transform="translate(516 380)" fill="#9B51E0" xml:space="preserve" style="white-space: pre" font-family="Atlas Grotesk" font-style="Bold" font-size="14" font-weight="bold" letter-spacing="0em"><tspan x="49.8066" y="11.368">Probable </tspan><tspan x="34.7266" y="26.488">Megacities&#x2028;</tspan><tspan x="54.2637" y="41.608">by 2030</tspan></text>
<rect id="Rectangle 2" x="-1" y="-1" width="108" height="34" transform="translate(55 2)" fill="#2A2A2A" stroke="white" stroke-width="2"/>
<text id="24M" transform="translate(64 171)" fill="#919191" xml:space="preserve" style="white-space: pre" font-family="Atlas Grotesk" font-style="Medium" font-size="12" font-weight="500" letter-spacing="0em"><tspan x="0.164062" y="9.744">24M </tspan></text>
<line id="Line 3" y1="-0.5" x2="6" y2="-0.5" transform="translate(96 177)" stroke="#929292"/>
<text id="10M" transform="translate(66 322)" fill="#919191" xml:space="preserve" style="white-space: pre" font-family="Atlas Grotesk" font-style="Medium" font-size="12" font-weight="500" letter-spacing="0em"><tspan x="0.015625" y="9.744">10M </tspan></text>
<line id="Line 3.4" y1="-0.5" x2="6" y2="-0.5" transform="translate(96 328)" stroke="#929292"/>
<text id="35M" transform="translate(62 52)" fill="#919191" xml:space="preserve" style="white-space: pre" font-family="Atlas Grotesk" font-style="Medium" font-size="12" font-weight="500" letter-spacing="0em"><tspan x="0.105469" y="9.744">35M</tspan></text>
<text id="1,700 flights/day" transform="translate(562 445)" fill="#919191" xml:space="preserve" style="white-space: pre" font-family="Atlas Grotesk" font-style="Medium" font-size="12" font-weight="500" letter-spacing="0em"><tspan x="33.0391" y="9.744">1,700&#x2028;</tspan><tspan x="0.402344" y="24.144">flights/day</tspan></text>
<line id="Line 3.1" y1="-0.5" x2="6" y2="-0.5" transform="translate(94 58)" stroke="#929292"/>
<line id="Line 3.2" y1="-0.5" x2="6" y2="-0.5" transform="translate(612 442) rotate(-90)" stroke="#929292"/>
<text id="664 flights/day" transform="translate(330 461)" fill="#919191" xml:space="preserve" style="white-space: pre" font-family="Atlas Grotesk" font-style="Medium" font-size="12" font-weight="500" letter-spacing="0em"><tspan x="0.917969" y="9.744">664 flights/day</tspan></text>
<text id="0" transform="translate(92 427)" fill="#919191" xml:space="preserve" style="white-space: pre" font-family="Atlas Grotesk" font-style="Medium" font-size="12" font-weight="500" letter-spacing="0em"><tspan x="0.703125" y="9.744">0</tspan></text>
<line id="Line 3.3" y1="-0.5" x2="6" y2="-0.5" transform="translate(376 458) rotate(-90)" stroke="#929292"/>
<g id="Group">
<g id="Group_2">
<g id="Group_3">
<path id="Tokyo" d="M5 10C7.76142 10 10 7.76142 10 5C10 2.23858 7.76142 0 5 0C2.23858 0 0 2.23858 0 5C0 7.76142 2.23858 10 5 10Z" transform="translate(378.786 34)" fill="#38A0C1" fill-opacity="0.8"/>
<path id="Delhi" d="M5 10C7.76142 10 10 7.76142 10 5C10 2.23858 7.76142 0 5 0C2.23858 0 0 2.23858 0 5C0 7.76142 2.23858 10 5 10Z" transform="translate(275.139 129.596)" fill="#38A0C1" fill-opacity="0.8"/>
<path id="Shanghai" d="M5 10C7.76142 10 10 7.76142 10 5C10 2.23858 7.76142 0 5 0C2.23858 0 0 2.23858 0 5C0 7.76142 2.23858 10 5 10Z" transform="translate(404.451 160.893)" fill="#38A0C1" fill-opacity="0.8"/>
<path id="S&#195;&#163;o Paulo" d="M5 10C7.76142 10 10 7.76142 10 5C10 2.23858 7.76142 0 5 0C2.23858 0 0 2.23858 0 5C0 7.76142 2.23858 10 5 10Z" transform="translate(311.089 202.869)" fill="#38A0C1" fill-opacity="0.8"/>
<path id="Ciudad de M&#195;&#169;xico (Mexico City)" d="M5 10C7.76142 10 10 7.76142 10 5C10 2.23858 7.76142 0 5 0C2.23858 0 0 2.23858 0 5C0 7.76142 2.23858 10 5 10Z" transform="translate(267.639 203.61)" fill="#38A0C1" fill-opacity="0.8"/>
<path id="Al Qahirah (Cairo)" d="M5 10C7.76142 10 10 7.76142 10 5C10 2.23858 7.76142 0 5 0C2.23858 0 0 2.23858 0 5C0 7.76142 2.23858 10 5 10Z" transform="translate(159.05 219.675)" fill="#38A0C1" fill-opacity="0.8"/>
<path id="Mumbai (Bombay)" d="M5 10C7.76142 10 10 7.76142 10 5C10 2.23858 7.76142 0 5 0C2.23858 0 0 2.23858 0 5C0 7.76142 2.23858 10 5 10Z" transform="translate(229.819 220.7)" fill="#38A0C1" fill-opacity="0.8"/>
<path id="Beijing" d="M5 10C7.76142 10 10 7.76142 10 5C10 2.23858 7.76142 0 5 0C2.23858 0 0 2.23858 0 5C0 7.76142 2.23858 10 5 10Z" transform="translate(353.317 224.564)" fill="#38A0C1" fill-opacity="0.8"/>
<path id="Dhaka" d="M5 10C7.76142 10 10 7.76142 10 5C10 2.23858 7.76142 0 5 0C2.23857 0 0 2.23858 0 5C0 7.76142 2.23857 10 5 10Z" transform="translate(135.008 224.987)" fill="#38A0C1" fill-opacity="0.8"/>
<path id="Kinki M.M.A. (Osaka)" d="M5.00001 10C7.76143 10 10 7.76142 10 5C10 2.23858 7.76143 0 5.00001 0C2.23858 0 0 2.23858 0 5C0 7.76142 2.23858 10 5.00001 10Z" transform="translate(235.602 228.16)" fill="#38A0C1" fill-opacity="0.8"/>
<path id="New York Newark" d="M5 10C7.76142 10 10 7.76142 10 5C10 2.23858 7.76142 0 5 0C2.23858 0 0 2.23858 0 5C0 7.76142 2.23858 10 5 10Z" transform="translate(603 233.09)" fill="#38A0C1" fill-opacity="0.8"/>
<path id="Karachi" d="M5 10C7.76143 10 10 7.76142 10 5C10 2.23858 7.76143 0 5 0C2.23858 0 0 2.23858 0 5C0 7.76142 2.23858 10 5 10Z" transform="translate(123.937 269.592)" fill="#38A0C1" fill-opacity="0.8"/>
<path id="Buenos Aires" d="M5 10C7.76142 10 10 7.76142 10 5C10 2.23858 7.76142 0 5 0C2.23858 0 0 2.23858 0 5C0 7.76142 2.23858 10 5 10Z" transform="translate(176.256 274.222)" fill="#38A0C1" fill-opacity="0.8"/>
<path id="Chongqing" d="M5 10C7.76142 10 10 7.76142 10 5C10 2.23858 7.76142 0 5 0C2.23858 0 0 2.23858 0 5C0 7.76142 2.23858 10 5 10Z" transform="translate(211.804 275.596)" fill="#38A0C1" fill-opacity="0.8"/>
<path id="Istanbul" d="M4.99998 10C7.76141 10 9.99998 7.76142 9.99998 5C9.99998 2.23858 7.76141 0 4.99998 0C2.23856 0 0 2.23858 0 5C0 7.76142 2.23856 10 4.99998 10Z" transform="translate(362.119 276.525)" fill="#38A0C1" fill-opacity="0.8"/>
<path id="Kolkata (Calcutta)" d="M5 10C7.76142 10 10 7.76142 10 5C10 2.23858 7.76142 0 5 0C2.23858 0 0 2.23858 0 5C0 7.76142 2.23858 10 5 10Z" transform="translate(160.608 277.274)" fill="#38A0C1" fill-opacity="0.8"/>
<path id="Manila" d="M5 10C7.76142 10 10 7.76144 10 5.00002C10 2.23859 7.76142 0 5 0C2.23858 0 0 2.23859 0 5.00002C0 7.76144 2.23858 10 5 10Z" transform="translate(207.687 290.065)" fill="#38A0C1" fill-opacity="0.8"/>
<path id="Lagos" d="M5 9.99998C7.76142 9.99998 10 7.76141 10 4.99998C10 2.23856 7.76142 0 5 0C2.23858 0 0 2.23856 0 4.99998C0 7.76141 2.23858 9.99998 5 9.99998Z" transform="translate(128.312 290.269)" fill="#38A0C1" fill-opacity="0.8"/>
<path id="Rio de Janeiro" d="M5 10C7.76142 10 10 7.76142 10 5C10 2.23858 7.76142 0 5 0C2.23858 0 0 2.23858 0 5C0 7.76142 2.23858 10 5 10Z" transform="translate(184.904 292.086)" fill="#38A0C1" fill-opacity="0.8"/>
<path id="Tianjin" d="M5 10C7.76142 10 10 7.76142 10 5C10 2.23858 7.76142 0 5 0C2.23858 0 0 2.23858 0 5C0 7.76142 2.23858 10 5 10Z" transform="translate(170.324 292.923)" fill="#38A0C1" fill-opacity="0.8"/>
<path id="Kinshasa" d="M5 10C7.76142 10 10 7.76142 10 5C10 2.23858 7.76142 0 5 0C2.23858 0 0 2.23858 0 5C0 7.76142 2.23858 10 5 10Z" transform="translate(107 293.387)" fill="#38A0C1" fill-opacity="0.8"/>
<path id="Guangzhou, Guangdong" d="M5 10C7.76142 10 10 7.76142 10 5C10 2.23858 7.76142 0 5 0C2.23858 0 0 2.23858 0 5C0 7.76142 2.23858 10 5 10Z" transform="translate(286.214 299.077)" fill="#38A0C1" fill-opacity="0.8"/>
<path id="Los Angeles Long Beach Santa Ana" d="M5 10C7.76142 10 10 7.76142 10 5C10 2.23858 7.76142 0 5 0C2.23858 0 0 2.23858 0 5C0 7.76142 2.23858 10 5 10Z" transform="translate(406.217 301.004)" fill="#38A0C1" fill-opacity="0.8"/>
<path id="Moskva (Moscow)" d="M5 10C7.76142 10 10 7.76142 10 5C10 2.23858 7.76142 0 5 0C2.23858 0 0 2.23858 0 5C0 7.76142 2.23858 10 5 10Z" transform="translate(350.48 301.518)" fill="#38A0C1" fill-opacity="0.8"/>
<path id="Shenzhen" d="M5 10C7.76142 10 10 7.76142 10 5C10 2.23858 7.76142 0 5 0C2.23858 0 0 2.23858 0 5C0 7.76142 2.23858 10 5 10Z" transform="translate(239.534 306.876)" fill="#38A0C1" fill-opacity="0.8"/>
<path id="Lahore" d="M5 10C7.76142 10 10 7.76142 10 5C10 2.23858 7.76142 0 5 0C2.23858 0 0 2.23858 0 5C0 7.76142 2.23858 10 5 10Z" transform="translate(115.153 308.687)" fill="#38A0C1" fill-opacity="0.8"/>
<path id="Bangalore" d="M5 10C7.76142 10 10 7.76142 10 5C10 2.23858 7.76142 0 5 0C2.23858 0 0 2.23858 0 5C0 7.76142 2.23858 10 5 10Z" transform="translate(176.087 311.87)" fill="#38A0C1" fill-opacity="0.8"/>
<path id="Paris" d="M5 10C7.76142 10 10 7.76142 10 5C10 2.23858 7.76142 0 5 0C2.23858 0 0 2.23858 0 5C0 7.76142 2.23858 10 5 10Z" transform="translate(383.941 317.624)" fill="#38A0C1" fill-opacity="0.8"/>
<path id="Bogot&#195;&#161;" d="M5 10C7.76142 10 10 7.76142 10 5C10 2.23858 7.76142 0 5 0C2.23858 0 0 2.23858 0 5C0 7.76142 2.23858 10 5 10Z" transform="translate(207.029 321.111)" fill="#38A0C1" fill-opacity="0.8"/>
<path id="Jakarta" d="M5 10C7.76142 10 10 7.76142 10 5C10 2.23858 7.76142 0 5 0C2.23858 0 0 2.23858 0 5C0 7.76142 2.23858 10 5 10Z" transform="translate(322.871 321.725)" fill="#38A0C1" fill-opacity="0.8"/>
<path id="Chennai (Madras)" d="M5 10C7.76142 10 10 7.76142 10 5C10 2.23858 7.76142 0 5 0C2.23858 0 0 2.23858 0 5C0 7.76142 2.23858 10 5 10Z" transform="translate(162.613 322.379)" fill="#38A0C1" fill-opacity="0.8"/>
<path id="Lima" d="M5 10C7.76143 10 10 7.76142 10 5C10 2.23858 7.76143 0 5 0C2.23858 0 0 2.23858 0 5C0 7.76142 2.23858 10 5 10Z" transform="translate(170.077 323.073)" fill="#38A0C1" fill-opacity="0.8"/>
<path id="Krung Thep (Bangkok)" d="M5 10C7.76142 10 10 7.76142 10 5C10 2.23858 7.76142 0 5 0C2.23858 0 0 2.23858 0 5C0 7.76142 2.23858 10 5 10Z" transform="translate(242.135 325.574)" fill="#38A0C1" fill-opacity="0.8"/>
<path id="Seoul" d="M5 10C7.76142 10 10 7.76142 10 5C10 2.23858 7.76142 0 5 0C2.23858 0 0 2.23858 0 5C0 7.76142 2.23858 10 5 10Z" transform="translate(293.856 327.633)" fill="#9B51E0" fill-opacity="0.8"/>
<path id="Chukyo M.M.A. (Nagoya)" d="M5 10C7.76142 10 10 7.76142 10 5C10 2.23858 7.76142 0 5 0C2.23858 0 0 2.23858 0 5C0 7.76142 2.23858 10 5 10Z" transform="translate(188.518 332.505)" fill="#787878" fill-opacity="0.5"/>
<path id="Hyderabad" d="M5 10C7.76142 10 10 7.76142 10 5C10 2.23858 7.76142 0 5 0C2.23858 0 0 2.23858 0 5C0 7.76142 2.23858 10 5 10Z" transform="translate(157.34 332.777)" fill="#9B51E0" fill-opacity="0.8"/>
<path id="London" d="M5 10C7.76142 10 10 7.76142 10 5C10 2.23858 7.76142 0 5 0C2.23858 0 0 2.23858 0 5C0 7.76142 2.23858 10 5 10Z" transform="translate(550.822 337.422)" fill="#9B51E0" fill-opacity="0.8"/>
<path id="Tehran" d="M5 10C7.76142 10 10 7.76142 10 5C10 2.23858 7.76142 0 5 0C2.23858 0 0 2.23858 0 5C0 7.76142 2.23858 10 5 10Z" transform="translate(168.215 339.03)" fill="#9B51E0" fill-opacity="0.8"/>
<path id="Chicago" d="M5 10C7.76142 10 10 7.76142 10 5C10 2.23858 7.76142 0 5 0C2.23858 0 0 2.23858 0 5C0 7.76142 2.23858 10 5 10Z" transform="translate(524.051 339.368)" fill="#787878" fill-opacity="0.5"/>
<path id="Chengdu" d="M5 10C7.76142 10 10 7.76142 10 5C10 2.23858 7.76142 0 5 0C2.23858 0 0 2.23858 0 5C0 7.76142 2.23858 10 5 10Z" transform="translate(230.431 339.91)" fill="#9B51E0" fill-opacity="0.8"/>
<path id="Nanjing, Jiangsu" d="M5 10C7.76142 10 10 7.76142 10 5C10 2.23858 7.76142 0 5 0C2.23858 0 0 2.23858 0 5C0 7.76142 2.23858 10 5 10Z" transform="translate(185.857 345.983)" fill="#9B51E0" fill-opacity="0.8"/>
<path id="Wuhan" d="M5 10C7.76142 10 10 7.76142 10 5C10 2.23858 7.76142 0 5 0C2.23858 0 0 2.23858 0 5C0 7.76142 2.23858 10 5 10Z" transform="translate(174.323 346.72)" fill="#787878" fill-opacity="0.5"/>
<path id="Th&#195;&#160;nh Pho Ho Ch&#195;&#173; Minh (Ho Chi Minh City)" d="M5 10C7.76142 10 10 7.76142 10 5C10 2.23858 7.76142 0 5 0C2.23858 0 0 2.23858 0 5C0 7.76142 2.23858 10 5 10Z" transform="translate(193.497 347.043)" fill="#9B51E0" fill-opacity="0.8"/>
<path id="Luanda" d="M5 10C7.76142 10 10 7.76142 10 5C10 2.23858 7.76142 0 5 0C2.23858 0 0 2.23858 0 5C0 7.76142 2.23858 10 5 10Z" transform="translate(111.078 351.005)" fill="#9B51E0" fill-opacity="0.8"/>
<path id="Ahmadabad" d="M5 10C7.76142 10 10 7.76142 10 5C10 2.23858 7.76142 0 5 0C2.23858 0 0 2.23858 0 5C0 7.76142 2.23858 10 5 10Z" transform="translate(126.842 352.001)" fill="#9B51E0" fill-opacity="0.8"/>
<path id="Kuala Lumpur" d="M5 10C7.76142 10 10 7.76142 10 5C10 2.23858 7.76142 0 5 0C2.23858 0 0 2.23858 0 5C0 7.76142 2.23858 10 5 10Z" transform="translate(443.268 353.25)" fill="#9B51E0" fill-opacity="0.8"/>
<path id="Xi&#39;an, Shaanxi" d="M5 10C7.76142 10 10 7.76142 10 5C10 2.23858 7.76142 0 5 0C2.23858 0 0 2.23858 0 5C0 7.76142 2.23858 10 5 10Z" transform="translate(225.495 354.528)" fill="#787878" fill-opacity="0.5"/>
<path id="Hong Kong" d="M5 10C7.76142 10 10 7.76142 10 5C10 2.23858 7.76142 0 5 0C2.23858 0 0 2.23858 0 5C0 7.76142 2.23858 10 5 10Z" transform="translate(267.667 354.691)" fill="#787878" fill-opacity="0.5"/>
<path id="Dongguan" d="M5 10C7.76142 10 10 7.76142 10 5C10 2.23858 7.76142 0 5 0C2.23858 0 0 2.23858 0 5C0 7.76142 2.23858 10 5 10Z" transform="translate(286.214 355.422)" fill="#787878" fill-opacity="0.5"/>
<path id="Hangzhou" d="M5 10C7.76142 10 10 7.76142 10 5C10 2.23858 7.76142 0 5 0C2.23858 0 0 2.23858 0 5C0 7.76142 2.23858 10 5 10Z" transform="translate(211.78 356.753)" fill="#787878" fill-opacity="0.5"/>
<path id="Foshan" d="M5 10C7.76142 10 10 7.76142 10 5C10 2.23858 7.76142 0 5 0C2.23858 0 0 2.23858 0 5C0 7.76142 2.23858 10 5 10Z" transform="translate(104.32 357.182)" fill="#787878" fill-opacity="0.5"/>
<path id="Shenyang" d="M5 10C7.76142 10 10 7.76142 10 5C10 2.23858 7.76142 0 5 0C2.23858 0 0 2.23858 0 5C0 7.76142 2.23858 10 5 10Z" transform="translate(151.776 360.11)" fill="#787878" fill-opacity="0.5"/>
<path id="Ar Riyadh (Riyadh)" d="M5 10C7.76142 10 10 7.76142 10 5C10 2.23858 7.76142 0 5 0C2.23858 0 0 2.23858 0 5C0 7.76142 2.23858 10 5 10Z" transform="translate(177.377 360.267)" fill="#787878" fill-opacity="0.5"/>
<path id="Santiago" d="M5 10C7.76142 10 10 7.76142 10 5C10 2.23858 7.76142 0 5 0C2.23858 0 0 2.23858 0 5C0 7.76142 2.23858 10 5 10Z" transform="translate(158.691 362.682)" fill="#787878" fill-opacity="0.5"/>
<path id="Surat" d="M5 10C7.76142 10 10 7.76142 10 5C10 2.23858 7.76142 0 5 0C2.23858 0 0 2.23858 0 5C0 7.76142 2.23858 10 5 10Z" transform="translate(105.26 363.929)" fill="#787878" fill-opacity="0.5"/>
<path id="Madrid" d="M5 10C7.76142 10 10 7.76142 10 5C10 2.23858 7.76142 0 5 0C2.23858 0 0 2.23858 0 5C0 7.76142 2.23858 10 5 10Z" transform="translate(251.254 364.639)" fill="#787878" fill-opacity="0.5"/>
<path id="Suzhou, Jiangsu" d="M5 10C7.76142 10 10 7.76142 10 5C10 2.23858 7.76142 0 5 0C2.23858 0 0 2.23858 0 5C0 7.76142 2.23858 10 5 10Z" transform="translate(123.94 366.332)" fill="#787878" fill-opacity="0.5"/>
<path id="Haerbin" d="M5 10C7.76142 10 10 7.76142 10 5C10 2.23858 7.76142 0 5 0C2.23858 0 0 2.23858 0 5C0 7.76142 2.23858 10 5 10Z" transform="translate(154.465 368.715)" fill="#787878" fill-opacity="0.5"/>
<path id="Houston" d="M5 10C7.76142 10 10 7.76142 10 5C10 2.23858 7.76142 0 5 0C2.23858 0 0 2.23858 0 5C0 7.76142 2.23858 10 5 10Z" transform="translate(325.412 368.723)" fill="#787878" fill-opacity="0.5"/>
<path id="Dallas Fort Worth" d="M5 10C7.76142 10 10 7.76142 10 5C10 2.23858 7.76142 0 5 0C2.23858 0 0 2.23858 0 5C0 7.76142 2.23858 10 5 10Z" transform="translate(410.973 368.891)" fill="#787878" fill-opacity="0.5"/>
<path id="Toronto" d="M5 10C7.76142 10 10 7.76142 10 5C10 2.23858 7.76142 0 5 0C2.23858 0 0 2.23858 0 5C0 7.76142 2.23858 10 5 10Z" transform="translate(282.253 369.066)" fill="#787878" fill-opacity="0.5"/>
<path id="Dar es Salaam" d="M5 10C7.76142 10 10 7.76142 10 5C10 2.23858 7.76142 0 5 0C2.23858 0 0 2.23858 0 5C0 7.76142 2.23858 10 5 10Z" transform="translate(128.133 369.438)" fill="#9B51E0" fill-opacity="0.8"/>
<path id="Miami" d="M5 10C7.76142 10 10 7.76142 10 5C10 2.23858 7.76142 0 5 0C2.23858 0 0 2.23858 0 5C0 7.76142 2.23858 10 5 10Z" transform="translate(371.181 369.564)" fill="#787878" fill-opacity="0.5"/>
<path id="Belo Horizonte" d="M5 10C7.76142 10 10 7.76142 10 5C10 2.23858 7.76142 0 5 0C2.23858 0 0 2.23858 0 5C0 7.76142 2.23858 10 5 10Z" transform="translate(141.386 370.243)" fill="#787878" fill-opacity="0.5"/>
<path id="Singapore" d="M5 10C7.76142 10 10 7.76142 10 5C10 2.23858 7.76142 0 5 0C2.23858 0 0 2.23858 0 5C0 7.76142 2.23858 10 5 10Z" transform="translate(251.952 372.167)" fill="#787878" fill-opacity="0.5"/>
<path id="Philadelphia" d="M5 10C7.76142 10 10 7.76142 10 5C10 2.23858 7.76142 0 5 0C2.23858 0 0 2.23858 0 5C0 7.76142 2.23858 10 5 10Z" transform="translate(237.649 373.197)" fill="#787878" fill-opacity="0.5"/>
<path id="Atlanta" d="M5 10C7.76142 10 10 7.76142 10 5C10 2.23858 7.76142 0 5 0C2.23858 0 0 2.23858 0 5C0 7.76142 2.23858 10 5 10Z" transform="translate(448.562 374.511)" fill="#787878" fill-opacity="0.5"/>
<path id="Kitakyushu Fukuoka M.M.A." d="M5 10C7.76142 10 10 7.76142 10 5C10 2.23858 7.76142 0 5 0C2.23857 0 0 2.23858 0 5C0 7.76142 2.23857 10 5 10Z" transform="translate(170.312 374.743)" fill="#787878" fill-opacity="0.5"/>
<path id="Al Khartum (Khartoum)" d="M5 10C7.76142 10 10 7.76142 10 5C10 2.23858 7.76142 0 5 0C2.23858 0 0 2.23858 0 5C0 7.76142 2.23858 10 5 10Z" transform="translate(117.96 374.92)" fill="#787878" fill-opacity="0.5"/>
<path id="Barcelona" d="M5 10C7.76142 10 9.99999 7.76142 9.99999 5C9.99999 2.23858 7.76142 0 5 0C2.23858 0 0 2.23858 0 5C0 7.76142 2.23858 10 5 10Z" transform="translate(227.021 375.346)" fill="#787878" fill-opacity="0.5"/>
<path id="Johannesburg" d="M5 10C7.76142 10 10 7.76142 10 5C10 2.23858 7.76142 0 5 0C2.23858 0 0 2.23858 0 5C0 7.76142 2.23858 10 5 10Z" transform="translate(187.275 375.433)" fill="#787878" fill-opacity="0.5"/>
<path id="Sankt Peterburg (Saint Petersburg)" d="M5 10C7.76142 10 10 7.76142 10 5C10 2.23858 7.76142 0 5 0C2.23858 0 0 2.23858 0 5C0 7.76142 2.23858 10 5 10Z" transform="translate(155.383 376.532)" fill="#787878" fill-opacity="0.5"/>
<path id="Qingdao" d="M5 10C7.76142 10 10 7.76142 10 5C10 2.23858 7.76142 0 5 0C2.23858 0 0 2.23858 0 5C0 7.76142 2.23858 10 5 10Z" transform="translate(173.626 376.557)" fill="#787878" fill-opacity="0.5"/>
<path id="Dalian" d="M5 10C7.76142 10 10 7.76142 10 5C10 2.23858 7.76142 0 5 0C2.23858 0 0 2.23858 0 5C0 7.76142 2.23858 10 5 10Z" transform="translate(158.044 377.415)" fill="#787878" fill-opacity="0.5"/>
<path id="Washington, D.C." d="M5 10C7.76142 10 10 7.76142 10 5C10 2.23858 7.76142 0 5 0C2.23858 0 0 2.23858 0 5C0 7.76142 2.23858 10 5 10Z" transform="translate(311.385 378.416)" fill="#787878" fill-opacity="0.5"/>
<path id="Yangon" d="M5 10C7.76142 10 10 7.76142 10 5C10 2.23858 7.76142 0 5 0C2.23858 0 0 2.23858 0 5C0 7.76142 2.23858 10 5 10Z" transform="translate(136.172 378.94)" fill="#787878" fill-opacity="0.5"/>
<path id="Al Iskandariyah (Alexandria)" d="M5 10C7.76142 10 10 7.76142 10 5C10 2.23858 7.76142 0 5 0C2.23858 0 0 2.23858 0 5C0 7.76142 2.23858 10 5 10Z" transform="translate(111.575 379.701)" fill="#787878" fill-opacity="0.5"/>
<path id="Ji&#39;nan, Shandong" d="M5 10C7.76142 10 10 7.76142 10 5C10 2.23858 7.76142 0 5 0C2.23858 0 0 2.23858 0 5C0 7.76142 2.23858 10 5 10Z" transform="translate(147.276 380.07)" fill="#787878" fill-opacity="0.5"/>
<path id="Guadalajara" d="M5 10C7.76142 10 10 7.76142 10 5C10 2.23858 7.76142 0 5 0C2.23858 0 0 2.23858 0 5C0 7.76142 2.23858 10 5 10Z" transform="translate(147.358 380.379)" fill="#787878" fill-opacity="0.5"/>
<path id="Zhengzhou" d="M5 10C7.76142 10 10 7.76142 10 5C10 2.23858 7.76142 0 5 0C2.23858 0 0 2.23858 0 5C0 7.76142 2.23858 10 5 10Z" transform="translate(181.053 381.257)" fill="#787878" fill-opacity="0.5"/>
<path id="Abidjan" d="M5 10C7.76142 10 10 7.76142 10 5C10 2.23858 7.76142 0 5 0C2.23858 0 0 2.23858 0 5C0 7.76142 2.23858 10 5 10Z" transform="translate(113.552 381.467)" fill="#787878" fill-opacity="0.5"/>
<path id="Ankara" d="M5 10C7.76142 10 10 7.76142 10 5C10 2.23858 7.76142 0 5 0C2.23858 0 0 2.23858 0 5C0 7.76142 2.23858 10 5 10Z" transform="translate(145.293 381.486)" fill="#787878" fill-opacity="0.5"/>
<path id="Chittagong" d="M5 10C7.76142 10 10 7.76142 10 5C10 2.23858 7.76142 0 5 0C2.23858 0 0 2.23858 0 5C0 7.76142 2.23858 10 5 10Z" transform="translate(112.135 382.591)" fill="#787878" fill-opacity="0.5"/>
<path id="Sydney" d="M5 10C7.76142 10 10 7.76142 10 5C10 2.23858 7.76142 0 5 0C2.23858 0 0 2.23858 0 5C0 7.76142 2.23858 10 5 10Z" transform="translate(231.293 382.839)" fill="#787878" fill-opacity="0.5"/>
<path id="Melbourne" d="M5 10C7.76142 10 10 7.76142 10 5C10 2.23858 7.76142 0 5 0C2.23858 0 0 2.23858 0 5C0 7.76142 2.23858 10 5 10Z" transform="translate(198.474 383.067)" fill="#787878" fill-opacity="0.5"/>
<path id="Monterrey" d="M5 10C7.76142 10 10 7.76142 10 5C10 2.23858 7.76142 0 5 0C2.23858 0 0 2.23858 0 5C0 7.76142 2.23858 10 5 10Z" transform="translate(142.549 383.693)" fill="#787878" fill-opacity="0.5"/>
<path id="Bras&#195;&#173;lia" d="M5 10C7.76142 10 10 7.76142 10 5C10 2.23858 7.76142 0 5 0C2.23858 0 0 2.23858 0 5C0 7.76142 2.23858 10 5 10Z" transform="translate(153.268 386.284)" fill="#787878" fill-opacity="0.5"/>
<path id="Jiddah" d="M5 10C7.76142 10 10 7.76142 10 5C10 2.23858 7.76142 0 5 0C2.23858 0 0 2.23858 0 5C0 7.76142 2.23858 10 5 10Z" transform="translate(190.309 386.677)" fill="#787878" fill-opacity="0.5"/>
<path id="Cape Town" d="M5 10C7.76142 10 10 7.76142 10 5C10 2.23858 7.76142 0 5 0C2.23857 0 0 2.23858 0 5C0 7.76142 2.23857 10 5 10Z" transform="translate(138.936 386.703)" fill="#787878" fill-opacity="0.5"/>
<path id="Addis Ababa" d="M5 10C7.76142 10 10 7.76142 10 5C10 2.23858 7.76142 0 5 0C2.23858 0 0 2.23858 0 5C0 7.76142 2.23858 10 5 10Z" transform="translate(138.816 387.031)" fill="#787878" fill-opacity="0.5"/>
<path id="Nairobi" d="M5 10C7.76142 10 10 7.76142 10 5C10 2.23858 7.76142 0 5 0C2.23858 0 0 2.23858 0 5C0 7.76142 2.23858 10 5 10Z" transform="translate(155.96 387.178)" fill="#787878" fill-opacity="0.5"/>
<path id="Phoenix Mesa" d="M5 10C7.76142 10 10 7.76142 10 5C10 2.23858 7.76142 0 5 0C2.23858 0 0 2.23858 0 5C0 7.76142 2.23858 10 5 10Z" transform="translate(253.376 387.47)" fill="#787878" fill-opacity="0.5"/>
<path id="Changsha" d="M5 10C7.76142 10 10 7.76142 10 5C10 2.23858 7.76142 0 5 0C2.23858 0 0 2.23858 0 5C0 7.76142 2.23858 10 5 10Z" transform="translate(172.392 387.616)" fill="#787878" fill-opacity="0.5"/>
<path id="Boston" d="M5 10C7.76142 10 10 7.76142 10 5C10 2.23858 7.76142 0 5 0C2.23858 0 0 2.23858 0 5C0 7.76142 2.23858 10 5 10Z" transform="translate(252.15 388.012)" fill="#787878" fill-opacity="0.5"/>
<path id="H&#195;&#160; Noi" d="M5 10C7.76142 10 10 7.76142 10 5C10 2.23858 7.76142 0 5 0C2.23858 0 0 2.23858 0 5C0 7.76142 2.23858 10 5 10Z" transform="translate(166.611 388.279)" fill="#787878" fill-opacity="0.5"/>
<path id="Changchun" d="M5 10C7.76143 10 10 7.76142 10 5C10 2.23858 7.76143 0 5 0C2.23858 0 0 2.23858 0 5C0 7.76142 2.23858 10 5 10Z" transform="translate(135.916 388.726)" fill="#787878" fill-opacity="0.5"/>
<path id="Kunming" d="M5 10C7.76142 10 10 7.76142 10 5C10 2.23858 7.76142 0 5 0C2.23858 0 0 2.23858 0 5C0 7.76142 2.23858 10 5 10Z" transform="translate(239.592 388.84)" fill="#787878" fill-opacity="0.5"/>
<path id="Roma (Rome)" d="M5.00001 10C7.76143 10 10 7.76142 10 5C10 2.23858 7.76143 0 5.00001 0C2.23858 0 0 2.23858 0 5C0 7.76142 2.23858 10 5.00001 10Z" transform="translate(234.461 389.058)" fill="#787878" fill-opacity="0.5"/>
<path id="Shantou" d="M5 10C7.76142 10 10 7.76142 10 5C10 2.23858 7.76142 0 5 0C2.23858 0 0 2.23858 0 5C0 7.76142 2.23858 10 5 10Z" transform="translate(118.525 389.442)" fill="#787878" fill-opacity="0.5"/>
<path id="Montr&#195;&#169;al" d="M5 10C7.76142 10 10 7.76142 10 5C10 2.23858 7.76142 0 5 0C2.23858 0 0 2.23858 0 5C0 7.76142 2.23858 10 5 10Z" transform="translate(186.33 389.464)" fill="#787878" fill-opacity="0.5"/>
<path id="P&#195;&#180;rto Alegre" d="M5 10C7.76142 10 10 7.76142 10 5C10 2.23858 7.76142 0 5 0C2.23858 0 0 2.23858 0 5C0 7.76142 2.23858 10 5 10Z" transform="translate(128.802 390.29)" fill="#787878" fill-opacity="0.5"/>
<path id="Recife" d="M5 10C7.76142 10 10 7.76142 10 5C10 2.23858 7.76142 0 5 0C2.23858 0 0 2.23858 0 5C0 7.76142 2.23858 10 5 10Z" transform="translate(128.04 391.002)" fill="#787878" fill-opacity="0.5"/>
<path id="Kabul" d="M5 10C7.76142 10 10 7.76142 10 5C10 2.23858 7.76142 0 5 0C2.23858 0 0 2.23858 0 5C0 7.76142 2.23858 10 5 10Z" transform="translate(109.686 391.172)" fill="#787878" fill-opacity="0.5"/>
<path id="&#195;&#156;r&#195;&#188;mqi (Wulumqi)" d="M5 10C7.76142 10 10 7.76142 10 5C10 2.23858 7.76142 0 5 0C2.23858 0 0 2.23858 0 5C0 7.76142 2.23858 10 5 10Z" transform="translate(165.259 391.177)" fill="#787878" fill-opacity="0.5"/>
<path id="Tel Aviv Yafo (Tel Aviv Jaffa)" d="M5 10C7.76142 10 10 7.76142 10 5C10 2.23858 7.76142 0 5 0C2.23858 0 0 2.23858 0 5C0 7.76142 2.23858 10 5 10Z" transform="translate(153.892 391.18)" fill="#787878" fill-opacity="0.5"/>
<path id="Hefei" d="M5 10C7.76142 10 10 7.76142 10 5C10 2.23858 7.76142 0 5 0C2.23858 0 0 2.23858 0 5C0 7.76142 2.23858 10 5 10Z" transform="translate(132.332 391.512)" fill="#787878" fill-opacity="0.5"/>
<path id="Fortaleza" d="M5 10C7.76142 10 10 7.76142 10 5C10 2.23858 7.76142 0 5 0C2.23858 0 0 2.23858 0 5C0 7.76142 2.23858 10 5 10Z" transform="translate(119.444 391.539)" fill="#787878" fill-opacity="0.5"/>
<path id="Shijiazhuang" d="M5 10C7.76142 10 10 7.76142 10 5C10 2.23858 7.76142 0 5 0C2.23858 0 0 2.23858 0 5C0 7.76142 2.23858 10 5 10Z" transform="translate(132.044 391.834)" fill="#787878" fill-opacity="0.5"/>
<path id="Medell&#195;&#173;n" d="M5 10C7.76143 10 10 7.76142 10 5C10 2.23858 7.76143 0 5 0C2.23858 0 0 2.23858 0 5C0 7.76142 2.23858 10 5 10Z" transform="translate(136.319 392.006)" fill="#787878" fill-opacity="0.5"/>
<path id="Kano" d="M5 10C7.76142 10 10 7.76142 10 5C10 2.23858 7.76142 0 5 0C2.23858 0 0 2.23858 0 5C0 7.76142 2.23858 10 5 10Z" transform="translate(104.103 393.218)" fill="#787878" fill-opacity="0.5"/>
<path id="Ningbo" d="M5 10C7.76142 10 10 7.76142 10 5C10 2.23858 7.76142 0 5 0C2.23858 0 0 2.23858 0 5C0 7.76142 2.23858 10 5 10Z" transform="translate(132.214 393.27)" fill="#787878" fill-opacity="0.5"/>
<path id="Salvador" d="M5 10C7.76142 10 10 7.76142 10 5C10 2.23858 7.76142 0 5 0C2.23858 0 0 2.23858 0 5C0 7.76142 2.23858 10 5 10Z" transform="translate(126.555 393.927)" fill="#787878" fill-opacity="0.5"/>
<path id="Taiyuan, Shanxi" d="M5 10C7.76142 10 10 7.76142 10 5C10 2.23858 7.76142 0 5 0C2.23858 0 0 2.23858 0 5C0 7.76142 2.23858 10 5 10Z" transform="translate(142.04 394.229)" fill="#787878" fill-opacity="0.5"/>
<path id="Jaipur" d="M5 10C7.76142 10 10 7.76142 10 5C10 2.23858 7.76142 0 5 0C2.23858 0 0 2.23858 0 5C0 7.76142 2.23858 10 5 10Z" transform="translate(117.279 394.323)" fill="#787878" fill-opacity="0.5"/>
<path id="Dar el Beida (Casablanca)" d="M5 10C7.76142 10 10 7.76142 10 5C10 2.23858 7.76142 0 5 0C2.23858 0 0 2.23858 0 5C0 7.76142 2.23858 10 5 10Z" transform="translate(136.055 394.675)" fill="#787878" fill-opacity="0.5"/>
<path id="Yaound&#195;&#169;" d="M5 10C7.76142 10 10 7.76142 10 5C10 2.23858 7.76142 0 5 0C2.23858 0 0 2.23858 0 5C0 7.76142 2.23858 10 5 10Z" transform="translate(105.953 394.973)" fill="#787878" fill-opacity="0.5"/>
<path id="Nanning" d="M5 10C7.76142 10 10 7.76142 10 5C10 2.23858 7.76142 0 5 0C2.23858 0 0 2.23858 0 5C0 7.76142 2.23858 10 5 10Z" transform="translate(145.028 395.266)" fill="#787878" fill-opacity="0.5"/>
<path id="Detroit" d="M5 10C7.76142 10 10 7.76142 10 5C10 2.23858 7.76142 0 5 0C2.23858 0 0 2.23858 0 5C0 7.76142 2.23858 10 5 10Z" transform="translate(256.104 395.569)" fill="#787878" fill-opacity="0.5"/>
<path id="Xiamen" d="M5 10C7.76142 10 10 7.76142 10 5C10 2.23858 7.76142 0 5 0C2.23858 0 0 2.23858 0 5C0 7.76142 2.23858 10 5 10Z" transform="translate(178.833 395.727)" fill="#787878" fill-opacity="0.5"/>
<path id="Curitiba" d="M5 10C7.76142 10 10 7.76142 10 5C10 2.23858 7.76142 0 5 0C2.23858 0 0 2.23858 0 5C0 7.76142 2.23858 10 5 10Z" transform="translate(127.67 395.791)" fill="#787878" fill-opacity="0.5"/>
<path id="Berlin" d="M5 10C7.76142 10 10 7.76142 10 5C10 2.23858 7.76142 0 5 0C2.23858 0 0 2.23858 0 5C0 7.76142 2.23858 10 5 10Z" transform="translate(205.264 396.079)" fill="#787878" fill-opacity="0.5"/>
<path id="Fuzhou, Fujian" d="M5 10C7.76142 10 10 7.76142 10 5C10 2.23858 7.76142 0 5 0C2.23858 0 0 2.23858 0 5C0 7.76142 2.23858 10 5 10Z" transform="translate(142.533 396.292)" fill="#787878" fill-opacity="0.5"/>
<path id="Lucknow" d="M5 10C7.76142 10 10 7.76142 10 5C10 2.23858 7.76142 0 5 0C2.23858 0 0 2.23858 0 5C0 7.76142 2.23858 10 5 10Z" transform="translate(115.719 396.587)" fill="#787878" fill-opacity="0.5"/>
<path id="Busan" d="M5 10C7.76142 10 10 7.76142 10 5C10 2.23858 7.76142 0 5 0C2.23858 0 0 2.23858 0 5C0 7.76142 2.23858 10 5 10Z" transform="translate(145.434 396.989)" fill="#787878" fill-opacity="0.5"/>
<path id="Wenzhou" d="M5 10C7.76142 10 10 7.76142 10 5C10 2.23858 7.76142 0 5 0C2.23858 0 0 2.23858 0 5C0 7.76142 2.23858 10 5 10Z" transform="translate(132.009 397.495)" fill="#787878" fill-opacity="0.5"/>
<path id="Douala" d="M5 10C7.76142 10 10 7.76142 10 5C10 2.23858 7.76142 0 5 0C2.23858 0 0 2.23858 0 5C0 7.76142 2.23858 10 5 10Z" transform="translate(109.203 397.573)" fill="#787878" fill-opacity="0.5"/>
<path id="Ibadan" d="M5 10C7.76142 10 10 7.76142 10 5C10 2.23858 7.76142 0 5 0C2.23858 0 0 2.23858 0 5C0 7.76142 2.23858 10 5 10Z" transform="translate(103.628 397.888)" fill="#787878" fill-opacity="0.5"/>
<path id="Seattle" d="M5 10C7.76142 10 10 7.76142 10 5C10 2.23858 7.76142 0 5 0C2.23858 0 0 2.23858 0 5C0 7.76142 2.23858 10 5 10Z" transform="translate(265.618 397.924)" fill="#787878" fill-opacity="0.5"/>
<path id="Nanchang" d="M5 10C7.76142 10 10 7.76142 10 5C10 2.23858 7.76142 0 5 0C2.23857 0 0 2.23858 0 5C0 7.76142 2.23857 10 5 10Z" transform="translate(138.142 397.993)" fill="#787878" fill-opacity="0.5"/>
<path id="Changzhou, Jiangsu" d="M5 10C7.76142 10 10 7.76142 10 5C10 2.23858 7.76142 0 5 0C2.23858 0 0 2.23858 0 5C0 7.76142 2.23858 10 5 10Z" transform="translate(111.525 397.999)" fill="#787878" fill-opacity="0.5"/>
<path id="San Francisco Oakland" d="M5 10C7.76142 10 10 7.76142 10 5C10 2.23858 7.76142 0 5 0C2.23858 0 0 2.23858 0 5C0 7.76142 2.23858 10 5 10Z" transform="translate(370.609 398.5)" fill="#787878" fill-opacity="0.5"/>
<path id="Faisalabad" d="M5 10C7.76142 10 10 7.76142 10 5C10 2.23858 7.76142 0 5 0C2.23858 0 0 2.23858 0 5C0 7.76142 2.23858 10 5 10Z" transform="translate(104.866 398.656)" fill="#787878" fill-opacity="0.5"/>
<path id="Asunci&#195;&#179;n" d="M5 10C7.76142 10 10 7.76142 10 5C10 2.23858 7.76142 0 5 0C2.23858 0 0 2.23858 0 5C0 7.76142 2.23858 10 5 10Z" transform="translate(108.264 399.601)" fill="#787878" fill-opacity="0.5"/>
<path id="San Diego" d="M5 10C7.76142 10 10 7.76142 10 5C10 2.23858 7.76142 0 5 0C2.23858 0 0 2.23858 0 5C0 7.76142 2.23858 10 5 10Z" transform="translate(177.591 399.708)" fill="#787878" fill-opacity="0.5"/>
<path id="Campinas" d="M5 10C7.76142 10 10 7.76142 10 5C10 2.23858 7.76142 0 5 0C2.23858 0 0 2.23858 0 5C0 7.76142 2.23858 10 5 10Z" transform="translate(142.602 399.73)" fill="#787878" fill-opacity="0.5"/>
<path id="Kozhikode (Calicut)" d="M5 10C7.76142 10 10 7.76142 10 5C10 2.23858 7.76142 0 5 0C2.23858 0 0 2.23858 0 5C0 7.76142 2.23858 10 5 10Z" transform="translate(112.769 400.105)" fill="#787878" fill-opacity="0.5"/>
<path id="Santo Domingo" d="M5 10C7.76142 10 10 7.76142 10 5C10 2.23858 7.76142 0 5 0C2.23858 0 0 2.23858 0 5C0 7.76142 2.23858 10 5 10Z" transform="translate(115.513 400.135)" fill="#787878" fill-opacity="0.5"/>
<path id="Ath&#195;&#173;nai (Athens)" d="M5 10C7.76142 10 10 7.76142 10 5C10 2.23858 7.76142 0 5 0C2.23857 0 0 2.23858 0 5C0 7.76142 2.23857 10 5 10Z" transform="translate(171.249 400.312)" fill="#787878" fill-opacity="0.5"/>
<path id="Wuxi, Jiangsu" d="M5 10C7.76142 10 10 7.76142 10 5C10 2.23858 7.76142 0 5 0C2.23858 0 0 2.23858 0 5C0 7.76142 2.23858 10 5 10Z" transform="translate(123.94 400.436)" fill="#787878" fill-opacity="0.5"/>
<path id="Guiyang" d="M5 10C7.76142 10 10 7.76142 10 5C10 2.23858 7.76142 0 5 0C2.23858 0 0 2.23858 0 5C0 7.76142 2.23858 10 5 10Z" transform="translate(159.639 400.519)" fill="#787878" fill-opacity="0.5"/>
<path id="Durban (Ethekwini)" d="M5 10C7.76142 10 10 7.76142 10 5C10 2.23858 7.76142 0 5 0C2.23858 0 0 2.23858 0 5C0 7.76142 2.23858 10 5 10Z" transform="translate(123.044 400.545)" fill="#787878" fill-opacity="0.5"/>
<path id="Milano (Milan)" d="M5 10C7.76142 10 10 7.76142 10 5C10 2.23858 7.76142 0 5 0C2.23858 0 0 2.23858 0 5C0 7.76142 2.23858 10 5 10Z" transform="translate(239.302 400.563)" fill="#787878" fill-opacity="0.5"/>
<path id="Mashhad" d="M5 10C7.76142 10 10 7.76142 10 5C10 2.23858 7.76142 0 5 0C2.23858 0 0 2.23858 0 5C0 7.76142 2.23858 10 5 10Z" transform="translate(125.693 400.937)" fill="#787878" fill-opacity="0.5"/>
<path id="Puebla" d="M5 10C7.76142 10 10 7.76142 10 5C10 2.23858 7.76142 0 5 0C2.23858 0 0 2.23858 0 5C0 7.76142 2.23858 10 5 10Z" transform="translate(105.526 400.941)" fill="#787878" fill-opacity="0.5"/>
<path id="Kumasi" d="M5 10C7.76142 10 10 7.76142 10 5C10 2.23858 7.76142 0 5 0C2.23858 0 0 2.23858 0 5C0 7.76142 2.23858 10 5 10Z" transform="translate(105.637 401.282)" fill="#787878" fill-opacity="0.5"/>
<path id="Antananarivo" d="M5 10C7.76142 10 10 7.76142 10 5C10 2.23858 7.76142 0 5 0C2.23858 0 0 2.23858 0 5C0 7.76142 2.23858 10 5 10Z" transform="translate(107.547 401.35)" fill="#787878" fill-opacity="0.5"/>
<path id="Izmir" d="M5 10C7.76142 10 10 7.76142 10 5C10 2.23858 7.76142 0 5 0C2.23858 0 0 2.23858 0 5C0 7.76142 2.23858 10 5 10Z" transform="translate(130.61 402.65)" fill="#787878" fill-opacity="0.5"/>
<path id="Lanzhou" d="M5 10C7.76142 10 10 7.76142 10 5C10 2.23858 7.76142 0 5 0C2.23858 0 0 2.23858 0 5C0 7.76142 2.23858 10 5 10Z" transform="translate(103 402.658)" fill="#787878" fill-opacity="0.5"/>
<path id="Caracas" d="M5 10C7.76142 10 10 7.76142 10 5C10 2.23858 7.76142 0 5 0C2.23858 0 0 2.23858 0 5C0 7.76142 2.23858 10 5 10Z" transform="translate(120.197 402.672)" fill="#787878" fill-opacity="0.5"/>
<path id="Abuja" d="M5 10C7.76142 10 10 7.76142 10 5C10 2.23858 7.76142 0 5 0C2.23858 0 0 2.23858 0 5C0 7.76142 2.23858 10 5 10Z" transform="translate(119.22 402.843)" fill="#787878" fill-opacity="0.5"/>
<path id="Surabaya" d="M5 10C7.76142 10 10 7.76142 10 5C10 2.23858 7.76142 0 5 0C2.23857 0 0 2.23858 0 5C0 7.76142 2.23857 10 5 10Z" transform="translate(167.734 403.014)" fill="#787878" fill-opacity="0.5"/>
<path id="Guayaquil" d="M5 10C7.76142 10 10 7.76142 10 5C10 2.23858 7.76142 0 5 0C2.23858 0 0 2.23858 0 5C0 7.76142 2.23858 10 5 10Z" transform="translate(117.495 403.053)" fill="#787878" fill-opacity="0.5"/>
<path id="Indore" d="M5 10C7.76142 10 10 7.76142 10 5C10 2.23858 7.76142 0 5 0C2.23858 0 0 2.23858 0 5C0 7.76142 2.23858 10 5 10Z" transform="translate(109.977 403.87)" fill="#787878" fill-opacity="0.5"/>
<path id="Nagpur" d="M5 10C7.76142 10 10 7.76142 10 5C10 2.23858 7.76142 0 5 0C2.23858 0 0 2.23858 0 5C0 7.76142 2.23858 10 5 10Z" transform="translate(109.003 404.023)" fill="#787878" fill-opacity="0.5"/>
<path id="Accra" d="M5 10C7.76142 10 10 7.76142 10 5C10 2.23858 7.76142 0 5 0C2.23858 0 0 2.23858 0 5C0 7.76142 2.23858 10 5 10Z" transform="translate(116.653 407.958)" fill="#787878" fill-opacity="0.5"/>
<path id="Adana" d="M5 10C7.76142 10 10 7.76142 10 5C10 2.23858 7.76142 0 5 0C2.23858 0 0 2.23858 0 5C0 7.76142 2.23858 10 5 10Z" transform="translate(117.32 415.532)" fill="#787878" fill-opacity="0.5"/>
<path id="Adelaide" d="M5 10C7.76142 10 10 7.76142 10 5C10 2.23858 7.76142 0 5 0C2.23858 0 0 2.23858 0 5C0 7.76142 2.23858 10 5 10Z" transform="translate(134.006 419.905)" fill="#787878" fill-opacity="0.5"/>
<path id="Agra" d="M5 10C7.76142 10 10 7.76142 10 5C10 2.23858 7.76142 0 5 0C2.23858 0 0 2.23858 0 5C0 7.76142 2.23858 10 5 10Z" transform="translate(103.1 411.469)" fill="#787878" fill-opacity="0.5"/>
<path id="Allahabad" d="M5 10C7.76142 10 10 7.76142 10 5C10 2.23858 7.76142 0 5 0C2.23858 0 0 2.23858 0 5C0 7.76142 2.23858 10 5 10Z" transform="translate(103.4 419.539)" fill="#787878" fill-opacity="0.5"/>
<path id="Amman" d="M5 10C7.76142 10 10 7.76142 10 5C10 2.23858 7.76142 0 5 0C2.23858 0 0 2.23858 0 5C0 7.76142 2.23858 10 5 10Z" transform="translate(130.676 411.959)" fill="#787878" fill-opacity="0.5"/>
<path id="Amritsar" d="M5 10C7.76142 10 10 7.76142 10 5C10 2.23858 7.76142 0 5 0C2.23858 0 0 2.23858 0 5C0 7.76142 2.23858 10 5 10Z" transform="translate(109.429 419.743)" fill="#787878" fill-opacity="0.5"/>
<path id="Amsterdam" d="M5 10C7.76142 10 10 7.76142 10 5C10 2.23858 7.76142 0 5 0C2.23858 0 0 2.23858 0 5C0 7.76142 2.23858 10 5 10Z" transform="translate(298.565 421.918)" fill="#787878" fill-opacity="0.5"/>
<path id="Anshan" d="M5 10C7.76142 10 10 7.76142 10 5C10 2.23858 7.76142 0 5 0C2.23858 0 0 2.23858 0 5C0 7.76142 2.23858 10 5 10Z" transform="translate(103.904 416.921)" fill="#787878" fill-opacity="0.5"/>
<path id="Antalya" d="M5 10C7.76142 10 10 7.76142 10 5C10 2.23858 7.76142 0 5 0C2.23858 0 0 2.23858 0 5C0 7.76142 2.23858 10 5 10Z" transform="translate(141.66 421.358)" fill="#787878" fill-opacity="0.5"/>
<path id="Auckland" d="M5 10C7.76142 10 10 7.76142 10 5C10 2.23858 7.76142 0 5 0C2.23858 0 0 2.23858 0 5C0 7.76142 2.23858 10 5 10Z" transform="translate(167.363 417.379)" fill="#787878" fill-opacity="0.5"/>
<path id="Aurangabad" d="M5 10C7.76142 10 10 7.76142 10 5C10 2.23858 7.76142 0 5 0C2.23858 0 0 2.23858 0 5C0 7.76142 2.23858 10 5 10Z" transform="translate(104.172 418.239)" fill="#787878" fill-opacity="0.5"/>
<path id="Austin" d="M5 10C7.76142 10 10 7.76142 10 5C10 2.23858 7.76142 0 5 0C2.23858 0 0 2.23858 0 5C0 7.76142 2.23858 10 5 10Z" transform="translate(151.24 413.555)" fill="#787878" fill-opacity="0.5"/>
<path id="Baku" d="M5 10C7.76142 10 10 7.76142 10 5C10 2.23858 7.76142 0 5 0C2.23858 0 0 2.23858 0 5C0 7.76142 2.23858 10 5 10Z" transform="translate(118.996 409.598)" fill="#787878" fill-opacity="0.5"/>
<path id="Baltimore" d="M5 10C7.76142 10 10 7.76142 10 5C10 2.23858 7.76142 0 5 0C2.23858 0 0 2.23858 0 5C0 7.76142 2.23858 10 5 10Z" transform="translate(197.273 409.29)" fill="#787878" fill-opacity="0.5"/>
<path id="Bamako" d="M5 10C7.76142 10 10 7.76142 10 5C10 2.23858 7.76142 0 5 0C2.23858 0 0 2.23858 0 5C0 7.76142 2.23858 10 5 10Z" transform="translate(107.236 407.879)" fill="#787878" fill-opacity="0.5"/>
<path id="Bandung" d="M5 10C7.76142 10 10 7.76142 10 5C10 2.23858 7.76142 0 5 0C2.23858 0 0 2.23858 0 5C0 7.76142 2.23858 10 5 10Z" transform="translate(115.329 406.906)" fill="#787878" fill-opacity="0.5"/>
<path id="Baotou" d="M5 10C7.76142 10 10 7.76142 10 5C10 2.23858 7.76142 0 5 0C2.23858 0 0 2.23858 0 5C0 7.76142 2.23858 10 5 10Z" transform="translate(110.583 411.624)" fill="#787878" fill-opacity="0.5"/>
<path id="Barquisimeto" d="M5 10C7.76142 10 10 7.76142 10 5C10 2.23858 7.76142 0 5 0C2.23858 0 0 2.23858 0 5C0 7.76142 2.23858 10 5 10Z" transform="translate(103.564 421.31)" fill="#787878" fill-opacity="0.5"/>
<path id="Barranquilla" d="M5 10C7.76142 10 10 7.76142 10 5C10 2.23858 7.76142 0 5 0C2.23858 0 0 2.23858 0 5C0 7.76142 2.23858 10 5 10Z" transform="translate(112.323 410.317)" fill="#787878" fill-opacity="0.5"/>
<path id="Batam" d="M5 10C7.76143 10 10 7.76142 10 5C10 2.23858 7.76143 0 5 0C2.23858 0 0 2.23858 0 5C0 7.76142 2.23858 10 5 10Z" transform="translate(121.772 419.047)" fill="#787878" fill-opacity="0.5"/>
<path id="Bhopal" d="M5 10C7.76142 10 10 7.76142 10 5C10 2.23858 7.76142 0 5 0C2.23858 0 0 2.23858 0 5C0 7.76142 2.23858 10 5 10Z" transform="translate(105.799 409.685)" fill="#787878" fill-opacity="0.5"/>
<path id="Bhubaneswar" d="M5 10C7.76142 10 10 7.76142 10 5C10 2.23858 7.76142 0 5 0C2.23858 0 0 2.23858 0 5C0 7.76142 2.23858 10 5 10Z" transform="translate(111.353 422.252)" fill="#787878" fill-opacity="0.5"/>
<path id="Brazzaville" d="M5 10C7.76142 10 10 7.76142 10 5C10 2.23858 7.76142 0 5 0C2.23858 0 0 2.23858 0 5C0 7.76142 2.23858 10 5 10Z" transform="translate(106.56 410.197)" fill="#787878" fill-opacity="0.5"/>
<path id="Brisbane" d="M5 10C7.76142 10 10 7.76142 10 5C10 2.23858 7.76142 0 5 0C2.23858 0 0 2.23858 0 5C0 7.76142 2.23858 10 5 10Z" transform="translate(180.23 409.039)" fill="#787878" fill-opacity="0.5"/>
<path id="Bucaramanga" d="M5 10C7.76142 10 10 7.76142 10 5C10 2.23858 7.76142 0 5 0C2.23858 0 0 2.23858 0 5C0 7.76142 2.23858 10 5 10Z" transform="translate(111.09 420.176)" fill="#787878" fill-opacity="0.5"/>
<path id="Budapest" d="M5 10C7.76142 10 10 7.76142 10 5C10 2.23858 7.76142 0 5 0C2.23858 0 0 2.23858 0 5C0 7.76142 2.23858 10 5 10Z" transform="translate(139.507 415.216)" fill="#787878" fill-opacity="0.5"/>
<path id="Calgary" d="M5 10C7.76142 10 10 7.76142 10 5C10 2.23858 7.76142 0 5 0C2.23858 0 0 2.23858 0 5C0 7.76142 2.23858 10 5 10Z" transform="translate(174.316 418.236)" fill="#787878" fill-opacity="0.5"/>
<path id="Cali" d="M5 10C7.76143 10 10 7.76142 10 5C10 2.23858 7.76143 0 5 0C2.23858 0 0 2.23858 0 5C0 7.76142 2.23858 10 5 10Z" transform="translate(119.864 404.899)" fill="#787878" fill-opacity="0.5"/>
<path id="Can Tho" d="M5 10C7.76142 10 10 7.76142 10 5C10 2.23858 7.76142 0 5 0C2.23858 0 0 2.23858 0 5C0 7.76142 2.23858 10 5 10Z" transform="translate(105.001 418.581)" fill="#787878" fill-opacity="0.5"/>
<path id="Chandigarh" d="M5 10C7.76142 10 10 7.76142 10 5C10 2.23858 7.76142 0 5 0C2.23858 0 0 2.23858 0 5C0 7.76142 2.23858 10 5 10Z" transform="translate(111.021 422.152)" fill="#787878" fill-opacity="0.5"/>
<path id="Charlotte" d="M5 10C7.76142 10 10 7.76142 10 5C10 2.23858 7.76142 0 5 0C2.23858 0 0 2.23858 0 5C0 7.76142 2.23858 10 5 10Z" transform="translate(311.542 413.87)" fill="#787878" fill-opacity="0.5"/>
<path id="Chelyabinsk" d="M5 10C7.76142 10 10 7.76142 10 5C10 2.23858 7.76142 0 5 0C2.23858 0 0 2.23858 0 5C0 7.76142 2.23858 10 5 10Z" transform="translate(106.863 421.019)" fill="#787878" fill-opacity="0.5"/>
<path id="Chiang Mai" d="M5 10C7.76142 10 10 7.76142 10 5C10 2.23858 7.76142 0 5 0C2.23858 0 0 2.23858 0 5C0 7.76142 2.23858 10 5 10Z" transform="translate(131.824 421.879)" fill="#787878" fill-opacity="0.5"/>
<path id="Chifeng" d="M5 10C7.76142 10 10 7.76142 10 5C10 2.23858 7.76142 0 5 0C2.23858 0 0 2.23858 0 5C0 7.76142 2.23858 10 5 10Z" transform="translate(108.572 422.199)" fill="#787878" fill-opacity="0.5"/>
<path id="Cincinnati" d="M5 10C7.76142 10 10 7.76142 10 5C10 2.23858 7.76142 0 5 0C2.23858 0 0 2.23858 0 5C0 7.76142 2.23858 10 5 10Z" transform="translate(147.63 415.504)" fill="#787878" fill-opacity="0.5"/>
<path id="Cleveland" d="M5 10C7.76142 10 10 7.76142 10 5C10 2.23858 7.76142 0 5 0C2.23858 0 0 2.23858 0 5C0 7.76142 2.23858 10 5 10Z" transform="translate(145.421 415.042)" fill="#787878" fill-opacity="0.5"/>
<path id="Cochabamba" d="M5 10C7.76142 10 10 7.76142 10 5C10 2.23858 7.76142 0 5 0C2.23858 0 0 2.23858 0 5C0 7.76142 2.23858 10 5 10Z" transform="translate(113.867 420.79)" fill="#787878" fill-opacity="0.5"/>
<path id="Coimbatore" d="M5 10C7.76142 10 10 7.76142 10 5C10 2.23858 7.76142 0 5 0C2.23858 0 0 2.23858 0 5C0 7.76142 2.23858 10 5 10Z" transform="translate(111.119 405.809)" fill="#787878" fill-opacity="0.5"/>
<path id="Conakry" d="M5 10C7.76142 10 10 7.76142 10 5C10 2.23858 7.76142 0 5 0C2.23858 0 0 2.23858 0 5C0 7.76142 2.23858 10 5 10Z" transform="translate(105.237 414.323)" fill="#787878" fill-opacity="0.5"/>
<path id="Datong" d="M5 10C7.76142 10 10 7.76142 10 5C10 2.23858 7.76142 0 5 0C2.23858 0 0 2.23858 0 5C0 7.76142 2.23858 10 5 10Z" transform="translate(105.479 416.291)" fill="#787878" fill-opacity="0.5"/>
<path id="Dublin" d="M5 10C7.76142 10 10 7.76142 10 5C10 2.23858 7.76142 0 5 0C2.23858 0 0 2.23858 0 5C0 7.76142 2.23858 10 5 10Z" transform="translate(187.135 421.174)" fill="#787878" fill-opacity="0.5"/>
<path id="Edmonton" d="M5 10C7.76142 10 10 7.76142 10 5C10 2.23858 7.76142 0 5 0C2.23858 0 0 2.23858 0 5C0 7.76142 2.23858 10 5 10Z" transform="translate(138.345 419.082)" fill="#787878" fill-opacity="0.5"/>
<path id="Freetown" d="M5 10C7.76142 10 10 7.76142 10 5C10 2.23858 7.76142 0 5 0C2.23858 0 0 2.23858 0 5C0 7.76142 2.23858 10 5 10Z" transform="translate(104.209 421.873)" fill="#787878" fill-opacity="0.5"/>
<path id="Ganzhou" d="M5 10C7.76142 10 10 7.76142 10 5C10 2.23858 7.76142 0 5 0C2.23858 0 0 2.23858 0 5C0 7.76142 2.23858 10 5 10Z" transform="translate(107.233 421.638)" fill="#787878" fill-opacity="0.5"/>
<path id="Gaziantep" d="M5 10C7.76142 10 10 7.76142 10 5C10 2.23858 7.76142 0 5 0C2.23858 0 0 2.23858 0 5C0 7.76142 2.23858 10 5 10Z" transform="translate(109.199 416.582)" fill="#787878" fill-opacity="0.5"/>
<path id="Glasgow" d="M5 10C7.76142 10 10 7.76142 10 5C10 2.23858 7.76142 0 5 0C2.23858 0 0 2.23858 0 5C0 7.76142 2.23858 10 5 10Z" transform="translate(140.384 416.272)" fill="#787878" fill-opacity="0.5"/>
<path id="Guilin" d="M5 10C7.76142 10 10 7.76142 10 5C10 2.23858 7.76142 0 5 0C2.23858 0 0 2.23858 0 5C0 7.76142 2.23858 10 5 10Z" transform="translate(127.216 422.3)" fill="#787878" fill-opacity="0.5"/>
<path id="Gwalior" d="M5 10C7.76142 10 10 7.76142 10 5C10 2.23858 7.76142 0 5 0C2.23858 0 0 2.23858 0 5C0 7.76142 2.23858 10 5 10Z" transform="translate(103.143 419.936)" fill="#787878" fill-opacity="0.5"/>
<path id="Haikou" d="M5 10C7.76142 10 10 7.76142 10 5C10 2.23858 7.76142 0 5 0C2.23858 0 0 2.23858 0 5C0 7.76142 2.23858 10 5 10Z" transform="translate(165.072 414.726)" fill="#787878" fill-opacity="0.5"/>
<path id="Hamburg" d="M5 10C7.76142 10 10 7.76142 10 5C10 2.23858 7.76142 0 5 0C2.23858 0 0 2.23858 0 5C0 7.76142 2.23858 10 5 10Z" transform="translate(160.517 414.86)" fill="#787878" fill-opacity="0.5"/>
<path id="Harare" d="M5 10C7.76142 10 10 7.76142 10 5C10 2.23858 7.76142 0 5 0C2.23858 0 0 2.23858 0 5C0 7.76142 2.23858 10 5 10Z" transform="translate(109.723 417.826)" fill="#787878" fill-opacity="0.5"/>
<path id="Helsinki" d="M5 10C7.76142 10 10 7.76142 10 5C10 2.23858 7.76142 0 5 0C2.23858 0 0 2.23858 0 5C0 7.76142 2.23858 10 5 10Z" transform="translate(169.49 420.345)" fill="#787878" fill-opacity="0.5"/>
<path id="Hengyang" d="M5 10C7.76142 10 10 7.76142 10 5C10 2.23858 7.76142 0 5 0C2.23858 0 0 2.23858 0 5C0 7.76142 2.23858 10 5 10Z" transform="translate(104.838 418.703)" fill="#787878" fill-opacity="0.5"/>
<path id="Hiroshima" d="M5 10C7.76142 10 10 7.76142 10 5C10 2.23858 7.76142 0 5 0C2.23858 0 0 2.23858 0 5C0 7.76142 2.23858 10 5 10Z" transform="translate(111.713 411.632)" fill="#787878" fill-opacity="0.5"/>
<path id="Hohhot" d="M5 10C7.76142 10 10 7.76142 10 5C10 2.23858 7.76142 0 5 0C2.23858 0 0 2.23858 0 5C0 7.76142 2.23858 10 5 10Z" transform="translate(139.625 412.556)" fill="#787878" fill-opacity="0.5"/>
<path id="Indianapolis" d="M5 10C7.76142 10 10 7.76142 10 5C10 2.23858 7.76142 0 5 0C2.23858 0 0 2.23858 0 5C0 7.76142 2.23858 10 5 10Z" transform="translate(144.527 415.283)" fill="#787878" fill-opacity="0.5"/>
<path id="Jabalpur" d="M5 10C7.76142 10 10 7.76142 10 5C10 2.23858 7.76142 0 5 0C2.23858 0 0 2.23858 0 5C0 7.76142 2.23858 10 5 10Z" transform="translate(104.477 418.938)" fill="#787878" fill-opacity="0.5"/>
<path id="Jinzhou" d="M5 10C7.76142 10 10 7.76142 10 5C10 2.23858 7.76142 0 5 0C2.23858 0 0 2.23858 0 5C0 7.76142 2.23858 10 5 10Z" transform="translate(103.844 422.25)" fill="#787878" fill-opacity="0.5"/>
<path id="Jodhpur" d="M5 10C7.76142 10 10 7.76142 10 5C10 2.23858 7.76142 0 5 0C2.23858 0 0 2.23858 0 5C0 7.76142 2.23858 10 5 10Z" transform="translate(104.574 419.084)" fill="#787878" fill-opacity="0.5"/>
<path id="Joinville" d="M5 10C7.76142 10 10 7.76142 10 5C10 2.23858 7.76142 0 5 0C2.23858 0 0 2.23858 0 5C0 7.76142 2.23858 10 5 10Z" transform="translate(105.091 420.444)" fill="#787878" fill-opacity="0.5"/>
<path id="Kananga" d="M5 10C7.76142 10 10 7.76142 10 5C10 2.23858 7.76142 0 5 0C2.23858 0 0 2.23858 0 5C0 7.76142 2.23858 10 5 10Z" transform="translate(103.142 419.746)" fill="#787878" fill-opacity="0.5"/>
<path id="Kansas City" d="M5 10C7.76142 10 10 7.76142 10 5C10 2.23858 7.76142 0 5 0C2.23858 0 0 2.23858 0 5C0 7.76142 2.23858 10 5 10Z" transform="translate(148.304 416.244)" fill="#787878" fill-opacity="0.5"/>
<path id="Kathmandu" d="M5 10C7.76142 10 10 7.76142 10 5C10 2.23858 7.76142 0 5 0C2.23857 0 0 2.23858 0 5C0 7.76142 2.23857 10 5 10Z" transform="translate(136.585 419.804)" fill="#787878" fill-opacity="0.5"/>
<path id="Kazan" d="M5 10C7.76142 10 10 7.76142 10 5C10 2.23858 7.76142 0 5 0C2.23858 0 0 2.23858 0 5C0 7.76142 2.23858 10 5 10Z" transform="translate(111.115 420.612)" fill="#787878" fill-opacity="0.5"/>
<path id="Kisangani" d="M5 10C7.76142 10 10 7.76142 10 5C10 2.23858 7.76142 0 5 0C2.23858 0 0 2.23858 0 5C0 7.76142 2.23858 10 5 10Z" transform="translate(103.341 421.541)" fill="#787878" fill-opacity="0.5"/>
<path id="Konya" d="M5 10C7.76142 10 10 7.76142 10 5C10 2.23858 7.76142 0 5 0C2.23858 0 0 2.23858 0 5C0 7.76142 2.23858 10 5 10Z" transform="translate(106.336 420.435)" fill="#787878" fill-opacity="0.5"/>
<path id="Krasnoyarsk" d="M5 10C7.76142 10 10 7.76142 10 5C10 2.23858 7.76142 0 5 0C2.23858 0 0 2.23858 0 5C0 7.76142 2.23858 10 5 10Z" transform="translate(110.32 422.14)" fill="#787878" fill-opacity="0.5"/>
<path id="La Paz" d="M5 10C7.76142 10 10 7.76142 10 5C10 2.23858 7.76142 0 5 0C2.23858 0 0 2.23858 0 5C0 7.76142 2.23858 10 5 10Z" transform="translate(116.567 414.633)" fill="#787878" fill-opacity="0.5"/>
<path id="Las Vegas" d="M5 10C7.76142 10 10 7.76142 10 5C10 2.23858 7.76142 0 5 0C2.23858 0 0 2.23858 0 5C0 7.76142 2.23858 10 5 10Z" transform="translate(244.436 406.873)" fill="#787878" fill-opacity="0.5"/>
<path id="Lianyungang" d="M5 10C7.76142 10 10 7.76142 10 5C10 2.23858 7.76142 0 5 0C2.23858 0 0 2.23858 0 5C0 7.76142 2.23858 10 5 10Z" transform="translate(107.588 415.817)" fill="#787878" fill-opacity="0.5"/>
<path id="Liuzhou" d="M5 10C7.76142 10 10 7.76142 10 5C10 2.23858 7.76142 0 5 0C2.23858 0 0 2.23858 0 5C0 7.76142 2.23858 10 5 10Z" transform="translate(107.538 412.198)" fill="#787878" fill-opacity="0.5"/>
<path id="Luoyang" d="M5 10C7.76142 10 10 7.76142 10 5C10 2.23858 7.76142 0 5 0C2.23858 0 0 2.23858 0 5C0 7.76142 2.23858 10 5 10Z" transform="translate(106.581 410.132)" fill="#787878" fill-opacity="0.5"/>
<path id="Lusaka" d="M5 10C7.76142 10 10 7.76142 10 5C10 2.23858 7.76142 0 5 0C2.23858 0 0 2.23858 0 5C0 7.76142 2.23858 10 5 10Z" transform="translate(110.184 407.056)" fill="#787878" fill-opacity="0.5"/>
<path id="Lyon" d="M5 10C7.76142 10 10 7.76142 10 5C10 2.23858 7.76142 0 5 0C2.23858 0 0 2.23858 0 5C0 7.76142 2.23858 10 5 10Z" transform="translate(145.014 415.957)" fill="#787878" fill-opacity="0.5"/>
<path id="Madurai" d="M5 10C7.76142 10 10 7.76142 10 5C10 2.23858 7.76142 0 5 0C2.23858 0 0 2.23858 0 5C0 7.76142 2.23858 10 5 10Z" transform="translate(108.036 416.11)" fill="#787878" fill-opacity="0.5"/>
<path id="Manaus" d="M5 10C7.76142 10 10 7.76142 10 5C10 2.23858 7.76142 0 5 0C2.23858 0 0 2.23858 0 5C0 7.76142 2.23858 10 5 10Z" transform="translate(111.643 410.82)" fill="#787878" fill-opacity="0.5"/>
<path id="Manchester" d="M5 10C7.76142 10 10 7.76142 10 5C10 2.23858 7.76142 0 5 0C2.23858 0 0 2.23858 0 5C0 7.76142 2.23858 10 5 10Z" transform="translate(180.105 405.278)" fill="#787878" fill-opacity="0.5"/>
<path id="Mandalay" d="M5 10C7.76142 10 10 7.76142 10 5C10 2.23858 7.76142 0 5 0C2.23858 0 0 2.23858 0 5C0 7.76142 2.23858 10 5 10Z" transform="translate(115.619 419.331)" fill="#787878" fill-opacity="0.5"/>
<path id="Maputo" d="M5 10C7.76142 10 10 7.76142 10 5C10 2.23858 7.76142 0 5 0C2.23858 0 0 2.23858 0 5C0 7.76142 2.23858 10 5 10Z" transform="translate(108.75 422.238)" fill="#787878" fill-opacity="0.5"/>
<path id="Maracaibo" d="M5 10C7.76142 10 10 7.76142 10 5C10 2.23858 7.76142 0 5 0C2.23858 0 0 2.23858 0 5C0 7.76142 2.23858 10 5 10Z" transform="translate(105.438 410.739)" fill="#787878" fill-opacity="0.5"/>
<path id="Mbuji Mayi" d="M5 10C7.76142 10 10 7.76142 10 5C10 2.23858 7.76142 0 5 0C2.23858 0 0 2.23858 0 5C0 7.76142 2.23858 10 5 10Z" transform="translate(103.563 409.397)" fill="#787878" fill-opacity="0.5"/>
<path id="Medan" d="M5 10C7.76142 10 10 7.76142 10 5C10 2.23858 7.76142 0 5 0C2.23857 0 0 2.23858 0 5C0 7.76142 2.23857 10 5 10Z" transform="translate(136.739 409.603)" fill="#787878" fill-opacity="0.5"/>
<path id="Memphis" d="M5 10C7.76142 10 10 7.76142 10 5C10 2.23858 7.76142 0 5 0C2.23858 0 0 2.23858 0 5C0 7.76142 2.23858 10 5 10Z" transform="translate(124.545 421.844)" fill="#787878" fill-opacity="0.5"/>
<path id="Mendoza" d="M5 10C7.76142 10 10 7.76142 10 5C10 2.23858 7.76142 0 5 0C2.23858 0 0 2.23858 0 5C0 7.76142 2.23858 10 5 10Z" transform="translate(109.665 421.9)" fill="#787878" fill-opacity="0.5"/>
<path id="Milwaukee" d="M5 10C7.76142 10 10 7.76142 10 5C10 2.23858 7.76142 0 5 0C2.23858 0 0 2.23858 0 5C0 7.76142 2.23858 10 5 10Z" transform="translate(133.712 418.682)" fill="#787878" fill-opacity="0.5"/>
<path id="Mombasa" d="M5 10C7.76142 10 10 7.76142 10 5C10 2.23858 7.76142 0 5 0C2.23858 0 0 2.23858 0 5C0 7.76142 2.23858 10 5 10Z" transform="translate(111.306 421.041)" fill="#787878" fill-opacity="0.5"/>
<path id="Monrovia" d="M5 10C7.76142 10 10 7.76142 10 5C10 2.23858 7.76142 0 5 0C2.23858 0 0 2.23858 0 5C0 7.76142 2.23858 10 5 10Z" transform="translate(103.943 418.859)" fill="#787878" fill-opacity="0.5"/>
<path id="Montevideo" d="M5 10C7.76142 10 10 7.76142 10 5C10 2.23858 7.76142 0 5 0C2.23858 0 0 2.23858 0 5C0 7.76142 2.23858 10 5 10Z" transform="translate(111.107 415.457)" fill="#787878" fill-opacity="0.5"/>
<path id="Multan" d="M5 10C7.76142 10 10 7.76142 10 5C10 2.23858 7.76142 0 5 0C2.23858 0 0 2.23858 0 5C0 7.76142 2.23858 10 5 10Z" transform="translate(106.514 413.383)" fill="#787878" fill-opacity="0.5"/>
<path id="Nanchong" d="M5 10C7.76142 10 10 7.76142 10 5C10 2.23858 7.76142 0 5 0C2.23858 0 0 2.23858 0 5C0 7.76142 2.23858 10 5 10Z" transform="translate(105.994 421.478)" fill="#787878" fill-opacity="0.5"/>
<path id="Niamey" d="M5 10C7.76142 10 10 7.76142 10 5C10 2.23858 7.76142 0 5 0C2.23858 0 0 2.23858 0 5C0 7.76142 2.23858 10 5 10Z" transform="translate(105.462 421.042)" fill="#787878" fill-opacity="0.5"/>
<path id="Nizhniy Novgorod" d="M5 10C7.76142 10 10 7.76142 10 5C10 2.23858 7.76142 0 5 0C2.23858 0 0 2.23858 0 5C0 7.76142 2.23858 10 5 10Z" transform="translate(106.681 420.502)" fill="#787878" fill-opacity="0.5"/>
<path id="Novosibirsk" d="M5 10C7.76142 10 10 7.76142 10 5C10 2.23858 7.76142 0 5 0C2.23858 0 0 2.23858 0 5C0 7.76142 2.23858 10 5 10Z" transform="translate(119.348 416.539)" fill="#787878" fill-opacity="0.5"/>
<path id="Omsk" d="M5 10C7.76142 10 10 7.76142 10 5C10 2.23858 7.76142 0 5 0C2.23858 0 0 2.23858 0 5C0 7.76142 2.23858 10 5 10Z" transform="translate(105.938 421.357)" fill="#787878" fill-opacity="0.5"/>
<path id="Orlando" d="M5 10C7.76142 10 10 7.76142 10 5C10 2.23858 7.76142 0 5 0C2.23858 0 0 2.23858 0 5C0 7.76142 2.23858 10 5 10Z" transform="translate(235.378 413.91)" fill="#787878" fill-opacity="0.5"/>
<path id="Ouagadougou" d="M5 10C7.76142 10 10 7.76142 10 5C10 2.23858 7.76142 0 5 0C2.23858 0 0 2.23858 0 5C0 7.76142 2.23858 10 5 10Z" transform="translate(106.332 406.976)" fill="#787878" fill-opacity="0.5"/>
<path id="Palembang" d="M5 10C7.76142 10 10 7.76142 10 5C10 2.23858 7.76142 0 5 0C2.23858 0 0 2.23858 0 5C0 7.76142 2.23858 10 5 10Z" transform="translate(120.687 416.221)" fill="#787878" fill-opacity="0.5"/>
<path id="Perth" d="M5 10C7.76142 10 10 7.76142 10 5C10 2.23858 7.76142 0 5 0C2.23858 0 0 2.23858 0 5C0 7.76142 2.23858 10 5 10Z" transform="translate(142.609 412.747)" fill="#787878" fill-opacity="0.5"/>
<path id="Peshawar" d="M5 10C7.76142 10 10 7.76142 10 5C10 2.23858 7.76142 0 5 0C2.23858 0 0 2.23858 0 5C0 7.76142 2.23858 10 5 10Z" transform="translate(106.801 411.958)" fill="#787878" fill-opacity="0.5"/>
<path id="Pittsburgh" d="M5 10C7.76142 10 10 7.76142 10 5C10 2.23858 7.76142 0 5 0C2.23858 0 0 2.23858 0 5C0 7.76142 2.23858 10 5 10Z" transform="translate(155.595 415.658)" fill="#787878" fill-opacity="0.5"/>
<path id="Pointe Noire" d="M5 10C7.76142 10 10 7.76142 10 5C10 2.23858 7.76142 0 5 0C2.23858 0 0 2.23858 0 5C0 7.76142 2.23858 10 5 10Z" transform="translate(106.096 421.855)" fill="#787878" fill-opacity="0.5"/>
<path id="Port au Prince" d="M5 10C7.76142 10 10 7.76142 10 5C10 2.23858 7.76142 0 5 0C2.23858 0 0 2.23858 0 5C0 7.76142 2.23858 10 5 10Z" transform="translate(109.544 405.851)" fill="#787878" fill-opacity="0.5"/>
<path id="Portland" d="M5 10C7.76142 10 10 7.76142 10 5C10 2.23858 7.76142 0 5 0C2.23858 0 0 2.23858 0 5C0 7.76142 2.23858 10 5 10Z" transform="translate(188.624 411.542)" fill="#787878" fill-opacity="0.5"/>
<path id="Porto" d="M5 10C7.76142 10 10 7.76142 10 5C10 2.23858 7.76142 0 5 0C2.23858 0 0 2.23858 0 5C0 7.76142 2.23858 10 5 10Z" transform="translate(135.172 420.048)" fill="#787878" fill-opacity="0.5"/>
<path id="Providence" d="M5 10C7.76142 10 10 7.76142 10 5C10 2.23858 7.76142 0 5 0C2.23858 0 0 2.23858 0 5C0 7.76142 2.23858 10 5 10Z" transform="translate(119.59 421.139)" fill="#787878" fill-opacity="0.5"/>
<path id="Quanzhou" d="M5 10C7.76143 10 10 7.76142 10 5C10 2.23858 7.76143 0 5 0C2.23858 0 0 2.23858 0 5C0 7.76142 2.23858 10 5 10Z" transform="translate(121.986 417.257)" fill="#787878" fill-opacity="0.5"/>
<path id="Rabat" d="M5 10C7.76142 10 10 7.76142 10 5C10 2.23858 7.76142 0 5 0C2.23858 0 0 2.23858 0 5C0 7.76142 2.23858 10 5 10Z" transform="translate(105.646 414.286)" fill="#787878" fill-opacity="0.5"/>
<path id="Raipur" d="M5 10C7.76142 10 10 7.76142 10 5C10 2.23858 7.76142 0 5 0C2.23858 0 0 2.23858 0 5C0 7.76142 2.23858 10 5 10Z" transform="translate(107.767 417.763)" fill="#787878" fill-opacity="0.5"/>
<path id="Rajkot" d="M5 10C7.76142 10 10 7.76142 10 5C10 2.23858 7.76142 0 5 0C2.23858 0 0 2.23858 0 5C0 7.76142 2.23858 10 5 10Z" transform="translate(104.557 415.134)" fill="#787878" fill-opacity="0.5"/>
<path id="Ranchi" d="M5 10C7.76142 10 10 7.76142 10 5C10 2.23858 7.76142 0 5 0C2.23858 0 0 2.23858 0 5C0 7.76142 2.23858 10 5 10Z" transform="translate(108.134 419.38)" fill="#787878" fill-opacity="0.5"/>
<path id="Rosario" d="M5 10C7.76142 10 10 7.76142 10 5C10 2.23858 7.76142 0 5 0C2.23858 0 0 2.23858 0 5C0 7.76142 2.23858 10 5 10Z" transform="translate(105.974 418.113)" fill="#787878" fill-opacity="0.5"/>
<path id="Sacramento" d="M5 10C7.76142 10 10 7.76142 10 5C10 2.23858 7.76142 0 5 0C2.23858 0 0 2.23858 0 5C0 7.76142 2.23858 10 5 10Z" transform="translate(143.808 412.069)" fill="#787878" fill-opacity="0.5"/>
<path id="Salt Lake City" d="M5 10C7.76142 10 10 7.76142 10 5C10 2.23858 7.76142 0 5 0C2.23858 0 0 2.23858 0 5C0 7.76142 2.23858 10 5 10Z" transform="translate(200.162 421.76)" fill="#787878" fill-opacity="0.5"/>
<path id="Samara" d="M5 10C7.76142 10 10 7.76142 10 5C10 2.23858 7.76142 0 5 0C2.23858 0 0 2.23858 0 5C0 7.76142 2.23858 10 5 10Z" transform="translate(111.523 421.5)" fill="#787878" fill-opacity="0.5"/>
<path id="San Antonio" d="M5 10C7.76142 10 10 7.76142 10 5C10 2.23858 7.76142 0 5 0C2.23857 0 0 2.23858 0 5C0 7.76142 2.23857 10 5 10Z" transform="translate(136.649 410.33)" fill="#787878" fill-opacity="0.5"/>
<path id="San Jose" d="M5 10C7.76142 10 10 7.76142 10 5C10 2.23858 7.76142 0 5 0C2.23858 0 0 2.23858 0 5C0 7.76142 2.23858 10 5 10Z" transform="translate(151.616 415.035)" fill="#787878" fill-opacity="0.5"/>
<path id="San Juan" d="M5 10C7.76142 10 10 7.76142 10 5C10 2.23858 7.76142 0 5 0C2.23858 0 0 2.23858 0 5C0 7.76142 2.23858 10 5 10Z" transform="translate(150.329 407.798)" fill="#787878" fill-opacity="0.5"/>
<path id="San Salvador" d="M5 10C7.76142 10 10 7.76142 10 5C10 2.23858 7.76142 0 5 0C2.23858 0 0 2.23858 0 5C0 7.76142 2.23858 10 5 10Z" transform="translate(120.014 422.185)" fill="#787878" fill-opacity="0.5"/>
<path id="Santa Cruz" d="M5 10C7.76142 10 10 7.76142 10 5C10 2.23858 7.76142 0 5 0C2.23858 0 0 2.23858 0 5C0 7.76142 2.23858 10 5 10Z" transform="translate(118.028 416.477)" fill="#787878" fill-opacity="0.5"/>
<path id="Sapporo" d="M5 10C7.76142 10 10 7.76142 10 5C10 2.23858 7.76142 0 5 0C2.23858 0 0 2.23858 0 5C0 7.76142 2.23858 10 5 10Z" transform="translate(166.614 405.55)" fill="#787878" fill-opacity="0.5"/>
<path id="Semarang" d="M5 10C7.76142 10 10 7.76142 10 5C10 2.23858 7.76142 0 5 0C2.23858 0 0 2.23858 0 5C0 7.76142 2.23858 10 5 10Z" transform="translate(119.333 414.784)" fill="#787878" fill-opacity="0.5"/>
<path id="Sendai" d="M5 10C7.76142 10 10 7.76142 10 5C10 2.23858 7.76142 0 5 0C2.23858 0 0 2.23858 0 5C0 7.76142 2.23858 10 5 10Z" transform="translate(119.104 409.377)" fill="#787878" fill-opacity="0.5"/>
<path id="Shiraz" d="M5 10C7.76142 10 10 7.76142 10 5C10 2.23858 7.76142 0 5 0C2.23858 0 0 2.23858 0 5C0 7.76142 2.23858 10 5 10Z" transform="translate(114.097 416.865)" fill="#787878" fill-opacity="0.5"/>
<path id="Sofia" d="M5 10C7.76143 10 10 7.76142 10 5C10 2.23858 7.76143 0 5 0C2.23858 0 0 2.23858 0 5C0 7.76142 2.23858 10 5 10Z" transform="translate(122.687 420.416)" fill="#787878" fill-opacity="0.5"/>
<path id="Srinagar" d="M5 10C7.76142 10 10 7.76142 10 5C10 2.23858 7.76142 0 5 0C2.23858 0 0 2.23858 0 5C0 7.76142 2.23858 10 5 10Z" transform="translate(109.738 417.832)" fill="#787878" fill-opacity="0.5"/>
<path id="St. Louis" d="M5 10C7.76142 10 10 7.76142 10 5C10 2.23858 7.76142 0 5 0C2.23858 0 0 2.23858 0 5C0 7.76142 2.23858 10 5 10Z" transform="translate(172.131 410.375)" fill="#787878" fill-opacity="0.5"/>
<path id="Stockholm" d="M5 10C7.76142 10 10 7.76142 10 5C10 2.23858 7.76142 0 5 0C2.23858 0 0 2.23858 0 5C0 7.76142 2.23858 10 5 10Z" transform="translate(219.441 417.101)" fill="#787878" fill-opacity="0.5"/>
<path id="Tabriz" d="M5 10C7.76142 10 10 7.76142 10 5C10 2.23858 7.76142 0 5 0C2.23858 0 0 2.23858 0 5C0 7.76142 2.23858 10 5 10Z" transform="translate(108.418 417.109)" fill="#787878" fill-opacity="0.5"/>
<path id="Tanger" d="M5 10C7.76142 10 10 7.76142 10 5C10 2.23858 7.76142 0 5 0C2.23858 0 0 2.23858 0 5C0 7.76142 2.23858 10 5 10Z" transform="translate(106.928 422.091)" fill="#787878" fill-opacity="0.5"/>
<path id="Tashkent" d="M5 10C7.76142 10 10 7.76142 10 5C10 2.23858 7.76142 0 5 0C2.23858 0 0 2.23858 0 5C0 7.76142 2.23858 10 5 10Z" transform="translate(112.152 407.695)" fill="#787878" fill-opacity="0.5"/>
<path id="Tegucigalpa" d="M5 10C7.76142 10 10 7.76142 10 5C10 2.23858 7.76142 0 5 0C2.23858 0 0 2.23858 0 5C0 7.76142 2.23858 10 5 10Z" transform="translate(109.02 419.449)" fill="#787878" fill-opacity="0.5"/>
<path id="Tijuana" d="M5 10C7.76142 10 10 7.76142 10 5C10 2.23858 7.76142 0 5 0C2.23858 0 0 2.23858 0 5C0 7.76142 2.23858 10 5 10Z" transform="translate(123.946 412.027)" fill="#787878" fill-opacity="0.5"/>
<path id="Tiruchirappalli" d="M5 10C7.76142 10 10 7.76142 10 5C10 2.23858 7.76142 0 5 0C2.23858 0 0 2.23858 0 5C0 7.76142 2.23858 10 5 10Z" transform="translate(107.903 421.893)" fill="#787878" fill-opacity="0.5"/>
<path id="Tunis" d="M5 10C7.76142 10 10 7.76142 10 5C10 2.23858 7.76142 0 5 0C2.23858 0 0 2.23858 0 5C0 7.76142 2.23858 10 5 10Z" transform="translate(122.791 409.544)" fill="#787878" fill-opacity="0.5"/>
<path id="Ufa" d="M5 10C7.76142 10 10 7.76142 10 5C10 2.23858 7.76142 0 5 0C2.23858 0 0 2.23858 0 5C0 7.76142 2.23858 10 5 10Z" transform="translate(110.902 421.95)" fill="#787878" fill-opacity="0.5"/>
<path id="Valencia" d="M5 10C7.76142 10 10 7.76142 10 5C10 2.23858 7.76142 0 5 0C2.23858 0 0 2.23858 0 5C0 7.76142 2.23858 10 5 10Z" transform="translate(124.258 414.14)" fill="#787878" fill-opacity="0.5"/>
<path id="Vancouver" d="M5 10C7.76142 10 10 7.76142 10 5C10 2.23858 7.76142 0 5 0C2.23858 0 0 2.23858 0 5C0 7.76142 2.23858 10 5 10Z" transform="translate(203.161 406.982)" fill="#787878" fill-opacity="0.5"/>
<path id="Vijayawada" d="M5 10C7.76142 10 10 7.76142 10 5C10 2.23858 7.76142 0 5 0C2.23858 0 0 2.23858 0 5C0 7.76142 2.23858 10 5 10Z" transform="translate(106.46 413.6)" fill="#787878" fill-opacity="0.5"/>
<path id="Weifang" d="M5 10C7.76142 10 10 7.76142 10 5C10 2.23858 7.76142 0 5 0C2.23858 0 0 2.23858 0 5C0 7.76142 2.23858 10 5 10Z" transform="translate(105.745 407.67)" fill="#787878" fill-opacity="0.5"/>
<path id="Weihai" d="M5 10C7.76142 10 10 7.76142 10 5C10 2.23858 7.76142 0 5 0C2.23858 0 0 2.23858 0 5C0 7.76142 2.23858 10 5 10Z" transform="translate(110.082 421.02)" fill="#787878" fill-opacity="0.5"/>
<path id="Xining" d="M5 10C7.76142 10 10 7.76142 10 5C10 2.23858 7.76142 0 5 0C2.23858 0 0 2.23858 0 5C0 7.76142 2.23858 10 5 10Z" transform="translate(120.937 418.504)" fill="#787878" fill-opacity="0.5"/>
<path id="Xuzhou" d="M5 10C7.76142 10 10 7.76142 10 5C10 2.23858 7.76142 0 5 0C2.23858 0 0 2.23858 0 5C0 7.76142 2.23858 10 5 10Z" transform="translate(108.929 412.077)" fill="#787878" fill-opacity="0.5"/>
<path id="Yangzhou" d="M5 10C7.76142 10 10 7.76142 10 5C10 2.23858 7.76142 0 5 0C2.23858 0 0 2.23858 0 5C0 7.76142 2.23858 10 5 10Z" transform="translate(108.819 413.708)" fill="#787878" fill-opacity="0.5"/>
<path id="Yantai" d="M5 10C7.76142 10 10 7.76142 10 5C10 2.23858 7.76142 0 5 0C2.23858 0 0 2.23858 0 5C0 7.76142 2.23858 10 5 10Z" transform="translate(127.55 408.819)" fill="#787878" fill-opacity="0.5"/>
<path id="Yekaterinburg" d="M5 10C7.76142 10 10 7.76142 10 5C10 2.23858 7.76142 0 5 0C2.23858 0 0 2.23858 0 5C0 7.76142 2.23858 10 5 10Z" transform="translate(119.241 418.177)" fill="#787878" fill-opacity="0.5"/>
<path id="Yichang" d="M5 10C7.76142 10 10 7.76142 10 5C10 2.23858 7.76142 0 5 0C2.23858 0 0 2.23858 0 5C0 7.76142 2.23858 10 5 10Z" transform="translate(110.703 418.714)" fill="#787878" fill-opacity="0.5"/>
<path id="Yinchuan" d="M5 10C7.76142 10 10 7.76142 10 5C10 2.23858 7.76142 0 5 0C2.23858 0 0 2.23858 0 5C0 7.76142 2.23858 10 5 10Z" transform="translate(127.986 418.167)" fill="#787878" fill-opacity="0.5"/>
<path id="Yiwu" d="M5 10C7.76142 10 10 7.76142 10 5C10 2.23858 7.76142 0 5 0C2.23858 0 0 2.23858 0 5C0 7.76142 2.23858 10 5 10Z" transform="translate(107.482 420.899)" fill="#787878" fill-opacity="0.5"/>
<path id="Zhuhai" d="M5 10C7.76142 10 10 7.76142 10 5C10 2.23858 7.76142 0 5 0C2.23858 0 0 2.23858 0 5C0 7.76142 2.23858 10 5 10Z" transform="translate(131.701 416.158)" fill="#787878" fill-opacity="0.5"/>
</g>
</g>
</g>
<text id="Population" transform="translate(64 10)" fill="white" xml:space="preserve" style="white-space: pre" font-family="Atlas Grotesk" font-style="Bold" font-size="16" font-weight="bold" letter-spacing="0em"><tspan x="0.453125" y="12.992">Population</tspan></text>
<rect id="Rectangle 2.1" x="-1" y="-1" width="162" height="34" transform="translate(290 414)" fill="#2A2A2A" stroke="white" stroke-width="2"/>
<text id="Flights per Day" transform="translate(314 423)" fill="white" xml:space="preserve" style="white-space: pre" font-family="Atlas Grotesk" font-style="Regular" font-size="16" letter-spacing="0em"><tspan x="0.4375" y="12.992">Flights per Day</tspan></text>
<text id="London_2" transform="translate(565 336)" fill="white" xml:space="preserve" style="white-space: pre" font-family="Atlas Grotesk" font-style="Regular" font-size="14" letter-spacing="0em"><tspan x="0" y="11.368">London</tspan></text>
<text id="Kuala Lumpur_2" transform="translate(450 352)" fill="white" xml:space="preserve" style="white-space: pre" font-family="Atlas Grotesk" font-style="Regular" font-size="14" letter-spacing="0em"><tspan x="7.22461" y="11.368">Kuala Lumpur</tspan></text>
<text id="Seoul_2" transform="translate(321 335)" fill="white" xml:space="preserve" style="white-space: pre" font-family="Atlas Grotesk" font-style="Regular" font-size="14" letter-spacing="0em"><tspan x="0" y="11.368">Seoul</tspan></text>
<text id="Chengdu_2" transform="translate(253 340)" fill="white" xml:space="preserve" style="white-space: pre" font-family="Atlas Grotesk" font-style="Regular" font-size="14" letter-spacing="0em"><tspan x="0" y="11.368">Chengdu</tspan></text>
<text id="Ho Chi Minh City" transform="translate(232 457)" fill="white" xml:space="preserve" style="white-space: pre" font-family="Atlas Grotesk" font-style="Regular" font-size="14" letter-spacing="0em"><tspan x="0" y="11.368">Ho Chi </tspan><tspan x="0" y="24.808">Minh City</tspan></text>
<text id="Nanjing" transform="translate(167 443)" fill="white" xml:space="preserve" style="white-space: pre" font-family="Atlas Grotesk" font-style="Regular" font-size="14" letter-spacing="0em"><tspan x="0" y="11.368">Nanjing</tspan></text>
<text id="Tehran_2" transform="translate(138 469)" fill="white" xml:space="preserve" style="white-space: pre" font-family="Atlas Grotesk" font-style="Regular" font-size="14" letter-spacing="0em"><tspan x="0" y="11.368">Tehran</tspan></text>
<text id="Ahmadabad_2" transform="translate(21 378)" fill="white" xml:space="preserve" style="white-space: pre" font-family="Atlas Grotesk" font-style="Regular" font-size="14" letter-spacing="0em"><tspan x="0" y="11.368">Ahmadabad</tspan></text>
<text id="Luanda_2" transform="translate(26 353)" fill="white" xml:space="preserve" style="white-space: pre" font-family="Atlas Grotesk" font-style="Regular" font-size="14" letter-spacing="0em"><tspan x="0" y="11.368">Luanda</tspan></text>
<text id="Kinshasa_2" transform="translate(31 284)" fill="white" xml:space="preserve" style="white-space: pre" font-family="Atlas Grotesk" font-style="Regular" font-size="14" letter-spacing="0em"><tspan x="0" y="11.368">Kinshasa</tspan></text>
<text id="Lagos_2" transform="translate(154 249)" fill="white" xml:space="preserve" style="white-space: pre" font-family="Atlas Grotesk" font-style="Regular" font-size="14" letter-spacing="0em"><tspan x="0" y="11.368">Lagos</tspan></text>
<text id="Bangalore_2" transform="translate(245 279)" fill="white" xml:space="preserve" style="white-space: pre" font-family="Atlas Grotesk" font-style="Regular" font-size="14" letter-spacing="0em"><tspan x="0" y="11.368">Bangalore</tspan></text>
<text id="Lahore_2" transform="translate(43 299)" fill="white" xml:space="preserve" style="white-space: pre" font-family="Atlas Grotesk" font-style="Regular" font-size="14" letter-spacing="0em"><tspan x="0" y="11.368">Lahore</tspan></text>
<text id="Dar es Salaam_2" transform="translate(-1 406)" fill="white" xml:space="preserve" style="white-space: pre" font-family="Atlas Grotesk" font-style="Regular" font-size="14" letter-spacing="0em"><tspan x="0" y="11.368">Dar es Salaam</tspan></text>
<text id="Hyderabad_2" transform="translate(57 450)" fill="white" xml:space="preserve" style="white-space: pre" font-family="Atlas Grotesk" font-style="Regular" font-size="14" letter-spacing="0em"><tspan x="0" y="11.368">Hyderabad</tspan></text>
<path id="Vector 7" d="M0 79.5V0" transform="translate(192 362)" stroke="white"/>
<path id="Vector 7.1" d="M0 116.52V0" transform="translate(172 353) rotate(5.44033)" stroke="white"/>
<path id="Vector 7.2" d="M0 103.441V0" transform="translate(160 347) rotate(16.8591)" stroke="white"/>
<path id="Vector 7.3" d="M0 30.4138V0" transform="translate(126 364) rotate(46.3322)" stroke="white"/>
<path id="Vector 7.5" d="M0 30.0666V0" transform="translate(109 358) rotate(86.1859)" stroke="white"/>
<path id="Vector 7.6" d="M0 20.2237V0" transform="translate(112 312) rotate(98.5308)" stroke="white"/>
<path id="Vector 7.7" d="M0 13.3417V0" transform="translate(105 298) rotate(102.995)" stroke="white"/>
<text id="Tokyo_2" transform="translate(335 33)" fill="white" xml:space="preserve" style="white-space: pre" font-family="Atlas Grotesk" font-style="Regular" font-size="14" letter-spacing="0em"><tspan x="0" y="11.368">Tokyo</tspan></text>
<text id="New York" transform="translate(537 231)" fill="white" xml:space="preserve" style="white-space: pre" font-family="Atlas Grotesk" font-style="Regular" font-size="14" letter-spacing="0em"><tspan x="0" y="11.368">New York</tspan></text>
<text id="Karachi_2" transform="translate(40 267)" fill="white" xml:space="preserve" style="white-space: pre" font-family="Atlas Grotesk" font-style="Regular" font-size="14" letter-spacing="0em"><tspan x="0" y="11.368">Karachi</tspan></text>
<path id="Vector 7.12" d="M0 28V0" transform="translate(120 277) rotate(90)" stroke="white"/>
<path id="Vector 7.9" d="M0 99.7246V0" transform="translate(230 454) rotate(164.291)" stroke="white"/>
<path id="Vector 7.8" d="M0 27.7308V0" transform="translate(151 264) rotate(25.641)" stroke="white"/>
<path id="Vector 7.13" d="M0 57.7754V0" transform="translate(242 291) rotate(66.541)" stroke="white"/>
<path id="Vector 7.10" d="M0 7V0" transform="translate(251 345) rotate(90)" stroke="white"/>
<path id="Vector 7.15" d="M0 12.6491V0" transform="translate(318 339) rotate(108.435)" stroke="white"/>
<text id="Singapore_2" transform="translate(285 390)" fill="white" xml:space="preserve" style="white-space: pre" font-family="Atlas Grotesk" font-style="Regular" font-size="14" letter-spacing="0em"><tspan x="0" y="11.368">Singapore</tspan></text>
<path id="Vector 7.14" d="M0 21.4709V0" transform="translate(283 391) rotate(117.759)" stroke="white"/>
<path id="Vector 7.4" d="M0 43.1393V0" transform="translate(128 381) rotate(44.0608)" stroke="white"/>
<path id="Arrow 5" d="M32.3536 0.353553C32.5488 0.158291 32.5488 -0.158291 32.3536 -0.353553L29.1716 -3.53553C28.9763 -3.7308 28.6597 -3.7308 28.4645 -3.53553C28.2692 -3.34027 28.2692 -3.02369 28.4645 -2.82843L31.2929 0L28.4645 2.82843C28.2692 3.02369 28.2692 3.34027 28.4645 3.53553C28.6597 3.7308 28.9763 3.7308 29.1716 3.53553L32.3536 0.353553ZM0 0.5H32V-0.5H0V0.5Z" transform="translate(626 321) rotate(-90)" fill="#3AAED2"/>
<text id="10+ million people" transform="translate(539 301)" stroke="#2A2A2A" stroke-width="2" xml:space="preserve" style="white-space: pre" font-family="Atlas Grotesk" font-style="Bold" font-size="11" font-weight="bold" letter-spacing="0.08em"><tspan x="11.529" y="8.932">10+ MILLION </tspan><tspan x="42.1077" y="22.132">PEOPLE</tspan></text>
<text id="10+ million people_2" transform="translate(539 301)" fill="#3CA3C3" xml:space="preserve" style="white-space: pre" font-family="Atlas Grotesk" font-style="Bold" font-size="11" font-weight="bold" letter-spacing="0.08em"><tspan x="11.529" y="8.932">10+ MILLION </tspan><tspan x="42.1077" y="22.132">PEOPLE</tspan></text>
</g>
<defs>
<linearGradient id="paint0_linear" x2="1" gradientUnits="userSpaceOnUse" gradientTransform="translate(531) scale(531 311) rotate(90)">
<stop stop-color="#21AEDB" stop-opacity="0"/>
<stop offset="1" stop-color="#21AEDB"/>
</linearGradient>
</defs>
</svg>
